<?xml version="1.0" encoding="UTF-8"?>
<svg width="225px" height="151px" viewBox="0 0 225 151" version="1.1" xmlns="http://www.w3.org/2000/svg" xmlns:xlink="http://www.w3.org/1999/xlink">
    <!-- Generator: sketchtool 57.1 (101010) - https://sketch.com -->
    <title>258EAD77-B157-47EE-9D4A-5445A63BD58A</title>
    <desc>Created with sketchtool.</desc>
    <g id="Finances" stroke="none" stroke-width="1" fill="none" fill-rule="evenodd">
        <g id="Dashboard---Finances---Empty-State" transform="translate(-1035.000000, -377.000000)">
            <g id="Group-8-Copy-3" transform="translate(732.000000, 354.000000)">
                <g id="undraw_investing_7u74" transform="translate(303.000000, 24.000000)">
                    <path d="M43.9672268,148.862332 C43.9672268,148.862332 130.727481,76.4533973 180.69617,148.862332" id="Path" fill="#F2F2F2" fill-rule="nonzero"></path>
                    <rect id="Rectangle" fill="#FF826B" fill-rule="nonzero" x="41.4883624" y="107.765369" width="15.6559858" height="41.2274293" rx="7.8279929"></rect>
                    <rect id="Rectangle" fill="#FF826B" fill-rule="nonzero" x="71.2347354" y="82.9767248" width="15.6559858" height="66.0160735" rx="7.8279929"></rect>
                    <rect id="Rectangle" fill="#FF826B" fill-rule="nonzero" x="100.981108" y="65.7551404" width="15.6559858" height="83.2376579" rx="7.8279929"></rect>
                    <rect id="Rectangle" fill="#FF826B" fill-rule="nonzero" x="130.727481" y="49.3163553" width="15.6559858" height="99.676443" rx="7.8279929"></rect>
                    <rect id="Rectangle" fill="#FF826B" fill-rule="nonzero" x="160.473855" y="20.6137146" width="15.6559858" height="128.379084" rx="7.8279929"></rect>
                    <rect id="Rectangle" stroke="#3F3D56" stroke-width="0.961538462" x="43.5758272" y="105.677904" width="15.6559858" height="41.2274293" rx="7.8279929"></rect>
                    <rect id="Rectangle" stroke="#3F3D56" stroke-width="0.961538462" x="73.3222002" y="80.88926" width="15.6559858" height="66.0160735" rx="7.8279929"></rect>
                    <rect id="Rectangle" stroke="#3F3D56" stroke-width="0.961538462" x="103.068573" y="63.6676756" width="15.6559858" height="83.2376579" rx="7.8279929"></rect>
                    <rect id="Rectangle" stroke="#3F3D56" stroke-width="0.961538462" x="132.814946" y="47.2288905" width="15.6559858" height="99.676443" rx="7.8279929"></rect>
                    <rect id="Rectangle" stroke="#3F3D56" stroke-width="0.961538462" x="162.561319" y="18.5262499" width="15.6559858" height="128.379084" rx="7.8279929"></rect>
                    <path d="M224.663396,149.123265 L0,149.123265" id="Path" stroke="#3F3D56" stroke-width="0.961538462"></path>
                    <polyline id="Path" stroke="#3F3D56" stroke-width="0.961538462" points="51.2733535 89.8914518 81.0197265 65.1028076 111.027033 48.1421564 140.773406 31.7033713 170.519779 3.00073061"></polyline>
                    <circle id="Oval" fill="#F2F2F2" fill-rule="nonzero" cx="50.4905542" cy="91.1961173" r="2.87026406"></circle>
                    <circle id="Oval" fill="#F2F2F2" fill-rule="nonzero" cx="80.2369273" cy="66.4074731" r="2.87026406"></circle>
                    <circle id="Oval" fill="#F2F2F2" fill-rule="nonzero" cx="110.244233" cy="49.4468218" r="2.87026406"></circle>
                    <circle id="Oval" fill="#F2F2F2" fill-rule="nonzero" cx="139.990606" cy="33.0080367" r="2.87026406"></circle>
                    <circle id="Oval" fill="#F2F2F2" fill-rule="nonzero" cx="169.736979" cy="4.3053961" r="2.87026406"></circle>
                    <circle id="Oval" stroke="#3F3D56" stroke-width="0.961538462" cx="51.2733535" cy="89.8914518" r="2.87026406"></circle>
                    <circle id="Oval" stroke="#3F3D56" stroke-width="0.961538462" cx="81.0197265" cy="65.1028076" r="2.87026406"></circle>
                    <circle id="Oval" stroke="#3F3D56" stroke-width="0.961538462" cx="111.027033" cy="48.1421564" r="2.87026406"></circle>
                    <circle id="Oval" stroke="#3F3D56" stroke-width="0.961538462" cx="140.773406" cy="31.7033713" r="2.87026406"></circle>
                    <circle id="Oval" stroke="#3F3D56" stroke-width="0.961538462" cx="170.519779" cy="3.00073061" r="2.87026406"></circle>
                </g>
            </g>
        </g>
    </g>
</svg>