<?xml version="1.0" encoding="UTF-8"?>
<svg width="198px" height="150px" viewBox="0 0 198 150" version="1.1" xmlns="http://www.w3.org/2000/svg" xmlns:xlink="http://www.w3.org/1999/xlink">
    <!-- Generator: sketchtool 57.1 (101010) - https://sketch.com -->
    <title>C12C6BB7-0811-4F08-BB47-3EF4D9D53461</title>
    <desc>Created with sketchtool.</desc>
    <g id="Finances" stroke="none" stroke-width="1" fill="none" fill-rule="evenodd">
        <g id="Dashboard---Finances---Empty-State" transform="translate(-1061.000000, -720.000000)" fill-rule="nonzero">
            <g id="Group-8-Copy" transform="translate(732.000000, 696.000000)">
                <g id="undraw_apartment_rent_o0ut" transform="translate(329.000000, 24.000000)">
                    <path d="M189.712973,61.6141732 L189.712973,38.5826772 L176.945116,38.5826772 L176.945116,23.6220472 L168.302259,23.6220472 L168.302259,38.5826772 L155.534402,38.5826772 L155.534402,61.6141732 L148.462973,61.6141732 L148.462973,9.84251969 L134.123688,9.84251969 L134.123688,4.92125984 L115.070116,4.92125984 L115.070116,0 L96.2129732,0 L96.2129732,4.92125984 L78.3379732,4.92125984 L78.3379732,9.84251969 L62.8201161,9.84251969 L62.8201161,61.4173228 L54.5701161,61.4173228 L54.5701161,38.3858268 L41.8022589,38.3858268 L41.8022589,23.4251969 L33.1594018,23.4251969 L33.1594018,38.3858268 L20.3915446,38.3858268 L20.3915446,61.4173228 L12.1415446,61.4173228 L12.1415446,143.110236 L30.9986875,143.110236 L30.9986875,114.173228 L43.9629732,114.173228 L43.9629732,143.110236 L94.6415446,143.110236 L94.6415446,109.448819 L116.641545,109.448819 L116.641545,143.110236 L147.284402,143.110236 L147.284402,143.307087 L166.141545,143.307087 L166.141545,114.370079 L179.10583,114.370079 L179.10583,143.307087 L197.962973,143.307087 L197.962973,61.6141732 L189.712973,61.6141732 Z M18.9183304,71.4566929 L26.3826161,71.4566929 L26.3826161,77.3622047 L18.9183304,77.3622047 L18.9183304,71.4566929 Z M19.0165446,87.992126 L26.4808304,87.992126 L26.4808304,93.8976378 L19.0165446,93.8976378 L19.0165446,87.992126 Z M26.5790446,110.433071 L19.1147589,110.433071 L19.1147589,104.527559 L26.5790446,104.527559 L26.5790446,110.433071 Z M46.1236875,57.0866142 L28.8379732,57.0866142 L28.8379732,53.5433071 L46.1236875,53.5433071 L46.1236875,57.0866142 Z M46.1236875,51.9685039 L28.8379732,51.9685039 L28.8379732,48.4251969 L46.1236875,48.4251969 L46.1236875,51.9685039 Z M46.1236875,46.8503937 L28.8379732,46.8503937 L28.8379732,43.3070866 L46.1236875,43.3070866 L46.1236875,46.8503937 Z M48.5790446,71.4566929 L56.0433304,71.4566929 L56.0433304,77.3622047 L48.5790446,77.3622047 L48.5790446,71.4566929 Z M48.6772589,87.992126 L56.1415446,87.992126 L56.1415446,93.8976378 L48.6772589,93.8976378 L48.6772589,87.992126 Z M56.2397589,110.433071 L48.7754732,110.433071 L48.7754732,104.527559 L56.2397589,104.527559 L56.2397589,110.433071 Z M86.7844018,100.590551 L73.0344018,100.590551 L73.0344018,94.488189 L86.7844018,94.488189 L86.7844018,100.590551 Z M86.7844018,83.0708661 L73.0344018,83.0708661 L73.0344018,76.9685039 L86.7844018,76.9685039 L86.7844018,83.0708661 Z M86.7844018,65.5511811 L73.0344018,65.5511811 L73.0344018,59.4488189 L86.7844018,59.4488189 L86.7844018,65.5511811 Z M86.7844018,48.0314961 L73.0344018,48.0314961 L73.0344018,41.9291339 L86.7844018,41.9291339 L86.7844018,48.0314961 Z M86.7844018,30.511811 L73.0344018,30.511811 L73.0344018,24.4094488 L86.7844018,24.4094488 L86.7844018,30.511811 Z M112.516545,100.590551 L98.7665446,100.590551 L98.7665446,94.488189 L112.516545,94.488189 L112.516545,100.590551 Z M112.516545,83.0708661 L98.7665446,83.0708661 L98.7665446,76.9685039 L112.516545,76.9685039 L112.516545,83.0708661 Z M112.516545,65.5511811 L98.7665446,65.5511811 L98.7665446,59.4488189 L112.516545,59.4488189 L112.516545,65.5511811 Z M112.516545,48.0314961 L98.7665446,48.0314961 L98.7665446,41.9291339 L112.516545,41.9291339 L112.516545,48.0314961 Z M112.516545,30.511811 L98.7665446,30.511811 L98.7665446,24.4094488 L112.516545,24.4094488 L112.516545,30.511811 Z M138.248688,100.590551 L124.498688,100.590551 L124.498688,94.488189 L138.248688,94.488189 L138.248688,100.590551 Z M138.248688,83.0708661 L124.498688,83.0708661 L124.498688,76.9685039 L138.248688,76.9685039 L138.248688,83.0708661 Z M138.248688,65.5511811 L124.498688,65.5511811 L124.498688,59.4488189 L138.248688,59.4488189 L138.248688,65.5511811 Z M138.248688,48.0314961 L124.498688,48.0314961 L124.498688,41.9291339 L138.248688,41.9291339 L138.248688,48.0314961 Z M138.248688,30.511811 L124.498688,30.511811 L124.498688,24.4094488 L138.248688,24.4094488 L138.248688,30.511811 Z M154.061187,71.6535433 L161.525473,71.6535433 L161.525473,77.5590551 L154.061187,77.5590551 L154.061187,71.6535433 Z M154.159402,88.1889764 L161.623688,88.1889764 L161.623688,94.0944882 L154.159402,94.0944882 L154.159402,88.1889764 Z M161.721902,110.629921 L154.257616,110.629921 L154.257616,104.724409 L161.721902,104.724409 L161.721902,110.629921 Z M181.266545,57.2834646 L163.98083,57.2834646 L163.98083,53.7401575 L181.266545,53.7401575 L181.266545,57.2834646 Z M181.266545,52.1653543 L163.98083,52.1653543 L163.98083,48.6220472 L181.266545,48.6220472 L181.266545,52.1653543 Z M181.266545,47.0472441 L163.98083,47.0472441 L163.98083,43.503937 L181.266545,43.503937 L181.266545,47.0472441 Z M183.721902,71.6535433 L191.186188,71.6535433 L191.186188,77.5590551 L183.721902,77.5590551 L183.721902,71.6535433 Z M183.820116,88.1889764 L191.284402,88.1889764 L191.284402,94.0944882 L183.820116,94.0944882 L183.820116,88.1889764 Z M191.382616,110.629921 L183.91833,110.629921 L183.91833,104.724409 L191.382616,104.724409 L191.382616,110.629921 Z" id="Shape" fill="#FFFBFD"></path>
                    <path d="M23.7678768,123.171167 C23.7129318,123.949884 23.6269216,124.820896 23.493963,125.736128 L25.8954418,123.067079 L25.9086654,123.111764 C25.7617991,122.469443 25.5253306,121.851071 25.2062368,121.274894 L25.2215955,121.317114 L23.7678768,123.171167 Z" id="Path" fill="#FF826B"></path>
                    <path d="M23.7772641,123.034547 L25.1854605,121.238612 C24.8858681,120.690724 24.4525171,120.227928 23.925933,119.893504 C23.9001321,119.8781 23.8741879,119.863624 23.8482436,119.849254 C23.8559357,120.061354 23.892827,121.306555 23.7772641,123.034547 Z" id="Path" fill="#FF826B"></path>
                    <path d="M22.5067975,130.075362 C22.4449212,130.264188 22.381023,130.449604 22.3151029,130.63161 L25.8517404,128.553508 L25.8566923,128.605663 C25.9305809,128.282514 25.9921207,127.959392 26.0413116,127.636299 L22.5099973,130.099094 L22.5067975,130.075362 Z" id="Path" fill="#FF826B"></path>
                    <path d="M22.9986586,128.331161 L26.1838854,125.698636 L26.1929368,125.747898 C26.2041733,124.877447 26.112498,124.008726 25.9198264,123.159886 L23.4725621,125.879768 C23.3440389,126.737014 23.1860711,127.554146 22.9986586,128.331161 Z" id="Path" fill="#FF826B"></path>
                    <path d="M23.4179413,125.828 L19.606622,121.566315 L19.6270152,121.518136 C19.2687449,122.023656 18.9623593,122.564159 18.7125262,123.131411 L23.0618182,127.771982 C23.2108407,127.094719 23.3271834,126.438939 23.4179413,125.828 Z" id="Path" fill="#FF826B"></path>
                    <path d="M18.6713804,123.227348 L18.6715355,123.227518 C18.6784105,123.21173 18.6843761,123.194488 18.6913061,123.178785 L18.6713804,123.227348 Z" id="Path" fill="#FF826B"></path>
                    <path d="M18.4593259,123.7501 L18.4397125,123.798821 C18.4459452,123.782089 18.4531521,123.76685 18.4594339,123.750209 L18.4593259,123.7501 Z" id="Path" fill="#FF826B"></path>
                    <path d="M23.0367245,127.885039 L18.6715355,123.227516 C18.5977557,123.396911 18.5270525,123.571141 18.4594261,123.750207 L22.9209082,128.377705 C22.9614917,128.212539 23.0000971,128.048318 23.0367245,127.885039 Z" id="Path" fill="#FF826B"></path>
                    <path d="M26.0506636,127.574098 C26.137571,126.988283 26.1849354,126.397258 26.1924339,125.805051 L22.9641304,128.473177 C22.83622,128.990594 22.6954809,129.488023 22.541913,129.965463 L26.0437945,127.523179 L26.0506636,127.574098 Z" id="Path" fill="#FF826B"></path>
                    <path d="M17.8805471,127.906091 L21.4140045,132.525959 C21.7043208,131.963626 21.9607236,131.38435 22.181832,130.791252 L17.8703171,126.253047 C17.8275875,126.820395 17.8228456,127.389975 17.8561232,127.957959 L17.8805471,127.906091 Z" id="Path" fill="#FF826B"></path>
                    <path d="M23.7836775,119.845364 L23.8153418,119.831175 C23.0415075,119.416844 22.2037612,119.461337 21.4008182,119.881398 L23.7150179,123.031411 C23.8395712,121.161811 23.7845182,119.863976 23.7836775,119.845364 Z" id="Path" fill="#FF826B"></path>
                    <path d="M22.2004514,130.940679 C21.9976328,131.474325 21.7659623,131.996504 21.5064693,132.504898 L25.0607323,130.66202 L25.0643171,130.713276 C25.3320947,130.259919 25.5414835,129.774392 25.6874829,129.268291 C25.7439521,129.069184 25.7954773,128.869522 25.8420584,128.669307 L22.2632555,130.772159 C22.2423771,130.828449 22.2217188,130.885063 22.2004514,130.940679 Z" id="Path" fill="#FF826B"></path>
                    <path d="M23.7054616,123.170687 L21.338183,119.94838 L21.3603795,119.902482 C20.6828322,120.295335 20.1005738,120.833774 19.6554777,121.479077 L23.4357455,125.706045 C23.5665807,124.80112 23.6512945,123.940343 23.7054616,123.170687 Z" id="Path" fill="#FF826B"></path>
                    <path d="M22.2205402,130.687179 C22.4840979,129.966744 22.7087447,129.232606 22.8935045,128.487955 L18.42093,123.848959 C18.3144552,124.138722 18.2166646,124.440117 18.127558,124.753144 C18.0039161,125.201979 17.9213852,125.66118 17.8809911,126.125041 L22.2171518,130.689161 L22.2205402,130.687179 Z" id="Path" fill="#FF826B"></path>
                    <path d="M26.8145095,135.692026 C26.2765977,136.256661 25.6559954,136.872537 24.9710862,137.492443 L28.5193995,136.971758 L28.5011316,137.014638 C28.7968252,136.426055 29.0082617,135.798643 29.1292021,135.150915 L29.1141557,135.193256 L26.8145095,135.692026 Z" id="Path" fill="#FF826B"></path>
                    <path d="M29.0223175,133.268618 C29.0122466,133.240272 29.0014804,133.212533 28.9906414,133.184874 C28.8615879,133.353165 28.0974807,134.335783 26.908695,135.592795 L29.1363089,135.109693 C29.2542612,134.496214 29.2150416,133.862778 29.0223175,133.268618 L29.0223175,133.268618 Z" id="Path" fill="#FF826B"></path>
                    <path d="M21.4490866,140.203496 C21.2812515,140.309373 21.1140253,140.411335 20.947408,140.509382 L24.9939034,141.169421 L24.9645177,141.212758 C25.2270903,141.0111 25.4801394,140.80157 25.723665,140.584167 L21.4364288,140.223833 L21.4490866,140.203496 Z" id="Path" fill="#FF826B"></path>
                    <path d="M22.9380073,139.174526 L27.0667002,139.182937 L27.0423136,139.226657 C27.6049654,138.563425 28.0872589,137.835747 28.4791179,137.058829 L24.8631841,137.589402 C24.2186064,138.167493 23.5768808,138.695868 22.9380073,139.174526 Z" id="Path" fill="#FF826B"></path>
                    <path d="M21.5460791,140.141309 L25.7975791,140.498628 L25.770472,140.542242 C26.2102439,140.146596 26.622877,139.721665 27.0055598,139.270344 L22.821042,139.261837 C22.3932074,139.578583 21.9682198,139.871741 21.5460791,140.141309 Z" id="Path" fill="#FF826B"></path>
                    <path d="M16.338742,142.249785 C16.3688466,142.219242 16.400727,142.186106 16.4321496,142.153679 C17.2990755,142.015305 18.1462079,141.772761 18.9552334,141.431289 L19.0707825,138.360632 C19.1050593,138.282488 19.138369,138.203791 19.1707116,138.124541 L19.0477473,141.392421 C19.6292436,141.144893 20.1953999,140.862631 20.7431655,140.547156 L20.3483441,134.838831 C20.3787905,134.822959 20.4094334,134.806896 20.4410191,134.790159 L20.8353396,140.491106 L20.8392113,140.491732 C21.5007172,140.105326 22.1409768,139.683496 22.7572086,139.228077 L22.3272814,133.610679 C22.3577279,133.588331 22.388078,133.566488 22.4185893,133.543697 L22.8484929,139.160673 C22.984868,139.059399 23.1191171,138.957593 23.2512402,138.855256 L22.8965805,133.168811 C22.9269484,133.143856 22.9572927,133.118841 22.9876016,133.093467 L23.3425264,138.784215 C23.8883386,138.357837 24.3953207,137.927152 24.8540443,137.514612 L24.6309525,131.796171 L24.6773254,131.772104 C24.5189038,131.81352 24.3578539,131.862673 24.1954625,131.916161 C24.5008538,131.566642 24.7755525,131.191343 25.0164966,130.794449 L21.428222,132.654965 C21.1798479,133.127876 20.900479,133.583774 20.5919509,134.019665 C20.5278209,134.080327 20.463683,134.140941 20.4004959,134.204248 L20.4052102,134.272516 C20.3759207,134.311167 20.3467884,134.350108 20.317163,134.388067 L20.3107968,134.296022 C20.2655023,134.342602 20.2213354,134.39185 20.1765555,134.439681 C20.6309659,133.871123 21.0297708,133.260095 21.3674646,132.615031 L17.8598632,128.028961 C17.8837705,128.438892 17.9237418,128.85153 17.9751864,129.260801 C17.6495321,128.730179 17.2540353,128.245937 16.799365,127.82114 L16.8269986,127.856535 L16.0163438,130.070098 C16.2042709,130.827693 16.3911295,131.682697 16.5469661,132.594299 L17.9875595,129.357177 C17.9941398,129.40764 18.001113,129.457945 18.0080352,129.508276 L16.5709205,132.737539 C16.7130995,133.592621 16.8148986,134.418671 16.8763179,135.215689 L18.6011827,132.500549 C18.6110375,132.539561 18.6208805,132.578598 18.6307354,132.617045 L16.8872884,135.361441 C16.9252201,135.893144 16.9447942,136.409811 16.9460107,136.911441 L19.0544632,134.123661 C19.0657225,134.160366 19.0767029,134.195941 19.0876263,134.231157 L16.9568614,137.048425 L16.946492,137.026835 C16.9458935,137.225573 16.9423165,137.421702 16.9357611,137.61522 L19.314077,134.931717 C19.3267139,134.969094 19.3384472,135.003529 19.349277,135.03502 L16.9297916,137.764941 C16.9273088,137.824931 16.9251146,137.885185 16.9220582,137.944665 C16.8937529,138.515005 16.8344832,139.083377 16.7445123,139.647258 L16.9740313,139.414327 C16.9305551,139.504714 16.8882136,139.593822 16.8470068,139.68165 L16.7163975,139.814209 C16.701412,139.90038 16.6843384,139.984555 16.6678895,140.069327 C16.6197055,140.175382 16.5732679,140.278869 16.5285764,140.379789 C16.5717141,140.186183 16.6119486,139.991531 16.646298,139.795065 L11.8959736,136.520079 C13.1353043,139.697608 15.4690702,142.720134 15.6184777,142.911986 C15.7397586,142.684955 15.8499609,142.451339 15.9511373,142.212856 C15.9805348,142.210069 16.0099304,142.207293 16.0393043,142.204207 C16.0271709,142.233522 16.0145543,142.262323 16.0021793,142.291386 C15.9873745,142.292947 15.9723634,142.295323 15.95759,142.296805 C15.9691007,142.300037 15.9829116,142.303797 15.995428,142.30727 C15.9241421,142.473819 15.8502889,142.637652 15.7710771,142.79578 C15.8747463,142.702376 16.0326788,142.554762 16.2214879,142.367392 C17.3385202,142.65314 20.3477588,143.264242 22.9243968,142.361504 L18.9766186,141.500884 C18.1317941,141.859393 17.2456701,142.110966 16.338742,142.249785 Z M19.1128045,137.243736 L19.2074713,137.147673 L19.2020636,137.291587 L19.1073988,137.387669 L19.1128045,137.243736 Z" id="Shape" fill="#FF826B"></path>
                    <path d="M28.9433925,133.140624 L28.976807,133.149935 C28.6445068,132.336197 27.9709729,131.834988 27.0851998,131.645287 L26.8627445,135.550602 C28.1485914,134.19026 28.9321961,133.155498 28.9433925,133.140624 Z" id="Path" fill="#FF826B"></path>
                    <path d="M20.6624137,140.674152 C20.1665618,140.955512 19.6557915,141.209608 19.1323707,141.435313 L23.0427195,142.287764 L23.0128623,142.329528 C23.5076427,142.151529 23.9779251,141.911423 24.4124748,141.614947 C24.5826959,141.497683 24.7494559,141.376839 24.9127548,141.252413 L20.8180402,140.584486 C20.7661418,140.6145 20.7141825,140.644896 20.6624137,140.674152 Z" id="Path" fill="#FF826B"></path>
                    <path d="M24.9453973,137.432087 C25.6220938,136.81873 26.2351788,136.209917 26.7667498,135.651772 L26.9943438,131.656844 L27.0406577,131.635687 C26.2687891,131.505182 25.4776537,131.547709 24.7241441,131.760209 L24.9453973,137.432087 Z" id="Path" fill="#FF826B"></path>
                    <path d="M16.7684432,127.793067 C16.3145267,127.364811 15.7596498,127.058911 15.1556998,126.903972 C15.1264104,126.897317 15.0972761,126.891585 15.0681673,126.885963 C15.1409048,127.085287 15.5600539,128.258089 15.9831316,129.937264 L16.7684432,127.793067 Z" id="Path" fill="#FF826B"></path>
                    <path d="M16.5029936,132.70522 L11.5638639,129.832831 L11.5683955,129.780699 C11.3835896,130.372438 11.2589177,130.981377 11.1962793,131.598236 L16.7638979,134.664317 C16.696735,133.974067 16.6051148,133.314358 16.5029936,132.70522 Z" id="Path" fill="#FF826B"></path>
                    <path d="M11.1867368,131.702224 L11.1869332,131.702333 C11.1885989,131.685187 11.1889584,131.666949 11.1907086,131.649876 L11.1867368,131.702224 Z" id="Path" fill="#FF826B"></path>
                    <path d="M11.1462902,132.265057 L11.14267,132.317478 C11.1434361,132.299636 11.1455948,132.282911 11.1464336,132.26513 L11.1462902,132.265057 Z" id="Path" fill="#FF826B"></path>
                    <path d="M16.7749038,134.779622 L11.1869293,131.702333 C11.1690045,131.886291 11.1555086,132.073889 11.1464414,132.265128 L16.8167214,135.284026 C16.8043739,135.114377 16.7904347,134.946243 16.7749038,134.779622 Z" id="Path" fill="#FF826B"></path>
                    <path d="M16.8582523,137.808323 L11.3581325,134.827898 C11.4924945,135.380696 11.6636619,135.923852 11.870485,136.453717 L11.8777136,136.396813 L16.6630711,139.695919 C16.7657269,139.071196 16.8309043,138.440866 16.8582523,137.808323 Z" id="Path" fill="#FF826B"></path>
                    <path d="M15.0055734,126.902254 L15.0313055,126.87897 C14.1675777,126.724628 13.3845741,127.026439 12.7505086,127.67465 L15.9229675,129.953555 C15.4647723,128.136919 15.0121184,126.919701 15.0055734,126.902254 Z" id="Path" fill="#FF826B"></path>
                    <path d="M15.9568259,130.088976 L12.7116118,127.757756 L12.7185771,127.707222 C12.1953692,128.290708 11.8076928,128.983141 11.5834302,129.734719 L16.4823352,132.583734 C16.327628,131.682581 16.1426984,130.837713 15.9568259,130.088976 Z" id="Path" fill="#FF826B"></path>
                    <path d="M16.8629646,137.697354 C16.8914111,136.930561 16.8786247,136.162789 16.8246611,135.397374 L11.1402795,132.37098 C11.1283864,132.67952 11.1283425,132.996449 11.1401479,133.321768 C11.1610032,133.786921 11.2241474,134.249198 11.3287959,134.702856 L16.8603502,137.700297 L16.8629646,137.697354 Z" id="Path" fill="#FF826B"></path>
                    <path d="M191.910734,122.580616 C191.855801,123.359333 191.769767,124.230344 191.636832,125.145577 L194.038287,122.476528 L194.051522,122.521213 C193.904655,121.878894 193.668192,121.260523 193.349108,120.684343 L193.364455,120.726563 L191.910734,122.580616 Z" id="Path" fill="#FF826B"></path>
                    <path d="M191.920109,122.443996 L193.32832,120.648061 C193.028729,120.100163 192.59537,119.637363 192.068773,119.302945 C192.042974,119.287541 192.017029,119.273065 191.991085,119.258695 C191.998805,119.470803 192.035684,120.716004 191.920109,122.443996 Z" id="Path" fill="#FF826B"></path>
                    <path d="M190.649655,129.484811 C190.587777,129.673636 190.523879,129.859052 190.45796,130.041059 L193.994598,127.962957 L193.999538,128.015112 C194.073438,127.691963 194.134982,127.368841 194.184169,127.045748 L190.652854,129.508543 L190.649655,129.484811 Z" id="Path" fill="#FF826B"></path>
                    <path d="M191.141516,127.74061 L194.326743,125.108085 L194.335806,125.157346 C194.347036,124.286896 194.255361,123.418176 194.062695,122.569335 L191.615419,125.289217 C191.486896,126.146463 191.328928,126.963594 191.141516,127.74061 Z" id="Path" fill="#FF826B"></path>
                    <path d="M191.560798,125.237449 L187.749479,120.975764 L187.769872,120.927585 C187.411602,121.433105 187.105216,121.973608 186.855383,122.54086 L191.204675,127.181431 C191.353698,126.504167 191.470041,125.848388 191.560798,125.237449 Z" id="Path" fill="#FF826B"></path>
                    <path d="M186.814237,122.636797 L186.814393,122.636967 C186.821268,122.621179 186.827233,122.603937 186.834163,122.588234 L186.814237,122.636797 Z" id="Path" fill="#FF826B"></path>
                    <path d="M191.179582,127.294488 L186.814393,122.636965 C186.740611,122.80636 186.669908,122.98059 186.602283,123.159656 L191.063765,127.787154 C191.104349,127.621988 191.142954,127.457766 191.179582,127.294488 Z" id="Path" fill="#FF826B"></path>
                    <path d="M186.602183,123.159549 L186.58257,123.20827 C186.588802,123.191537 186.596009,123.176299 186.602291,123.159657 L186.602183,123.159549 Z" id="Path" fill="#FF826B"></path>
                    <path d="M194.193521,126.983547 C194.280436,126.397733 194.327797,125.806707 194.335279,125.2145 L191.106987,127.882626 C190.979077,128.400043 190.838338,128.897472 190.68477,129.374911 L194.186663,126.932628 L194.193521,126.983547 Z" id="Path" fill="#FF826B"></path>
                    <path d="M186.023404,127.315539 L189.556864,131.935407 C189.84718,131.373074 190.103583,130.793799 190.324691,130.200701 L186.013176,125.662496 C185.970447,126.229844 185.965705,126.799424 185.998982,127.367407 L186.023404,127.315539 Z" id="Path" fill="#FF826B"></path>
                    <path d="M191.926535,119.254813 L191.958187,119.240624 C191.184365,118.826293 190.346618,118.870785 189.543675,119.290846 L191.857861,122.44086 C191.982428,120.57126 191.927375,119.273425 191.926535,119.254813 Z" id="Path" fill="#FF826B"></path>
                    <path d="M190.343309,130.350128 C190.14049,130.883774 189.908819,131.405953 189.649326,131.914346 L193.203589,130.071469 L193.207161,130.122724 C193.474942,129.669366 193.684339,129.18384 193.830352,128.67774 C193.886792,128.478633 193.938314,128.278971 193.984916,128.078756 L190.406113,130.181608 C190.385234,130.237898 190.364576,130.294512 190.343309,130.350128 Z" id="Path" fill="#FF826B"></path>
                    <path d="M191.848319,122.580136 L189.48104,119.357829 L189.503237,119.311931 C188.825689,119.704784 188.243431,120.243223 187.798335,120.888526 L191.578603,125.115494 C191.709438,124.210569 191.794152,123.349791 191.848319,122.580136 Z" id="Path" fill="#FF826B"></path>
                    <path d="M190.363397,130.096628 C190.626955,129.376193 190.851602,128.642055 191.036362,127.897404 L186.563787,123.258407 C186.457312,123.548171 186.359522,123.849566 186.270415,124.162593 C186.146773,124.611427 186.064242,125.070629 186.023848,125.53449 L190.360009,130.09861 L190.363397,130.096628 Z" id="Path" fill="#FF826B"></path>
                    <path d="M194.957367,135.101474 C194.419443,135.66611 193.798831,136.281986 193.113932,136.901892 L196.662257,136.381207 L196.643989,136.424087 C196.939686,135.835504 197.151126,135.208092 197.272071,134.560364 L197.257013,134.602705 L194.957367,135.101474 Z" id="Path" fill="#FF826B"></path>
                    <path d="M197.165175,132.678067 C197.155104,132.64972 197.144338,132.621982 197.133499,132.594323 C197.004425,132.762614 196.240338,133.745232 195.051552,135.002244 L197.279166,134.519142 C197.397118,133.905663 197.357899,133.272227 197.165175,132.678067 L197.165175,132.678067 Z" id="Path" fill="#FF826B"></path>
                    <path d="M189.591944,139.612945 C189.424109,139.718822 189.256886,139.820783 189.090275,139.918831 L193.136759,140.57887 L193.107385,140.622207 C193.369968,140.420549 193.623017,140.211019 193.866532,139.993616 L189.579296,139.633281 L189.591944,139.612945 Z" id="Path" fill="#FF826B"></path>
                    <path d="M191.080864,138.583974 L195.209569,138.592386 L195.185159,138.636106 C195.747814,137.972874 196.230112,137.245196 196.621975,136.468278 L193.006029,136.99885 C192.361449,137.576942 191.719727,138.105317 191.080864,138.583974 Z" id="Path" fill="#FF826B"></path>
                    <path d="M189.688936,139.550758 L193.940436,139.908077 L193.913317,139.951691 C194.353094,139.556042 194.765735,139.131112 195.148429,138.679793 L190.963891,138.671285 C190.536062,138.988032 190.111077,139.28119 189.688936,139.550758 Z" id="Path" fill="#FF826B"></path>
                    <path d="M184.481599,141.659234 C184.511704,141.628691 184.543584,141.595555 184.575007,141.563128 C185.441933,141.424754 186.289065,141.18221 187.098091,140.840738 L187.21364,137.770081 C187.247916,137.691936 187.281226,137.61324 187.313569,137.53399 L187.190604,140.80187 C187.772101,140.554342 188.338257,140.27208 188.886023,139.956604 L188.491201,134.24828 C188.521648,134.232407 188.552291,134.216344 188.583876,134.199608 L188.978197,139.900555 L188.982068,139.901181 C189.643574,139.514775 190.283834,139.092945 190.900066,138.637526 L190.470139,133.020128 C190.500585,132.99778 190.530935,132.975937 190.561446,132.953146 L190.99135,138.570122 C191.127724,138.468848 191.261973,138.367042 191.394097,138.264705 L191.039438,132.57826 C191.069806,132.553305 191.10015,132.528289 191.130459,132.502915 L191.48537,138.193663 C192.031207,137.767285 192.538178,137.3366 192.996901,136.924061 L192.77381,131.20562 L192.820182,131.181553 C192.661761,131.222969 192.500699,131.272122 192.33832,131.32561 C192.643711,130.976091 192.91841,130.600792 193.159354,130.203898 L189.571079,132.064413 C189.322705,132.537324 189.043336,132.993223 188.734808,133.429114 C188.670678,133.489776 188.60654,133.55039 188.543353,133.613697 L188.548067,133.681965 C188.518778,133.720616 188.489646,133.759557 188.46002,133.797516 L188.453654,133.70547 C188.408359,133.752051 188.364193,133.801299 188.319413,133.84913 C188.773823,133.280572 189.172628,132.669544 189.510322,132.02448 L186.00272,127.438409 C186.026628,127.848341 186.066599,128.260978 186.118044,128.67025 C185.792389,128.139628 185.396892,127.655386 184.942222,127.230589 L184.969856,127.265984 L184.159201,129.479547 C184.347128,130.237142 184.533987,131.092146 184.689823,132.003748 L186.130417,128.766626 C186.136997,128.817089 186.14397,128.867394 186.150892,128.917724 L184.713778,132.146988 C184.855957,133.00207 184.957756,133.828119 185.019175,134.625138 L186.74404,131.909998 C186.753895,131.94901 186.763738,131.988047 186.773593,132.026494 L185.030146,134.77089 C185.068077,135.302593 185.087655,135.81926 185.088878,136.32089 L187.19733,133.53311 C187.208589,133.569815 187.21957,133.60539 187.230493,133.640606 L185.099738,136.45787 L185.089369,136.43628 C185.08877,136.635018 185.085193,136.831147 185.078638,137.024665 L187.456954,134.341161 C187.469591,134.378539 187.481324,134.412974 187.492154,134.444465 L185.072668,137.174386 C185.070186,137.234376 185.067991,137.29463 185.064935,137.35411 C185.03663,137.92445 184.97736,138.492822 184.887389,139.056703 L185.116908,138.823772 C185.073432,138.914159 185.03109,139.003266 184.989884,139.091094 L184.859274,139.223654 C184.844289,139.309825 184.827215,139.394 184.810766,139.478772 C184.762576,139.584827 184.716138,139.688314 184.671453,139.789234 C184.714591,139.595628 184.754825,139.400976 184.789175,139.20451 L180.03885,135.92953 C181.278181,139.107059 183.611947,142.129585 183.761354,142.321437 C183.882635,142.094406 183.992838,141.860789 184.094014,141.622307 C184.123412,141.61952 184.152807,141.616744 184.182181,141.613657 C184.170048,141.642972 184.157431,141.671774 184.145056,141.700837 C184.130251,141.702398 184.11524,141.704774 184.100467,141.706256 C184.111978,141.709488 184.125788,141.713248 184.138305,141.71672 C184.067019,141.88327 183.993166,142.047102 183.913954,142.20523 C184.017623,142.111827 184.175556,141.964213 184.364365,141.776843 C185.481397,142.062591 188.490636,142.673693 191.067274,141.770955 L187.119495,140.910335 C186.274665,141.268845 185.388534,141.520417 184.481599,141.659234 Z M187.255662,136.653185 L187.350328,136.557122 L187.344921,136.701035 L187.250256,136.797118 L187.255662,136.653185 Z" id="Shape" fill="#FF826B"></path>
                    <path d="M197.086238,132.550073 L197.119664,132.559384 C196.787376,131.745646 196.11383,131.244437 195.228079,131.054736 L195.005611,134.960051 C196.29146,133.599709 197.075065,132.564947 197.086238,132.550073 Z" id="Path" fill="#FF826B"></path>
                    <path d="M188.805271,140.0836 C188.309419,140.364961 187.798649,140.619057 187.275228,140.844762 L191.185577,141.697213 L191.155719,141.738976 C191.650504,141.560977 192.120791,141.320872 192.555346,141.024396 C192.725541,140.907132 192.8923,140.786287 193.055624,140.661862 L188.960895,139.993935 C188.908999,140.023949 188.85704,140.054344 188.805271,140.0836 Z" id="Path" fill="#FF826B"></path>
                    <path d="M193.088274,136.841535 C193.764971,136.228179 194.378056,135.619366 194.909603,135.06122 L195.137203,131.066301 L195.183505,131.045144 C194.411641,130.914638 193.62051,130.957165 192.867005,131.169665 L193.088274,136.841535 Z" id="Path" fill="#FF826B"></path>
                    <path d="M184.9113,127.202516 C184.457384,126.774259 183.902507,126.468359 183.298557,126.313421 C183.269268,126.306766 183.240133,126.301033 183.211024,126.295411 C183.283762,126.494736 183.702911,127.667537 184.125989,129.346713 L184.9113,127.202516 Z" id="Path" fill="#FF826B"></path>
                    <path d="M184.645851,132.114669 L179.706721,129.24228 L179.711253,129.190148 C179.526447,129.781887 179.401775,130.390826 179.339136,131.007685 L184.906755,134.073766 C184.839592,133.383516 184.747972,132.723807 184.645851,132.114669 Z" id="Path" fill="#FF826B"></path>
                    <path d="M179.289147,131.674506 L179.285527,131.726927 C179.286293,131.709085 179.288452,131.69236 179.289291,131.674579 L179.289147,131.674506 Z" id="Path" fill="#FF826B"></path>
                    <path d="M179.329594,131.111673 L179.32979,131.111781 C179.331456,131.094636 179.331816,131.076398 179.333566,131.059325 L179.329594,131.111673 Z" id="Path" fill="#FF826B"></path>
                    <path d="M184.917761,134.189071 L179.329786,131.111781 C179.311863,131.29574 179.298367,131.483338 179.289299,131.674577 L184.959579,134.693474 C184.947231,134.523826 184.933292,134.355692 184.917761,134.189071 Z" id="Path" fill="#FF826B"></path>
                    <path d="M185.001109,137.217772 L179.50099,134.237346 C179.635352,134.790145 179.806519,135.3333 180.013342,135.863165 L180.020571,135.806262 L184.805928,139.105368 C184.908584,138.480645 184.973761,137.850315 185.001109,137.217772 L185.001109,137.217772 Z" id="Path" fill="#FF826B"></path>
                    <path d="M183.148431,126.311703 L183.174163,126.288419 C182.310435,126.134077 181.527431,126.435888 180.893366,127.084098 L184.065825,129.363004 C183.607629,127.546368 183.154976,126.32915 183.148431,126.311703 Z" id="Path" fill="#FF826B"></path>
                    <path d="M184.099683,129.498425 L180.854463,127.167207 L180.861428,127.116673 C180.33822,127.700159 179.950544,128.392591 179.726281,129.144169 L184.625186,131.993185 C184.470485,131.09203 184.285556,130.247161 184.099683,129.498425 Z" id="Path" fill="#FF826B"></path>
                    <path d="M185.005822,137.106803 C185.034268,136.34001 185.021482,135.572238 184.967518,134.806823 L179.283139,131.780429 C179.271244,132.088969 179.2712,132.405898 179.283007,132.731217 C179.303862,133.196369 179.367007,133.658647 179.471655,134.112305 L185.003209,137.109746 L185.005822,137.106803 Z" id="Path" fill="#FF826B"></path>
                    <path d="M12.1415446,143.110236 L197.962973,143.110236 L197.962973,145.774691 C197.962973,148.108265 196.075292,150 193.746718,150 L16.3577995,150 C14.0292262,150 12.1415446,148.108265 12.1415446,145.774691 L12.1415446,143.110236 Z" id="Path" fill="#2F2E41"></path>
                    <rect id="Rectangle" fill="#3F3D56" x="12.1415446" y="140.944882" width="185.821429" height="3.74015748"></rect>
                    <path d="M156.151806,12.9870079 L158.285948,14.3432717 L156.990207,11.9823209 C157.357173,11.688862 157.811312,11.5264221 158.28076,11.5207067 C158.292225,11.5207067 158.303672,11.5208071 158.315102,11.5210079 C158.463381,11.5233949 158.611575,11.5124123 158.757891,11.4881929 L159.481115,11.9478071 L159.171076,11.3828858 C159.683508,11.203801 160.126353,10.866996 160.436344,10.4205886 L161.730843,11.2432559 L160.91307,9.75321063 C161.670019,8.84254134 162.690473,8.28414764 163.81332,8.28414764 C165.159445,8.28414764 166.358586,9.08645079 167.132704,10.3364921 C167.59854,11.0978668 168.436036,11.5504032 169.326773,11.5220453 C169.350828,11.5211555 169.374959,11.5207093 169.399165,11.5207067 C170.885251,11.5207067 172.089964,13.2092736 172.089964,15.2922323 C172.089964,17.3751909 170.885251,19.0637599 169.399165,19.0637599 C169.072362,19.0625368 168.750737,18.9818425 168.46191,18.8286063 C167.438103,18.329958 166.247523,18.3066312 165.20505,18.7647953 C164.324928,19.1611643 163.318083,19.1634999 162.43614,18.7712185 C161.402005,18.3218983 160.224143,18.3447165 159.208109,18.8337539 C158.921827,18.9837156 158.603799,19.0625954 158.28077,19.0637599 C156.794684,19.0637599 155.589973,17.375189 155.589973,15.2922343 C155.58131,14.4887589 155.774519,13.6960145 156.151806,12.9870079 L156.151806,12.9870079 Z" id="Path" fill="#F2F2F2"></path>
                    <path d="M47.5743616,24.063748 L48.9319384,24.926498 L48.1076868,23.4246437 C48.3411217,23.2379671 48.6300101,23.1346345 48.9286364,23.130998 C48.9359318,23.130998 48.943214,23.1310636 48.9504832,23.1311949 C49.0448104,23.1327175 49.1390832,23.125734 49.2321618,23.1103287 L49.6922211,23.4026988 L49.4950068,23.0433406 C49.8209766,22.9294212 50.1026801,22.7151715 50.2998709,22.4312008 L51.1233309,22.9545197 L50.6030938,22.0066535 C51.0467441,21.4332102 51.7241742,21.0900717 52.4480079,21.0721496 C53.3043127,21.0721496 54.0671116,21.5825118 54.5595443,22.3776929 C54.8558727,22.8620202 55.3886227,23.1498883 55.95524,23.1318484 C55.9705444,23.1312841 55.9858953,23.1310007 56.0012927,23.130998 C56.9466248,23.130998 57.7129713,24.2051339 57.7129713,25.5301516 C57.7129713,26.8551693 56.9466268,27.9293032 56.0012927,27.9293032 C55.7934053,27.9285259 55.5888124,27.8771943 55.4050829,27.7797165 C54.7538152,27.4625164 53.9964606,27.4476781 53.3333193,27.739126 C52.7734538,27.9912637 52.1329785,27.9927497 51.5719541,27.7432126 C50.914117,27.4573901 50.1648522,27.471905 49.5185291,27.7829921 C49.3364166,27.8783865 49.1341093,27.9285634 48.9286207,27.9293032 C47.9832886,27.9293032 47.2169421,26.8551654 47.2169421,25.5301516 C47.2114399,25.0190417 47.3343529,24.5147601 47.5743616,24.063748 Z" id="Path" fill="#F2F2F2"></path>
                    <path d="M11.0386473,28.6886555 L12.3962241,29.5514055 L11.5719725,28.0495512 C11.8054048,27.8628766 12.0942894,27.7595442 12.3929123,27.7559055 C12.4002077,27.7559055 12.4074899,27.7559711 12.4147591,27.7561024 C12.5090863,27.757625 12.6033591,27.7506414 12.6964377,27.7352362 L13.156497,28.0276063 L12.9592827,27.668248 C13.2852521,27.554328 13.5669554,27.3400784 13.7641468,27.0561083 L14.5876068,27.5794272 L14.0673795,26.631561 C14.5110298,26.0581177 15.1884599,25.7149792 15.9122936,25.6970571 C16.7685984,25.6970571 17.5313973,26.2074193 18.02383,27.0026004 C18.3201584,27.4869277 18.8529084,27.7747958 19.4195257,27.7567559 C19.4348288,27.7561916 19.4501797,27.7559081 19.4655784,27.7559055 C20.4109105,27.7559055 21.177257,28.8300413 21.177257,30.1550591 C21.177257,31.4800768 20.4109125,32.5542107 19.4655784,32.5542107 C19.257691,32.5534333 19.0530981,32.5021018 18.8693686,32.404624 C18.218101,32.0874239 17.4607464,32.0725856 16.797605,32.3640335 C16.2377395,32.6161712 15.5972643,32.6176572 15.0362398,32.3681201 C14.378403,32.082296 13.6291376,32.096811 12.9828148,32.4078996 C12.8007023,32.503294 12.598395,32.5534709 12.3929064,32.5542107 C11.4475743,32.5542107 10.6812279,31.4800728 10.6812279,30.1550591 C10.6757256,29.6439492 10.7986386,29.1396676 11.0386473,28.6886555 L11.0386473,28.6886555 Z" id="Path" fill="#F2F2F2"></path>
                    <path d="M60.0521507,117.492874 L59.8150398,117.730494 C59.8150398,117.730494 59.8940768,120.344319 59.9731138,120.898766 C60.0521507,121.453213 60.3682986,122.403687 60.1311877,123.116557 C59.8940768,123.829427 59.8150398,124.383866 59.8940768,124.463073 C59.9731138,124.54228 59.8150398,124.859106 59.8150398,124.859106 L60.4473434,124.463073 L61.4748259,122.086868 L61.0006021,119.55225 L60.0521507,117.492874 Z" id="Path" fill="#FF826B"></path>
                    <path d="M60.0521507,117.492874 L59.8150398,117.730494 C59.8150398,117.730494 59.8940768,120.344319 59.9731138,120.898766 C60.0521507,121.453213 60.3682986,122.403687 60.1311877,123.116557 C59.8940768,123.829427 59.8150398,124.383866 59.8940768,124.463073 C59.9731138,124.54228 59.8150398,124.859106 59.8150398,124.859106 L60.4473434,124.463073 L61.4748259,122.086868 L61.0006021,119.55225 L60.0521507,117.492874 Z" id="Path" fill="#000000" opacity="0.1"></path>
                    <path d="M64.2411138,142.126181 C64.2411138,142.126181 64.2411138,141.254906 64.0830398,141.096492 C63.9249659,140.938079 63.687855,140.383632 63.3717071,140.383632 C63.0555593,140.383632 61.9490398,140.700459 61.9490398,140.779665 C61.9580526,141.026924 61.9036269,141.272366 61.7909659,141.492528 C61.632892,141.730148 60.7634834,142.680628 61.632892,142.839041 C62.2167524,142.935209 62.8147001,142.792535 63.2926702,142.443008 C63.3717071,142.363801 63.687855,142.284594 63.766892,142.363801 C63.8459289,142.443008 64.2411138,142.126181 64.2411138,142.126181 Z" id="Path" fill="#FF826B"></path>
                    <path d="M66.4541527,140.700465 L66.9283745,141.57174 C66.9283745,141.57174 67.0864484,142.363807 67.3235593,142.443014 L67.5606721,142.443014 C67.5606721,142.443014 67.797783,143.314289 68.3510418,143.235083 C68.9043005,143.155876 69.5365982,142.839047 69.5365982,142.680634 C69.5365982,142.52222 69.5365982,142.046972 69.2994873,141.888567 C68.9670308,141.61649 68.6503657,141.32559 68.3510418,141.017291 L67.955857,140.621258 L66.4541527,140.700465 Z" id="Path" fill="#FF826B"></path>
                    <path d="M60.3884364,111.686417 C60.0797293,111.84427 59.8668074,112.142603 59.8174952,112.486384 C59.7734952,113.051892 60.3313386,113.584766 60.1518854,114.122726 C60.0499959,114.428169 59.7326636,114.625967 59.6413184,114.934734 C59.593249,115.180992 59.6293152,115.436297 59.7437048,115.659506 C59.8684925,115.965623 60.0204162,116.259911 60.1976513,116.538837 C60.5308138,117.063081 60.9644475,117.560402 61.0534905,118.175496 C61.1035512,118.393687 61.0461979,118.622704 60.8992607,118.791348 C61.0596447,118.669717 61.2431648,118.582257 61.4385318,118.534346 C62.2463247,118.263788 62.9968026,117.844899 63.6516159,117.299085 C63.8895245,117.131447 64.0686067,116.892875 64.1633732,116.617327 C64.2840079,116.130669 63.9154529,115.643858 63.9507923,115.143661 C63.9733973,114.823701 64.1576552,114.541161 64.2619823,114.237917 C64.445238,113.627965 64.3724196,112.969503 64.0603405,112.414565 C63.8018583,111.877623 63.3348123,111.470519 62.768365,111.288406 C62.3372044,111.187824 61.8874015,111.200846 61.4627534,111.326201 C61.0917101,111.403337 60.7310915,111.524252 60.3884364,111.686417 L60.3884364,111.686417 Z" id="Path" fill="#2F2E41"></path>
                    <path d="M60.8333707,116.07863 C61.1878836,115.418601 61.8729176,115.004407 62.620855,114.99786 C63.8854484,114.99786 63.6483375,114.918654 63.6483375,114.918654 L63.2531507,116.502789 L62.4627811,117.294858 L60.8333707,116.07863 Z" id="Path" fill="#FF826B"></path>
                    <path d="M61.1586702,114.403809 C61.1586702,114.403809 61.8700029,115.591911 61.3957811,116.067152 C60.9215593,116.542392 61.1586702,117.017634 61.2377071,117.096841 C61.3167441,117.176047 63.5297811,117.334461 63.5297811,117.334461 L63.608818,116.225565 L63.8459289,115.275085 C63.8459289,115.275085 62.5813355,115.037465 62.7394114,114.483016 C62.8974873,113.928567 61.1586702,114.403809 61.1586702,114.403809 Z" id="Path" fill="#FBBEBE"></path>
                    <path d="M61.1586702,114.403809 C61.1586702,114.403809 61.8700029,115.591911 61.3957811,116.067152 C60.9215593,116.542392 61.1586702,117.017634 61.2377071,117.096841 C61.3167441,117.176047 63.5297811,117.334461 63.5297811,117.334461 L63.608818,116.225565 L63.8459289,115.275085 C63.8459289,115.275085 62.5813355,115.037465 62.7394114,114.483016 C62.8974873,113.928567 61.1586702,114.403809 61.1586702,114.403809 Z" id="Path" fill="#000000" opacity="0.1"></path>
                    <path d="M66.6912636,125.651181 C66.6066514,125.923062 66.5009463,126.187892 66.3751157,126.44325 C66.2960788,126.522457 66.0589679,125.888803 66.0589679,125.888803 L66.2960788,125.334354 L66.6912636,125.651181 Z" id="Path" fill="#FBBEBE"></path>
                    <polygon id="Path" fill="#FBBEBE" points="65.7823571 122.047244 66.0984107 123.869094 61.3562321 123.869094 61.5933214 122.047244"></polygon>
                    <ellipse id="Oval" fill="#FBBEBE" cx="62.0280768" cy="113.532535" rx="1.50170429" ry="1.50492913"></ellipse>
                    <path d="M62.3442188,116.6216 C62.3442188,116.6216 61.4748121,116.700807 61.4748121,116.542394 C61.4748121,116.38398 61.3957752,115.908732 61.2377013,115.987945 C61.0796273,116.067157 60.0521448,116.146358 60.1311818,116.383978 C60.2102188,116.621598 60.3682927,117.096841 60.2102188,117.096841 C60.0721289,117.125112 59.9516624,117.208926 59.876964,117.328701 C59.8022656,117.448477 59.7798788,117.593722 59.8150339,117.730502 C59.8940709,118.126537 60.7634775,120.502746 60.7634775,120.502746 C60.7634775,120.502746 60.8425145,121.294815 61.0796254,121.532435 C61.2780487,121.788822 61.2780487,122.147321 61.0796254,122.403709 C60.9215514,122.562122 61.4748121,122.720537 61.7119289,123.03737 C61.9490457,123.354203 63.766892,123.116577 63.8459289,123.03737 C63.9249659,122.958163 65.821857,122.958163 65.9799289,122.79975 C66.1380009,122.641337 65.900892,122.166089 65.900892,122.166089 C65.900892,122.166089 65.821855,121.453228 65.900892,121.215608 C65.9799289,120.977988 65.5847421,117.096854 65.3476313,116.859234 C65.1105204,116.621614 66.0589659,115.908752 66.0589659,115.908752 C66.0589659,115.908752 65.900892,115.275091 64.8734095,115.195892 C64.8734095,115.195892 64.5572616,114.72065 64.2411059,114.72065 C63.9249502,114.72065 63.2385148,115.089154 63.2385148,115.089154 C63.2385148,115.089154 63.0555514,116.146378 62.8184405,116.225585 C62.630999,116.317623 62.4683623,116.453438 62.3442188,116.6216 L62.3442188,116.6216 Z" id="Path" fill="#FF826B"></path>
                    <path d="M65.5057071,115.671118 L66.0589679,115.908738 C66.0589679,115.908738 67.6397091,120.819565 67.4816352,121.770041 C67.3235613,122.720518 66.9283745,125.968002 66.6912636,125.968002 C66.4541527,125.968002 65.9799309,125.49276 65.9799309,125.49276 L65.9799309,124.700693 C65.9799309,124.54228 65.742818,124.067031 65.9008939,124.067031 C66.0589698,124.067031 66.2960788,123.908618 66.1380048,123.750205 C65.9799309,123.591791 65.821857,123.354171 65.9799309,123.116543 C66.1380048,122.878915 66.2170418,122.799717 66.1380048,122.562094 C66.0589679,122.324472 65.9008939,122.086854 66.0589679,121.928433 C66.2170418,121.770012 65.6637811,120.977951 65.6637811,120.977951 L64.7943745,117.492852 L64.9524484,116.06713 L65.5057071,115.671118 Z" id="Path" fill="#FF826B"></path>
                    <path d="M65.821857,123.195764 C65.821857,123.195764 62.8184484,122.958144 62.4232616,122.958144 C62.0280748,122.958144 61.141465,122.585173 61.141465,122.585173 C61.141465,122.585173 58.8665943,124.859106 59.6569659,128.581827 C60.4473375,132.304547 60.6054095,136.898541 61.0796313,138.245057 C61.4019085,139.205047 61.6658493,140.183723 61.8700029,141.175707 C61.8700029,141.175707 62.6603725,139.749984 64.1620768,141.33412 C64.1620768,141.33412 64.3201527,140.14602 64.0830398,139.670778 C63.845927,139.195535 63.5297811,136.660919 63.5297811,136.660919 C63.5297811,136.660919 62.9765223,132.621374 62.9765223,132.146134 C62.9765223,131.670894 62.6603725,127.631346 62.7394114,127.55214 C62.8184504,127.472933 63.2136332,130.641205 63.2926702,131.195644 C63.3717071,131.750083 63.608818,136.027258 63.8459289,136.502498 C64.0830398,136.977738 65.1895593,140.779663 65.821857,141.017285 C66.4541546,141.254907 68.5881605,140.938079 68.5091157,140.779665 C68.4300709,140.621252 67.8768121,139.749976 67.7187461,139.512356 L67.0864425,138.561876 L65.5847461,133.413433 L66.2960807,127.156096 C66.2960807,127.156096 66.6912636,123.116557 65.821857,123.195764 Z" id="Path" fill="#2F2E41"></path>
                    <path d="M62.9428505,113.334518 L61.0170746,113.334518 C60.8482833,113.334518 60.7045766,113.211458 60.6782511,113.044374 L60.486855,111.829589 L63.4902636,111.829589 L63.2217575,113.107738 C63.1939878,113.23991 63.0776306,113.334518 62.9428505,113.334518 Z" id="Path" fill="#2F2E41"></path>
                    <path d="M162.194018,112.959492 L165.232513,112.959492 L165.232513,117.30952 L165.232513,117.30952 C164.426654,117.30952 163.653801,116.988708 163.083973,116.417657 C162.514144,115.846605 162.194018,115.072093 162.194018,114.264504 L162.194018,112.959492 L162.194018,112.959492 Z" id="Path" fill="#2F2E41"></path>
                    <polygon id="Path" fill="#A0616A" points="160.421643 138.443307 160.204589 139.530906 161.723768 139.530906 161.796054 138.443307"></polygon>
                    <path d="M160.421562,139.313407 C160.421562,139.313407 160.132182,139.095907 159.987491,139.240907 C159.842799,139.385907 159.336385,142.213427 159.264044,142.285927 C159.191703,142.358427 157.021346,143.445935 157.527763,143.518435 C158.034179,143.590935 159.987494,143.663435 160.276875,143.518435 C160.566256,143.373435 161.362053,141.995925 161.362053,141.995925 L161.362053,143.228433 L161.506742,143.228433 C161.506742,143.228433 161.651433,141.923425 162.013158,141.560913 C162.374883,141.198402 161.723778,139.965904 161.723778,139.965904 C161.723778,139.965904 161.868467,139.1684 161.796122,139.1684 C161.723778,139.1684 160.421562,139.313407 160.421562,139.313407 Z" id="Path" fill="#FF826B"></path>
                    <polygon id="Path" fill="#A0616A" points="164.906893 137.682087 164.689839 138.769685 166.209214 138.769685 166.2815 137.682087"></polygon>
                    <path d="M163.170676,130.613354 C163.170676,130.613354 163.894123,132.788366 164.038816,133.005874 C164.183509,133.223382 164.689924,137.283402 164.689924,137.283402 C164.689924,137.283402 164.183507,138.080906 164.834613,138.153407 C165.485719,138.225909 165.196338,138.008406 165.63041,138.153407 C165.869594,138.24402 166.137314,138.217189 166.353856,138.080906 C166.353856,138.080906 166.570892,137.645904 166.426201,137.500904 C166.28151,137.355904 166.570892,133.585878 166.570892,133.585878 L166.136821,132.28087 L165.775095,128.148344 C165.775095,128.148344 166.209165,127.060837 165.992131,126.770835 C165.775097,126.480833 165.051645,126.988337 165.051645,126.988337 L163.170676,130.613354 Z" id="Path" fill="#2F2E41"></path>
                    <path d="M162.23019,124.958319 C162.23019,124.958319 162.013154,127.278333 161.868463,127.423333 C161.723772,127.568333 160.132182,131.62836 160.132182,131.62836 C160.132182,131.62836 159.698112,132.135862 159.842801,134.02088 C159.987491,135.905898 160.349218,137.790904 160.349218,137.790904 C160.349218,137.790904 160.059837,138.878411 160.566252,138.878411 C161.072666,138.878411 161.289698,138.588409 161.506738,138.805911 C161.723778,139.023413 161.868463,138.805911 161.94081,138.660909 C162.013156,138.515907 162.302535,138.008406 162.302535,137.863406 C162.302535,137.718406 162.591915,134.020886 162.591915,134.020886 C162.591915,134.020886 164.979308,128.728354 165.196338,128.438352 C165.413368,128.14835 166.643231,126.553341 166.570896,125.465833 L162.23019,124.958319 Z" id="Path" fill="#2F2E41"></path>
                    <ellipse id="Oval" fill="#A0616A" cx="164.038816" cy="113.648246" rx="1.51924732" ry="1.52250984"></ellipse>
                    <path d="M163.749438,114.953256 C163.749438,114.953256 164.328197,116.258264 164.400543,116.620776 C164.47289,116.983287 165.847436,115.895776 165.847436,115.895776 C165.847436,115.895776 165.12399,114.663268 165.341022,114.083264 L163.749438,114.953256 Z" id="Path" fill="#A0616A"></path>
                    <path d="M166.06448,115.67826 C166.06448,115.67826 164.979302,114.880754 164.183507,116.548266 C163.387712,118.215778 163.170676,118.143276 163.170676,118.143276 C163.170676,118.143276 162.23019,118.433278 162.519571,120.463289 C162.808951,122.493301 161.579084,125.175819 162.085499,125.320821 C162.591913,125.465823 167.294347,126.263327 167.294347,125.683323 C167.294347,125.103319 166.860275,122.855805 167.222002,121.478295 C167.583729,120.100785 166.715586,115.315758 166.06448,115.67826 Z" id="Path" fill="#3F3D56"></path>
                    <path d="M164.979302,116.040762 C164.979302,116.040762 164.111163,117.34577 164.183507,118.360776 C164.255852,119.375781 164.255852,120.028295 164.255852,120.028295 C164.255852,120.028295 162.808949,126.988335 163.09833,126.988335 C163.38771,126.988335 164.255852,127.350837 164.328197,127.133335 C164.400541,126.915833 166.209165,122.493307 166.209165,122.493307 C166.209165,122.493307 166.643237,118.07078 166.136821,117.055772 C165.630404,116.040762 164.979302,116.040762 164.979302,116.040762 Z" id="Path" fill="#3F3D56"></path>
                    <path d="M163.243021,126.770829 C163.243021,126.770829 162.519575,129.235844 163.532402,129.308344 C164.545229,129.380844 163.966471,126.915825 163.966471,126.915825 L163.243021,126.770829 Z" id="Path" fill="#A0616A"></path>
                    <path d="M165.16853,138.204947 C165.16853,138.204947 164.915111,138.014476 164.788403,138.141457 C164.661695,138.268437 164.218216,140.744559 164.154862,140.808049 C164.091508,140.871539 162.190879,141.823894 162.63436,141.88738 C163.07784,141.950866 164.788395,142.01436 165.041822,141.88738 C165.295248,141.7604 165.992143,140.554083 165.992143,140.554083 L165.992143,141.633413 L166.118851,141.633413 C166.118851,141.633413 166.245559,140.490587 166.56233,140.173136 C166.879101,139.855685 166.308914,138.776348 166.308914,138.776348 C166.308914,138.776348 166.435622,138.077957 166.372268,138.077957 C166.308914,138.077957 165.16853,138.204947 165.16853,138.204947 Z" id="Path" fill="#FF826B"></path>
                    <path d="M163.287813,112.650591 C163.33604,112.591574 163.399284,112.546714 163.470859,112.520754 C163.537719,112.508618 163.606599,112.51456 163.670406,112.537969 C164.124056,112.670598 164.517512,112.9573 164.783272,113.348888 C164.834894,113.448659 164.91236,113.532668 165.007541,113.5921 C165.069575,113.610691 165.13016,113.633828 165.188807,113.661325 C165.357966,113.773348 165.257117,114.033002 165.159867,114.211297 C164.910884,114.669794 164.795911,115.18934 164.828139,115.710335 C164.826058,115.80095 164.852696,115.889894 164.904223,115.964386 C164.986143,116.040349 165.093244,116.083199 165.204844,116.084661 C165.555959,116.128849 165.909778,116.147822 166.263594,116.141437 C166.609858,116.135177 166.994039,116.085978 167.218388,115.821585 C167.459576,115.537344 167.42175,115.102043 167.264851,114.763679 C167.107952,114.425315 166.852844,114.142531 166.671637,113.816587 C166.499775,113.472192 166.364116,113.110821 166.266846,112.738303 C166.141457,112.262902 165.939432,111.811214 165.668749,111.401077 C165.392485,110.988057 164.957461,110.708575 164.467627,110.629413 C163.810407,110.555923 163.20436,110.961516 162.676089,111.360173 C162.082918,111.807811 161.451699,112.361579 161.404082,113.104185 C161.365504,113.705821 161.725984,114.250096 161.914319,114.822665 C162.205055,115.706543 162.083248,116.666675 161.958378,117.588884 C162.494025,117.267352 163.100045,116.820783 163.064943,116.196045 C163.041261,115.774528 162.723906,115.43813 162.526363,115.065236 C161.983175,114.039876 162.602499,113.352449 163.287813,112.650591 Z" id="Path" fill="#2F2E41"></path>
                    <path d="M184.65229,120.060685 C185.112042,119.256476 185.349597,118.343998 185.340497,117.417203 C185.340497,115.028185 183.864254,113.091504 182.043223,113.091504 C180.222193,113.091504 178.74595,115.028185 178.74595,117.417203 C178.736854,118.343997 178.974409,119.256474 179.434157,120.060685 C178.516547,121.703049 178.516547,123.705291 179.434157,125.347656 C178.516547,126.990018 178.516547,128.992258 179.434157,130.63462 C178.516547,132.276982 178.516547,134.279221 179.434157,135.921583 C178.97441,136.725793 178.736854,137.638269 178.74595,138.565063 C178.74595,140.954081 180.222187,142.890764 182.043223,142.890764 C183.864259,142.890764 185.340497,140.954081 185.340497,138.565063 C185.349597,137.638269 185.112041,136.725791 184.65229,135.921583 C185.569899,134.279221 185.569899,132.276982 184.65229,130.63462 C185.569899,128.992258 185.569899,126.990018 184.65229,125.347656 C185.569899,123.705291 185.569899,121.703049 184.65229,120.060685 L184.65229,120.060685 Z" id="Path" fill="#3F3D56"></path>
                    <ellipse id="Oval" fill="#3F3D56" cx="182.043221" cy="112.130242" rx="3.29727357" ry="4.32569882"></ellipse>
                    <ellipse id="Oval" fill="#3F3D56" cx="182.043221" cy="106.843278" rx="3.29727357" ry="4.32569882"></ellipse>
                    <path d="M194.386553,70.6628878 C194.837016,70.0881495 195.247308,69.482902 195.614497,68.8514705 L186.950636,67.4255059 L196.320832,67.4953425 C198.137512,63.5342069 198.2466,58.9982222 196.622446,54.9539803 L184.051214,61.489313 L195.644821,52.9488681 C192.684301,47.8219585 187.115155,44.7805757 181.211263,45.0665152 C175.307371,45.3524547 170.056837,48.9178604 167.603453,54.3069783 C165.150068,59.6960961 165.904443,66.0069776 169.558567,70.6628917 C168.856398,71.5574014 168.252493,72.5251583 167.757317,73.5493917 L179.003619,79.4047244 L167.011924,75.3714567 C165.301328,80.4390223 166.259173,86.0295237 169.558563,90.2350157 C164.465706,96.7237581 165.204605,106.045466 171.255821,111.647059 C177.307037,117.248652 186.638072,117.248652 192.689287,111.647059 C198.740503,106.045466 199.479403,96.7237581 194.386545,90.2350157 C198.893201,84.4925878 198.893201,76.4053039 194.386545,70.662876 L194.386553,70.6628878 Z" id="Path" fill="#F2F2F2"></path>
                    <path d="M166.178322,80.4489567 C166.173118,83.9993997 167.36411,87.4476726 169.558563,90.2350276 C164.465706,96.7237699 165.204605,106.045478 171.255821,111.647071 C177.307037,117.248664 186.638072,117.248664 192.689287,111.647071 C198.740503,106.045478 199.479403,96.7237699 194.386545,90.2350276 C196.503419,87.5418839 166.178322,78.6724803 166.178322,80.4489567 Z" id="Path" fill="#F2F2F2"></path>
                    <path d="M194.386553,70.6628878 C194.837016,70.0881495 195.247308,69.482902 195.614497,68.8514705 L186.950636,67.4255059 L196.320832,67.4953425 C198.137512,63.5342069 198.2466,58.9982222 196.622446,54.9539803 L184.051214,61.489313 L195.644821,52.9488681 C192.684301,47.8219585 187.115155,44.7805757 181.211263,45.0665152 C175.307371,45.3524547 170.056837,48.9178604 167.603453,54.3069783 C165.150068,59.6960961 165.904443,66.0069776 169.558567,70.6628917 C168.856398,71.5574014 168.252493,72.5251583 167.757317,73.5493917 L179.003619,79.4047244 L167.011924,75.3714567 C165.301328,80.4390223 166.259173,86.0295237 169.558563,90.2350157 C164.465706,96.7237581 165.204605,106.045466 171.255821,111.647059 C177.307037,117.248652 186.638072,117.248652 192.689287,111.647059 C198.740503,106.045466 199.479403,96.7237581 194.386545,90.2350157 C198.893201,84.4925878 198.893201,76.4053039 194.386545,70.662876 L194.386553,70.6628878 Z" id="Path" fill="#57B894"></path>
                    <path d="M166.178322,80.4489567 C166.173118,83.9993997 167.36411,87.4476726 169.558563,90.2350276 C164.465706,96.7237699 165.204605,106.045478 171.255821,111.647071 C177.307037,117.248664 186.638072,117.248664 192.689287,111.647071 C198.740503,106.045478 199.479403,96.7237699 194.386545,90.2350276 C196.503419,87.5418839 166.178322,78.6724803 166.178322,80.4489567 Z" id="Path" fill="#000000" opacity="0.1"></path>
                    <path d="M18.6701468,120.060685 C19.1298987,119.256476 19.3674543,118.343998 19.3583539,117.417203 C19.3583539,115.028185 17.8821107,113.091504 16.0610804,113.091504 C14.24005,113.091504 12.7638068,115.028185 12.7638068,117.417203 C12.7547111,118.343997 12.9922665,119.256474 13.4520139,120.060685 C12.5344043,121.703049 12.5344043,123.705291 13.4520139,125.347656 C12.5344042,126.990018 12.5344042,128.992258 13.4520139,130.63462 C12.5344046,132.276982 12.5344046,134.279221 13.4520139,135.921583 C12.9922667,136.725793 12.7547114,137.638269 12.7638068,138.565063 C12.7638068,140.954081 14.2400441,142.890764 16.0610804,142.890764 C17.8821166,142.890764 19.3583539,140.954081 19.3583539,138.565063 C19.3674541,137.638269 19.1298984,136.725791 18.6701468,135.921583 C19.5877561,134.279221 19.5877561,132.276982 18.6701468,130.63462 C19.5877565,128.992258 19.5877565,126.990018 18.6701468,125.347656 C19.5877564,123.705291 19.5877564,121.703049 18.6701468,120.060685 L18.6701468,120.060685 Z" id="Path" fill="#3F3D56"></path>
                    <ellipse id="Oval" fill="#3F3D56" cx="16.0610784" cy="112.130242" rx="3.29727357" ry="4.32569882"></ellipse>
                    <ellipse id="Oval" fill="#3F3D56" cx="16.0610784" cy="106.843278" rx="3.29727357" ry="4.32569882"></ellipse>
                    <path d="M28.4044102,70.6628878 C28.8548729,70.0881495 29.2651649,69.482902 29.6323539,68.8514705 L20.9684927,67.4255059 L30.3386895,67.4953425 C32.1553688,63.5342069 32.2644571,58.9982222 30.6403036,54.9539803 L18.0690714,61.489313 L29.6626786,52.9488681 C26.7021584,47.8219585 21.1330119,44.7805757 15.22912,45.0665152 C9.32522804,45.3524547 4.07469419,48.9178604 1.62130977,54.3069783 C-0.832074651,59.6960961 -0.0776994916,66.0069776 3.57642411,70.6628917 C2.8742556,71.5574014 2.27035047,72.5251583 1.77517411,73.5493917 L13.0214759,79.4047244 L1.02978071,75.3714567 C-0.680814925,80.4390223 0.277030462,86.0295237 3.57642018,90.2350157 C-1.51643715,96.7237581 -0.777537965,106.045466 5.2736779,111.647059 C11.3248938,117.248652 20.6559287,117.248652 26.7071446,111.647059 C32.7583605,106.045466 33.4972597,96.7237581 28.4044023,90.2350157 C32.9110577,84.4925878 32.9110577,76.4053039 28.4044023,70.662876 L28.4044102,70.6628878 Z" id="Path" fill="#F2F2F2"></path>
                    <path d="M0.196178785,80.4489567 C0.19097533,83.9993997 1.38196744,87.4476726 3.57642018,90.2350276 C-1.51643715,96.7237699 -0.777537965,106.045478 5.2736779,111.647071 C11.3248938,117.248664 20.6559287,117.248664 26.7071446,111.647071 C32.7583605,106.045478 33.4972597,96.7237699 28.4044023,90.2350276 C30.5212757,87.5418839 0.196178785,78.6724803 0.196178785,80.4489567 Z" id="Path" fill="#F2F2F2"></path>
                    <path d="M28.4044102,70.6628878 C28.8548729,70.0881495 29.2651649,69.482902 29.6323539,68.8514705 L20.9684927,67.4255059 L30.3386895,67.4953425 C32.1553688,63.5342069 32.2644571,58.9982222 30.6403036,54.9539803 L18.0690714,61.489313 L29.6626786,52.9488681 C26.7021584,47.8219585 21.1330119,44.7805757 15.22912,45.0665152 C9.32522804,45.3524547 4.07469419,48.9178604 1.62130977,54.3069783 C-0.832074651,59.6960961 -0.0776994916,66.0069776 3.57642411,70.6628917 C2.8742556,71.5574014 2.27035047,72.5251583 1.77517411,73.5493917 L13.0214759,79.4047244 L1.02978071,75.3714567 C-0.680814925,80.4390223 0.277030462,86.0295237 3.57642018,90.2350157 C-1.51643715,96.7237581 -0.777537965,106.045466 5.2736779,111.647059 C11.3248938,117.248652 20.6559287,117.248652 26.7071446,111.647059 C32.7583605,106.045466 33.4972597,96.7237581 28.4044023,90.2350157 C32.9110577,84.4925878 32.9110577,76.4053039 28.4044023,70.662876 L28.4044102,70.6628878 Z" id="Path" fill="#57B894"></path>
                    <path d="M0.196178785,80.4489567 C0.19097533,83.9993997 1.38196744,87.4476726 3.57642018,90.2350276 C-1.51643715,96.7237699 -0.777537965,106.045478 5.2736779,111.647071 C11.3248938,117.248664 20.6559287,117.248664 26.7071446,111.647071 C32.7583605,106.045478 33.4972597,96.7237699 28.4044023,90.2350276 C30.5212757,87.5418839 0.196178785,78.6724803 0.196178785,80.4489567 Z" id="Path" fill="#000000" opacity="0.1"></path>
                </g>
            </g>
        </g>
    </g>
</svg>