<?xml version="1.0" encoding="UTF-8"?>
<svg width="231px" height="132px" viewBox="0 0 231 132" version="1.1" xmlns="http://www.w3.org/2000/svg" xmlns:xlink="http://www.w3.org/1999/xlink">
    <!-- Generator: sketchtool 57.1 (101010) - https://sketch.com -->
    <title>0DB69369-80D7-43E0-804F-9055D7FA10CF</title>
    <desc>Created with sketchtool.</desc>
    <g id="Finances" stroke="none" stroke-width="1" fill="none" fill-rule="evenodd">
        <g id="Dashboard---Finances---Empty-State" transform="translate(-453.000000, -396.000000)">
            <g id="Group-8" transform="translate(156.000000, 354.000000)">
                <g id="undraw_savings_hjfl" transform="translate(297.000000, 42.000000)">
                    <ellipse id="Oval" fill="#FF826B" fill-rule="nonzero" opacity="0.1" cx="115" cy="115.031133" rx="115" ry="16.9240349"></ellipse>
                    <path d="M198.636223,122.953876 C198.636223,122.953876 205.896497,113.713527 205.308701,104.545408 C205.038231,100.7017 206.021394,96.8739191 208.110694,93.6363167 C209.116483,92.10829 210.258545,90.6744593 211.522898,89.3523815" id="Path" stroke="#535461" stroke-width="2"></path>
                    <path d="M211.189149,83.5740502 C210.676073,84.8567401 211.515426,89.5043117 211.515426,89.5043117 C211.515426,89.5043117 215.323645,86.7122819 215.83423,85.4271013 C216.165246,84.5973375 216.028443,83.6540094 215.475355,82.9524595 C214.922266,82.2509096 214.036919,81.89772 213.152814,82.0259339 C212.26871,82.1541478 211.520165,82.7442864 211.189149,83.5740502 L211.189149,83.5740502 Z" id="Path" fill="#FF826B" fill-rule="nonzero"></path>
                    <path d="M204.51169,89.150638 C204.778191,90.5055571 207.998614,93.9501399 207.998614,93.9501399 C207.998614,93.9501399 209.677319,89.5366903 209.410818,88.1792806 C209.142585,86.8236726 207.826202,85.9421809 206.470594,86.2104139 C205.114986,86.4786468 204.233494,87.79503 204.501727,89.150638 L204.51169,89.150638 Z" id="Path" fill="#FF826B" fill-rule="nonzero"></path>
                    <path d="M199.83174,101.362344 C200.748303,102.398459 205.276323,103.740924 205.276323,103.740924 C205.276323,103.740924 204.496746,99.0833902 203.580183,98.0472756 C202.664752,97.0121716 201.083531,96.9151573 200.048427,97.8305882 C199.013323,98.7460191 198.916309,100.32724 199.83174,101.362344 L199.83174,101.362344 Z" id="Path" fill="#FF826B" fill-rule="nonzero"></path>
                    <path d="M198.374704,111.399704 C199.101976,112.575296 203.336098,114.664959 203.336098,114.664959 C203.336098,114.664959 203.356024,109.932705 202.628751,108.767076 C201.901771,107.592354 200.360136,107.229387 199.185413,107.956367 C198.010691,108.683347 197.647724,110.224981 198.374704,111.399704 L198.374704,111.399704 Z" id="Path" fill="#FF826B" fill-rule="nonzero"></path>
                    <path d="M212.788153,96.146902 C211.510445,96.6724313 206.85291,95.897836 206.85291,95.897836 C206.85291,95.897836 209.592636,92.0572383 210.880308,91.531709 C212.157509,91.004872 213.619971,91.6131626 214.146808,92.890364 C214.673645,94.1675655 214.065355,95.6300277 212.788153,96.1568647 L212.788153,96.146902 Z" id="Path" fill="#FF826B" fill-rule="nonzero"></path>
                    <path d="M210.932611,107.862967 C209.557767,107.985009 205.348552,105.843042 205.348552,105.843042 C205.348552,105.843042 209.119411,103.001198 210.496746,102.879156 C211.872299,102.758795 213.084978,103.77633 213.205339,105.151883 C213.3257,106.527437 212.308165,107.740115 210.932611,107.860476 L210.932611,107.862967 Z" id="Path" fill="#FF826B" fill-rule="nonzero"></path>
                    <path d="M207.56773,119.00618 C206.230245,119.357363 201.71966,117.957612 201.71966,117.957612 C201.71966,117.957612 204.957518,114.51801 206.295002,114.166827 C207.631353,113.815373 208.999588,114.61379 209.351042,115.95014 C209.702496,117.28649 208.90408,118.654726 207.56773,119.00618 L207.56773,119.00618 Z" id="Path" fill="#FF826B" fill-rule="nonzero"></path>
                    <path d="M211.189149,83.5740502 C210.676073,84.8567401 211.515426,89.5043117 211.515426,89.5043117 C211.515426,89.5043117 215.323645,86.7122819 215.83423,85.4271013 C216.165246,84.5973375 216.028443,83.6540094 215.475355,82.9524595 C214.922266,82.2509096 214.036919,81.89772 213.152814,82.0259339 C212.26871,82.1541478 211.520165,82.7442864 211.189149,83.5740502 L211.189149,83.5740502 Z" id="Path" fill="#000000" fill-rule="nonzero" opacity="0.25"></path>
                    <path d="M204.51169,89.150638 C204.778191,90.5055571 207.998614,93.9501399 207.998614,93.9501399 C207.998614,93.9501399 209.677319,89.5366903 209.410818,88.1792806 C209.142585,86.8236726 207.826202,85.9421809 206.470594,86.2104139 C205.114986,86.4786468 204.233494,87.79503 204.501727,89.150638 L204.51169,89.150638 Z" id="Path" fill="#000000" fill-rule="nonzero" opacity="0.25"></path>
                    <path d="M199.83174,101.362344 C200.748303,102.398459 205.276323,103.740924 205.276323,103.740924 C205.276323,103.740924 204.496746,99.0833902 203.580183,98.0472756 C202.664752,97.0121716 201.083531,96.9151573 200.048427,97.8305882 C199.013323,98.7460191 198.916309,100.32724 199.83174,101.362344 L199.83174,101.362344 Z" id="Path" fill="#000000" fill-rule="nonzero" opacity="0.25"></path>
                    <path d="M198.374704,111.399704 C199.101976,112.575296 203.336098,114.664959 203.336098,114.664959 C203.336098,114.664959 203.356024,109.932705 202.628751,108.767076 C201.901771,107.592354 200.360136,107.229387 199.185413,107.956367 C198.010691,108.683347 197.647724,110.224981 198.374704,111.399704 L198.374704,111.399704 Z" id="Path" fill="#000000" fill-rule="nonzero" opacity="0.25"></path>
                    <path d="M212.788153,96.146902 C211.510445,96.6724313 206.85291,95.897836 206.85291,95.897836 C206.85291,95.897836 209.592636,92.0572383 210.880308,91.531709 C212.157509,91.004872 213.619971,91.6131626 214.146808,92.890364 C214.673645,94.1675655 214.065355,95.6300277 212.788153,96.1568647 L212.788153,96.146902 Z" id="Path" fill="#000000" fill-rule="nonzero" opacity="0.25"></path>
                    <path d="M210.932611,107.862967 C209.557767,107.985009 205.348552,105.843042 205.348552,105.843042 C205.348552,105.843042 209.119411,103.001198 210.496746,102.879156 C211.872299,102.758795 213.084978,103.77633 213.205339,105.151883 C213.3257,106.527437 212.308165,107.740115 210.932611,107.860476 L210.932611,107.862967 Z" id="Path" fill="#000000" fill-rule="nonzero" opacity="0.25"></path>
                    <path d="M207.56773,119.00618 C206.230245,119.357363 201.71966,117.957612 201.71966,117.957612 C201.71966,117.957612 204.957518,114.51801 206.295002,114.166827 C207.631353,113.815373 208.999588,114.61379 209.351042,115.95014 C209.702496,117.28649 208.90408,118.654726 207.56773,119.00618 L207.56773,119.00618 Z" id="Path" fill="#000000" fill-rule="nonzero" opacity="0.25"></path>
                    <path d="M198.695999,122.567824 C198.695999,122.567824 209.07956,117.063465 212.257643,108.445781 C213.565769,104.823019 216.012588,101.721676 219.231491,99.6064288 C220.769704,98.6156093 222.395422,97.7677352 224.088278,97.0734276" id="Path" stroke="#535461" stroke-width="2"></path>
                    <path d="M226.130619,91.6537513 C225.134355,92.6201274 224.026011,97.2079232 224.026011,97.2079232 C224.026011,97.2079232 228.638714,96.1967152 229.627506,95.2328298 C230.266846,94.6099508 230.52532,93.6933026 230.305561,92.8281778 C230.085802,91.9630529 229.421198,91.2808844 228.562099,91.0386386 C227.703,90.7963927 226.779922,91.0308724 226.140582,91.6537513 L226.130619,91.6537513 Z" id="Path" fill="#FF826B" fill-rule="nonzero"></path>
                    <path d="M217.766983,94.044785 C217.463122,95.392232 219.012313,99.8530041 219.012313,99.8530041 C219.012313,99.8530041 222.334853,96.4955944 222.638714,95.1481474 C222.943399,93.8007927 222.098148,92.4615498 220.750793,92.1568647 C219.403439,91.8521796 218.064196,92.6974303 217.759511,94.044785 L217.766983,94.044785 Z" id="Path" fill="#FF826B" fill-rule="nonzero"></path>
                    <path d="M208.541578,103.315022 C208.957518,104.632581 212.554031,107.696093 212.554031,107.696093 C212.554031,107.696093 213.727132,103.12075 213.301229,101.803191 C213.031167,100.951181 212.327077,100.307969 211.454184,100.115845 C210.581291,99.9237212 209.672207,100.211875 209.069377,100.87176 C208.466546,101.531646 208.261553,102.463012 208.531615,103.315022 L208.541578,103.315022 Z" id="Path" fill="#FF826B" fill-rule="nonzero"></path>
                    <path d="M203.139336,111.900327 C203.328626,113.27019 206.354778,116.896591 206.354778,116.896591 C206.354778,116.896591 208.28504,112.585258 208.09824,111.217886 C207.976334,110.332508 207.391344,109.579421 206.563631,109.242306 C205.735918,108.905191 204.791231,109.035264 204.085425,109.583526 C203.379618,110.131789 203.019921,111.014949 203.141827,111.900327 L203.139336,111.900327 Z" id="Path" fill="#FF826B" fill-rule="nonzero"></path>
                    <path d="M222.499237,103.795719 C221.11692,103.76085 217.176696,101.155619 217.176696,101.155619 C217.176696,101.155619 221.248925,98.7596044 222.628751,98.7944736 C224.009807,98.830238 225.100381,99.9787977 225.064616,101.359853 C225.028852,102.740909 223.880292,103.831483 222.499237,103.795719 L222.499237,103.795719 Z" id="Path" fill="#FF826B" fill-rule="nonzero"></path>
                    <path d="M216.055899,113.755868 C214.748303,113.31004 211.766983,109.646279 211.766983,109.646279 C211.766983,109.646279 216.367232,108.575296 217.674828,109.023614 C218.520164,109.312808 219.147003,110.031015 219.319222,110.907695 C219.491441,111.784374 219.182875,112.686336 218.509758,113.273822 C217.836641,113.861307 216.901235,114.045062 216.055899,113.755868 L216.055899,113.755868 Z" id="Path" fill="#FF826B" fill-rule="nonzero"></path>
                    <path d="M208.461877,122.577786 C207.099486,122.358608 203.542823,119.250264 203.542823,119.250264 C203.542823,119.250264 207.896497,117.419629 209.271341,117.638807 C210.635203,117.858896 211.562414,119.142941 211.342325,120.506802 C211.122236,121.870664 209.838191,122.797875 208.47433,122.577786 L208.461877,122.577786 Z" id="Path" fill="#FF826B" fill-rule="nonzero"></path>
                    <path d="M147.696139,10.8368618 L141.501868,10.8368618 C141.505927,10.3590463 141.535859,9.88180126 141.591532,9.40722291 C141.785803,7.71855542 142.383562,4.97882939 144.236613,3.69364882 C145.967621,2.49315068 148.221669,4.30386052 147.337484,6.21917808 L147.315068,6.27148194 C146.983811,6.96388543 146.973848,7.8256538 147.083437,8.61519303 C147.199702,9.37724396 147.405353,10.1229412 147.696139,10.8368618 L147.696139,10.8368618 Z" id="Path" fill="#FF826B" fill-rule="nonzero"></path>
                    <path d="M147.696139,10.8368618 L141.501868,10.8368618 C141.505927,10.3590463 141.535859,9.88180126 141.591532,9.40722291 C143.339695,8.75180727 145.208779,8.48163961 147.070984,8.61519303 C147.191255,9.37776143 147.401091,10.1234737 147.696139,10.8368618 L147.696139,10.8368618 Z" id="Path" fill="#000000" fill-rule="nonzero" opacity="0.1"></path>
                    <path d="M151.713574,17.3947696 C150.107098,18.7023661 147.860523,18.7222914 145.561644,18.1618929 C140.854296,17.011208 135.940224,13.4097136 135.940224,13.4097136 C136.274794,13.0386239 136.634283,12.6907848 137.016189,12.3686177 C138.953923,10.7048568 143.39477,7.7633873 149.339975,9.22540473 C150.793933,9.55929287 152.074661,10.4154748 152.938979,11.6313823 C153.92279,13.0709838 154.435866,15.1805729 151.713574,17.3947696 Z" id="Path" fill="#FF826B" fill-rule="nonzero"></path>
                    <path d="M149.820672,14.7721046 C149.820672,14.7721046 146.239103,11.7210461 141.305106,15.7683686" id="Path" fill="#000000" fill-rule="nonzero" opacity="0.1"></path>
                    <path d="M49.1008717,40.4757161 C49.1008717,40.4757161 37.5591532,31.5940224 36.9788294,39.6463263 C36.3985056,47.6986301 39.3026152,55.2552927 41.7932752,55.9178082 C44.2839352,56.5803238 49.1008717,40.4757161 49.1008717,40.4757161 Z" id="Path" fill="#FF826B" fill-rule="nonzero"></path>
                    <path d="M49.1008717,40.4757161 C49.1008717,40.4757161 37.5591532,31.5940224 36.9788294,39.6463263 C36.3985056,47.6986301 39.3026152,55.2552927 41.7932752,55.9178082 C44.2839352,56.5803238 49.1008717,40.4757161 49.1008717,40.4757161 Z" id="Path" fill="#000000" fill-rule="nonzero" opacity="0.2"></path>
                    <path d="M41.5442092,43.3001245 C41.5442092,43.3001245 41.8156912,50.7098381 44.1195517,49.5267746 C46.4234122,48.3437111 43.0386052,43.6313823 41.5442092,43.3001245 Z" id="Path" fill="#000000" fill-rule="nonzero" opacity="0.1"></path>
                    <path d="M77.4595268,103.62142 C77.1880649,104.762501 76.7694487,105.863461 76.2141968,106.896638 C76.0722291,107.165629 75.9178082,107.442092 75.7484433,107.723537 C73.0311333,112.241594 66.7496887,114.117061 66.7496887,113.120797 C66.7496887,112.124533 66.1295143,109.549191 64.5504359,110.296389 C62.9713574,111.043587 60.5653798,110.879203 60.5653798,110.879203 C56.2191781,110.547945 56.9539228,106.26401 58.3935243,102.635118 C58.8723145,101.442268 59.4195079,100.278027 60.0323786,99.1481943 C60.5753425,98.1519303 60.98132,97.4993773 60.98132,97.4993773 L77.5865504,100.156912 C77.5865504,100.156912 77.9576588,101.466999 77.4595268,103.62142 Z" id="Path" fill="#FF826B" fill-rule="nonzero"></path>
                    <path d="M145.561644,18.1618929 C140.854296,17.011208 135.940224,13.4097136 135.940224,13.4097136 C136.274794,13.0386239 136.634283,12.6907848 137.016189,12.3686177 C137.733499,12.747198 138.45413,13.1498547 139.178082,13.5765878 C141.447544,14.8975664 143.585171,16.4330219 145.561644,18.1618929 Z" id="Path" fill="#000000" fill-rule="nonzero" opacity="0.1"></path>
                    <path d="M77.4595268,103.62142 C72.9539228,103.217933 66.4283935,102.109589 60.0249066,99.1606476 C60.5678705,98.1643836 60.9738481,97.5118306 60.9738481,97.5118306 L77.5790785,100.169365 C77.5790785,100.169365 77.9576588,101.466999 77.4595268,103.62142 Z" id="Path" fill="#000000" fill-rule="nonzero" opacity="0.1"></path>
                    <path d="M147.39726,82.0697385 C147.39726,82.0697385 147.098381,87.392279 144.094645,93.4072229 C141.781747,98.1377958 138.214058,102.142292 133.780822,104.983811 C133.780822,104.983811 131.125778,107.143213 130.958904,101.165629 C130.958904,101.165629 129.795766,99.9202989 121.825654,105.362391 C121.825654,105.362391 117.016189,108.30137 118.33873,96.0398506 C118.33873,96.0398506 118.33873,96.0249066 118.33873,96.0174346 C118.33873,96.0099626 118.219178,96.0946451 118,96.2266501 L117.985056,96.2266501 C117.417186,96.5753425 116.211706,97.2901619 114.777086,98.0099626 C112.14944,99.3300125 108.744707,100.672478 107.05604,99.8256538 C106.668232,102.929072 105.71071,105.934205 104.231631,108.689913 C102.557908,111.73599 99.9178082,114.714819 95.7833126,116.059776 C93.6576657,116.741358 91.3293501,116.17371 89.7559153,114.590286 L89.2826899,114.117061 C89.2826899,114.117061 85.6288917,116.607721 83.8032379,115.775841 C81.9775841,114.94396 80.4806974,112.622665 82.9713574,108.303861 C82.9713574,108.303861 83.1033624,107.945205 83.2652553,107.419676 C83.6712329,106.087173 84.2615193,103.683686 83.3051059,103.32254 C83.3051059,103.32254 44.615193,105.315068 39.4694894,70.9439601 C34.3237858,36.5728518 68.3611457,23.9551681 77.9900374,25.2826899 C77.9900374,25.2826899 103.561644,-6.92901619 138.929016,13.8256538 C174.296389,34.5803238 147.39726,82.0697385 147.39726,82.0697385 Z" id="Path" fill="#FF826B" fill-rule="nonzero"></path>
                    <path d="M77.9900374,25.282684 C77.9900374,25.282684 120.136986,25.1183064 117.24533,79.7459527" id="Path" stroke="#000000" opacity="0.1"></path>
                    <path d="M76.2141968,106.896638 C76.0722291,107.165629 75.9178082,107.442092 75.7484433,107.723537 C73.0311333,112.241594 66.7496887,114.117061 66.7496887,113.120797 C66.7496887,112.124533 66.1295143,109.549191 64.5504359,110.296389 C62.9713574,111.043587 60.5653798,110.879203 60.5653798,110.879203 C56.2191781,110.547945 56.9539228,106.26401 58.3935243,102.635118 C62.4682441,104.67995 69.8381071,107.726027 76.2141968,106.896638 Z" id="Path" fill="#000000" fill-rule="nonzero" opacity="0.2"></path>
                    <path d="M104.231631,108.689913 C102.557908,111.73599 99.9178082,114.714819 95.7833126,116.059776 C93.6576657,116.741358 91.3293501,116.17371 89.7559153,114.590286 L89.2826899,114.117061 C89.2826899,114.117061 85.6288917,116.607721 83.8032379,115.775841 C81.9775841,114.94396 80.4806974,112.622665 82.9713574,108.303861 C82.9713574,108.303861 83.1033624,107.945205 83.2652553,107.419676 C86.5205479,108.56787 95.143213,111.011208 104.231631,108.689913 Z" id="Path" fill="#000000" fill-rule="nonzero" opacity="0.2"></path>
                    <path d="M118.33873,96.0174346 C133.364882,88.2141968 135.940224,81.9875467 135.940224,81.9875467" id="Path" fill="#000000" fill-rule="nonzero" opacity="0.1"></path>
                    <path d="M144.094645,93.4072229 C141.781747,98.1377958 138.214058,102.142292 133.780822,104.983811 C133.780822,104.983811 131.125778,107.143213 130.958904,101.165629 C130.958904,101.165629 129.795766,99.9202989 121.825654,105.362391 C121.825654,105.362391 117.016189,108.30137 118.33873,96.0398506 L122.323786,93.8306351 C130.911582,98.6052304 139.539228,95.6936488 144.094645,93.4072229 Z" id="Path" fill="#000000" fill-rule="nonzero" opacity="0.2"></path>
                    <path d="M82.4757161,30.0996264 C82.4757161,30.0996264 90.9439601,17.1481943 97.3349938,21.2154421 C103.726027,25.2826899 96.1743462,40.4757161 96.1743462,40.4757161 C96.1743462,40.4757161 83.6363636,40.2266501 82.4757161,30.0996264 Z" id="Path" fill="#FF826B" fill-rule="nonzero"></path>
                    <path d="M82.4757161,30.0996264 C82.4757161,30.0996264 90.9439601,17.1481943 97.3349938,21.2154421 C103.726027,25.2826899 96.1743462,40.4757161 96.1743462,40.4757161 C96.1743462,40.4757161 83.6363636,40.2266501 82.4757161,30.0996264 Z" id="Path" fill="#000000" fill-rule="nonzero" opacity="0.2"></path>
                    <path d="M96.256538,26.5280199 C96.256538,26.5280199 85.1307597,31.9252802 88.5354919,35.0809465 C91.9402242,38.2366127 96.256538,26.5280199 96.256538,26.5280199 Z" id="Path" fill="#000000" fill-rule="nonzero" opacity="0.1"></path>
                    <path d="M125.728518,11.9153176 C122.886429,12.1531018 120.07244,12.6533665 117.32254,13.4097136 L117.24533,13.4321295 C113.349938,14.5155666 108.926526,16.3387298 105.88543,19.3798257 C105.88543,19.3798257 98.8293898,16.3910336 96.9190535,16.8891656 C96.9190535,16.8891656 102.647572,9.92777086 118.052304,9.750934 L118.089664,9.750934 C118.089664,9.750934 122.07472,10.0896638 125.728518,11.9153176 Z" id="Path"></path>
                    <ellipse id="Oval" fill="#000000" fill-rule="nonzero" opacity="0.1" transform="translate(66.544905, 66.545938) rotate(-13.000000) translate(-66.544905, -66.545938) " cx="66.5449046" cy="66.5459381" rx="15.5392279" ry="12.8692403"></ellipse>
                    <ellipse id="Oval" fill="#FF826B" fill-rule="nonzero" transform="translate(66.544929, 66.048120) rotate(-13.000000) translate(-66.544929, -66.048120) " cx="66.544929" cy="66.0481198" rx="15.5392279" ry="12.8692403"></ellipse>
                    <ellipse id="Oval" fill="#000000" fill-rule="nonzero" opacity="0.2" transform="translate(66.544929, 66.048120) rotate(-13.000000) translate(-66.544929, -66.048120) " cx="66.544929" cy="66.0481198" rx="15.5392279" ry="12.8692403"></ellipse>
                    <path d="M59.9750934,66.0448226 C59.9750934,66.0448226 60.1419676,70.8617684 61.5541719,69.4520548 C62.9663761,68.0423412 61.6363636,66.0398506 59.9750934,66.0448226 Z" id="Path" fill="#000000" fill-rule="nonzero" opacity="0.1"></path>
                    <path d="M68.0298879,62.3785803 C68.0298879,62.3785803 68.1942715,67.1955168 69.6064757,65.7858032 C71.01868,64.3760897 69.6886675,62.3636364 68.0298879,62.3785803 Z" id="Path" fill="#000000" fill-rule="nonzero" opacity="0.1"></path>
                    <path d="M81.6587796,89.9576588 C81.6587796,89.9576588 85.1307597,93.362391 89.3648817,88.630137" id="Path" fill="#000000" fill-rule="nonzero" opacity="0.1"></path>
                    <path d="M96.9190535,16.8966376 C98.8293898,16.3985056 105.88543,19.3872976 105.88543,19.3872976 C108.926526,16.3462017 113.35741,14.5230386 117.24533,13.4396015 L118.057285,9.75840598 C102.637609,9.93524284 96.9190535,16.8966376 96.9190535,16.8966376 Z" id="Path" fill="#000000" fill-rule="nonzero" opacity="0.15"></path>
                    <path d="M118.089664,9.75840598 L117.32254,13.4171856 C120.07244,12.6608385 122.886429,12.1605738 125.728518,11.9227895 C122.07472,10.0896638 118.089664,9.75840598 118.089664,9.75840598 Z" id="Path" fill="#000000" fill-rule="nonzero" opacity="0.3"></path>
                    <polygon id="Path" fill="#000000" fill-rule="nonzero" opacity="0.15" points="118.057285 9.75840598 117.250311 13.4396015 117.327522 13.4171856 118.094645 9.75840598"></polygon>
                    <g id="Group" opacity="0.1" transform="translate(38.854296, 25.150685)" fill="#FFFFFF" fill-rule="nonzero">
                        <path d="M45.860523,84.7123288 C45.860523,84.7123288 45.992528,84.3536737 46.1544209,83.8281445 C46.5603985,82.4956413 47.1506849,80.0921544 46.1942715,79.7310087 C46.1942715,79.7310087 45.750934,79.7534247 44.9489415,79.750934 C44.8616074,80.6287137 44.6804142,81.4946002 44.4084682,82.3337484 C44.2465753,82.8592777 44.1145704,83.2179328 44.1145704,83.2179328 C41.6239103,87.5367372 43.1183064,89.860523 44.9464508,90.6899128 L45.0435866,90.7247821 C44.3088418,89.4669988 44.249066,87.5068493 45.860523,84.7123288 Z" id="Path"></path>
                        <path d="M2.35865504,47.3524284 C-2.78953923,12.98132 32.3462017,-0.98630137 41.9750934,0.351183064 L39.135741,0.206724782 C29.5068493,-1.12079701 -4.53300125,11.4968867 0.615193026,45.867995 C2.23412204,56.6749689 7.17061021,63.8854296 13.1755915,68.6948941 C7.97011208,63.9128269 3.81818182,57.0933998 2.35865504,47.3524284 Z" id="Path"></path>
                        <path d="M81.2254047,72.4483188 C81.2254047,72.4483188 81.2254047,72.4333748 81.2254047,72.4259029 C81.2254047,72.4184309 81.1058531,72.5031133 80.886675,72.6351183 L80.871731,72.6351183 C80.5354919,72.8393524 79.9750934,73.1755915 79.2777086,73.5641345 C79.0286426,79.2303861 80.4956413,80.4582814 81.6488169,80.5653798 C81.0635118,79.2428394 80.7571606,76.8144458 81.2254047,72.4483188 Z" id="Path"></path>
                        <path d="M93.8480697,77.5740971 C93.8480697,77.5740971 93.5491905,77.2577833 92.2291407,77.6488169 C92.5728518,80.1195517 93.5242839,80.388543 94.2017435,80.241594 C93.9695062,79.3713622 93.8506317,78.4747808 93.8480697,77.5740971 Z" id="Path"></path>
                    </g>
                    <path d="M83.3051059,103.32254 C83.3051059,103.32254 104.891656,101.995019 107.048568,99.8356164" id="Path" fill="#000000" fill-rule="nonzero" opacity="0.1"></path>
                    <ellipse id="Oval" fill="#FBD56F" fill-rule="nonzero" cx="135.13325" cy="97.5118306" rx="9.35491905" ry="9.93026152"></ellipse>
                    <ellipse id="Oval" fill="#000000" fill-rule="nonzero" opacity="0.1" cx="135.13325" cy="97.5118306" rx="9.35491905" ry="9.93026152"></ellipse>
                    <ellipse id="Oval" fill="#FBD56F" fill-rule="nonzero" cx="136.747198" cy="97.7334994" rx="9.35491905" ry="9.70859278"></ellipse>
                    <path d="M140.537983,106.530511 L139.564134,105.990037 C139.564134,105.990037 139.108344,107.88792 139.257783,109.242839 C139.286669,109.521712 139.484943,109.753692 139.755915,109.825654 C141.997509,110.381071 152.662516,112.749689 160,109.412204 C160.216512,109.314082 160.364504,109.108221 160.388543,108.871731 C160.480697,108.039851 160.161893,106.323786 160.034869,105.990037 C159.768369,105.270237 140.537983,106.530511 140.537983,106.530511 Z" id="Path" fill="#FBD56F" fill-rule="nonzero"></path>
                    <path d="M140.537983,106.530511 L139.564134,105.990037 C139.564134,105.990037 139.108344,107.88792 139.257783,109.242839 C139.286669,109.521712 139.484943,109.753692 139.755915,109.825654 C141.997509,110.381071 152.662516,112.749689 160,109.412204 C160.216512,109.314082 160.364504,109.108221 160.388543,108.871731 C160.480697,108.039851 160.161893,106.323786 160.034869,105.990037 C159.768369,105.270237 140.537983,106.530511 140.537983,106.530511 Z" id="Path" fill="#000000" fill-rule="nonzero" opacity="0.1"></path>
                    <ellipse id="Oval" fill="#FBD56F" fill-rule="nonzero" cx="149.803238" cy="105.990037" rx="10.2391034" ry="2.30884184"></ellipse>
                    <path d="M144.458281,103.125778 L143.486924,102.585305 C143.486924,102.585305 143.031133,104.483188 143.180573,105.838107 C143.209055,106.116627 143.407719,106.348069 143.678705,106.418431 C145.920299,106.976339 156.585305,109.344956 163.92279,106.007472 C164.138637,105.908541 164.286316,105.703117 164.311333,105.466999 C164.400996,104.635118 164.082192,102.919054 163.955168,102.585305 C163.678705,101.865504 144.458281,103.125778 144.458281,103.125778 Z" id="Path" fill="#FBD56F" fill-rule="nonzero"></path>
                    <path d="M144.458281,103.125778 L143.486924,102.585305 C143.486924,102.585305 143.031133,104.483188 143.180573,105.838107 C143.209055,106.116627 143.407719,106.348069 143.678705,106.418431 C145.920299,106.976339 156.585305,109.344956 163.92279,106.007472 C164.138637,105.908541 164.286316,105.703117 164.311333,105.466999 C164.400996,104.635118 164.082192,102.919054 163.955168,102.585305 C163.678705,101.865504 144.458281,103.125778 144.458281,103.125778 Z" id="Path" fill="#000000" fill-rule="nonzero" opacity="0.1"></path>
                    <ellipse id="Oval" fill="#FBD56F" fill-rule="nonzero" cx="153.713574" cy="102.585305" rx="10.2391034" ry="2.30884184"></ellipse>
                    <path d="M147.907846,98.6500623 L146.933998,98.109589 C146.933998,98.109589 146.478207,100.007472 146.627646,101.362391 C146.656532,101.641264 146.854806,101.873244 147.125778,101.945205 C149.367372,102.500623 160.034869,104.86924 167.369863,101.531756 C167.586349,101.433101 167.734911,101.227764 167.760897,100.991283 C167.85056,100.159402 167.531756,98.4433375 167.404732,98.109589 C167.138232,97.3897883 147.907846,98.6500623 147.907846,98.6500623 Z" id="Path" fill="#FBD56F" fill-rule="nonzero"></path>
                    <path d="M147.907846,98.6500623 L146.933998,98.109589 C146.933998,98.109589 146.478207,100.007472 146.627646,101.362391 C146.656532,101.641264 146.854806,101.873244 147.125778,101.945205 C149.367372,102.500623 160.034869,104.86924 167.369863,101.531756 C167.586349,101.433101 167.734911,101.227764 167.760897,100.991283 C167.85056,100.159402 167.531756,98.4433375 167.404732,98.109589 C167.138232,97.3897883 147.907846,98.6500623 147.907846,98.6500623 Z" id="Path" fill="#000000" fill-rule="nonzero" opacity="0.1"></path>
                    <ellipse id="Oval" fill="#FBD56F" fill-rule="nonzero" cx="157.173101" cy="98.109589" rx="10.2391034" ry="2.30884184"></ellipse>
                    <path d="M144.07721,93.9950187 L143.103362,93.4520548 C143.103362,93.4520548 142.650062,95.3524284 142.797011,96.7048568 C142.826581,96.9834359 143.024567,97.2150804 143.295143,97.2876712 C145.536737,97.8430884 156.201743,100.211706 163.536737,96.8767123 C163.753551,96.7784591 163.902269,96.5729068 163.927771,96.3362391 C164.017435,95.5043587 163.69863,93.7882939 163.571606,93.4520548 C163.307597,92.7297634 144.07721,93.9950187 144.07721,93.9950187 Z" id="Path" fill="#FBD56F" fill-rule="nonzero"></path>
                    <path d="M144.07721,93.9950187 L143.103362,93.4520548 C143.103362,93.4520548 142.650062,95.3524284 142.797011,96.7048568 C142.826581,96.9834359 143.024567,97.2150804 143.295143,97.2876712 C145.536737,97.8430884 156.201743,100.211706 163.536737,96.8767123 C163.753551,96.7784591 163.902269,96.5729068 163.927771,96.3362391 C164.017435,95.5043587 163.69863,93.7882939 163.571606,93.4520548 C163.307597,92.7297634 144.07721,93.9950187 144.07721,93.9950187 Z" id="Path" fill="#000000" fill-rule="nonzero" opacity="0.1"></path>
                    <ellipse id="Oval" fill="#FBD56F" fill-rule="nonzero" cx="153.342466" cy="93.4495641" rx="10.2391034" ry="2.30884184"></ellipse>
                    <path d="M152.692403,90.2590286 L151.721046,89.7160648 C151.721046,89.7160648 151.265255,91.6164384 151.414695,92.9688667 C151.44289,93.2480354 151.641455,93.4803561 151.912827,93.5516812 C154.154421,94.1070984 164.819427,96.4757161 172.154421,93.1407223 C172.370581,93.0416703 172.518989,92.8365455 172.545455,92.6002491 C172.635118,91.7683686 172.316314,90.0498132 172.18929,89.7160648 C171.92279,88.9912827 152.692403,90.2590286 152.692403,90.2590286 Z" id="Path" fill="#FBD56F" fill-rule="nonzero"></path>
                    <path d="M152.692403,90.2590286 L151.721046,89.7160648 C151.721046,89.7160648 151.265255,91.6164384 151.414695,92.9688667 C151.44289,93.2480354 151.641455,93.4803561 151.912827,93.5516812 C154.154421,94.1070984 164.819427,96.4757161 172.154421,93.1407223 C172.370581,93.0416703 172.518989,92.8365455 172.545455,92.6002491 C172.635118,91.7683686 172.316314,90.0498132 172.18929,89.7160648 C171.92279,88.9912827 152.692403,90.2590286 152.692403,90.2590286 Z" id="Path" fill="#000000" fill-rule="nonzero" opacity="0.1"></path>
                    <ellipse id="Oval" fill="#FBD56F" fill-rule="nonzero" cx="161.957659" cy="89.7110834" rx="10.2391034" ry="2.30884184"></ellipse>
                    <path d="M146.871731,87.7409714 L145.897883,87.1980075 C145.897883,87.1980075 145.444583,89.0983811 145.591532,90.4508095 C145.621101,90.7293886 145.819088,90.9610331 146.089664,91.0336239 C148.331258,91.5890411 158.996264,93.9576588 166.331258,90.622665 C166.548072,90.5244118 166.696789,90.3188595 166.722291,90.0821918 C166.811955,89.2503113 166.493151,87.5317559 166.366127,87.1980075 C166.102117,86.4782067 146.871731,87.7409714 146.871731,87.7409714 Z" id="Path" fill="#FBD56F" fill-rule="nonzero"></path>
                    <path d="M146.871731,87.7409714 L145.897883,87.1980075 C145.897883,87.1980075 145.444583,89.0983811 145.591532,90.4508095 C145.621101,90.7293886 145.819088,90.9610331 146.089664,91.0336239 C148.331258,91.5890411 158.996264,93.9576588 166.331258,90.622665 C166.548072,90.5244118 166.696789,90.3188595 166.722291,90.0821918 C166.811955,89.2503113 166.493151,87.5317559 166.366127,87.1980075 C166.102117,86.4782067 146.871731,87.7409714 146.871731,87.7409714 Z" id="Path" fill="#000000" fill-rule="nonzero" opacity="0.1"></path>
                    <ellipse id="Oval" fill="#FBD56F" fill-rule="nonzero" cx="156.136986" cy="87.1980075" rx="10.2391034" ry="2.30884184"></ellipse>
                    <path d="M150.757161,82.8891656 L149.785803,82.3462017 C149.785803,82.3462017 149.330012,84.2465753 149.479452,85.5990037 C149.507647,85.8781724 149.706212,86.1104931 149.977584,86.1818182 C152.219178,86.7372354 162.884184,89.1058531 170.221669,85.7708593 C170.437847,85.6723308 170.585682,85.4666892 170.610212,85.2303861 C170.699875,84.3985056 170.381071,82.6824408 170.254047,82.3462017 C169.990037,81.626401 150.757161,82.8891656 150.757161,82.8891656 Z" id="Path" fill="#FBD56F" fill-rule="nonzero"></path>
                    <path d="M150.757161,82.8891656 L149.785803,82.3462017 C149.785803,82.3462017 149.330012,84.2465753 149.479452,85.5990037 C149.507647,85.8781724 149.706212,86.1104931 149.977584,86.1818182 C152.219178,86.7372354 162.884184,89.1058531 170.221669,85.7708593 C170.437847,85.6723308 170.585682,85.4666892 170.610212,85.2303861 C170.699875,84.3985056 170.381071,82.6824408 170.254047,82.3462017 C169.990037,81.626401 150.757161,82.8891656 150.757161,82.8891656 Z" id="Path" fill="#000000" fill-rule="nonzero" opacity="0.1"></path>
                    <ellipse id="Oval" fill="#FBD56F" fill-rule="nonzero" cx="160.024907" cy="82.3462017" rx="10.2391034" ry="2.30884184"></ellipse>
                    <path d="M152.67746,77.1307597 L151.703611,76.5877958 C151.703611,76.5877958 151.250311,78.4881694 151.39726,79.8405978 C151.42683,80.1191769 151.624816,80.3508213 151.895392,80.4234122 C154.136986,80.9788294 164.801993,83.3474471 172.136986,80.0124533 C172.3538,79.9142001 172.502518,79.7086478 172.52802,79.4719801 C172.617684,78.6400996 172.298879,76.9240349 172.171856,76.5877958 C171.905355,75.867995 152.67746,77.1307597 152.67746,77.1307597 Z" id="Path" fill="#FBD56F" fill-rule="nonzero"></path>
                    <path d="M152.67746,77.1307597 L151.703611,76.5877958 C151.703611,76.5877958 151.250311,78.4881694 151.39726,79.8405978 C151.42683,80.1191769 151.624816,80.3508213 151.895392,80.4234122 C154.136986,80.9788294 164.801993,83.3474471 172.136986,80.0124533 C172.3538,79.9142001 172.502518,79.7086478 172.52802,79.4719801 C172.617684,78.6400996 172.298879,76.9240349 172.171856,76.5877958 C171.905355,75.867995 152.67746,77.1307597 152.67746,77.1307597 Z" id="Path" fill="#000000" fill-rule="nonzero" opacity="0.1"></path>
                    <ellipse id="Oval" fill="#FBD56F" fill-rule="nonzero" cx="161.940224" cy="76.5877958" rx="10.2391034" ry="2.30884184"></ellipse>
                    <path d="M169.960149,107.867995 L168.986301,107.325031 C168.986301,107.325031 168.530511,109.225405 168.67995,110.577833 C168.708836,110.856706 168.90711,111.088686 169.178082,111.160648 C171.419676,111.716065 182.084682,114.084682 189.422167,110.749689 C189.638395,110.649915 189.786046,110.443582 189.81071,110.206725 C189.902864,109.374844 189.58406,107.65878 189.457036,107.325031 C189.190535,106.60523 169.960149,107.867995 169.960149,107.867995 Z" id="Path" fill="#FBD56F" fill-rule="nonzero"></path>
                    <path d="M169.960149,107.867995 L168.986301,107.325031 C168.986301,107.325031 168.530511,109.225405 168.67995,110.577833 C168.708836,110.856706 168.90711,111.088686 169.178082,111.160648 C171.419676,111.716065 182.084682,114.084682 189.422167,110.749689 C189.638395,110.649915 189.786046,110.443582 189.81071,110.206725 C189.902864,109.374844 189.58406,107.65878 189.457036,107.325031 C189.190535,106.60523 169.960149,107.867995 169.960149,107.867995 Z" id="Path" fill="#000000" fill-rule="nonzero" opacity="0.1"></path>
                    <ellipse id="Oval" fill="#FBD56F" fill-rule="nonzero" cx="179.225405" cy="107.325031" rx="10.2391034" ry="2.30884184"></ellipse>
                    <path d="M173.417186,103.392279 L172.443337,102.849315 C172.443337,102.849315 171.990037,104.749689 172.136986,106.102117 C172.166556,106.380696 172.364543,106.612341 172.635118,106.684932 C174.876712,107.240349 185.541719,109.608966 192.876712,106.273973 C193.093526,106.175719 193.242244,105.970167 193.267746,105.733499 C193.35741,104.901619 193.038605,103.183064 192.911582,102.849315 C192.647572,102.129514 173.417186,103.392279 173.417186,103.392279 Z" id="Path" fill="#FBD56F" fill-rule="nonzero"></path>
                    <path d="M173.417186,103.392279 L172.443337,102.849315 C172.443337,102.849315 171.990037,104.749689 172.136986,106.102117 C172.166556,106.380696 172.364543,106.612341 172.635118,106.684932 C174.876712,107.240349 185.541719,109.608966 192.876712,106.273973 C193.093526,106.175719 193.242244,105.970167 193.267746,105.733499 C193.35741,104.901619 193.038605,103.183064 192.911582,102.849315 C192.647572,102.129514 173.417186,103.392279 173.417186,103.392279 Z" id="Path" fill="#000000" fill-rule="nonzero" opacity="0.1"></path>
                    <ellipse id="Oval" fill="#FBD56F" fill-rule="nonzero" cx="182.682441" cy="102.849315" rx="10.2391034" ry="2.30884184"></ellipse>
                    <path d="M169.58655,98.7272727 L168.615193,98.1867995 C168.615193,98.1867995 168.159402,100.084682 168.308842,101.439601 C168.337324,101.718121 168.535988,101.949563 168.806974,102.019925 C171.048568,102.577833 181.713574,104.946451 189.051059,101.608966 C189.26757,101.510844 189.415563,101.304983 189.439601,101.068493 C189.529265,100.236613 189.210461,98.5205479 189.083437,98.1867995 C188.819427,97.4819427 169.58655,98.7272727 169.58655,98.7272727 Z" id="Path" fill="#FBD56F" fill-rule="nonzero"></path>
                    <path d="M169.58655,98.7272727 L168.615193,98.1867995 C168.615193,98.1867995 168.159402,100.084682 168.308842,101.439601 C168.337324,101.718121 168.535988,101.949563 168.806974,102.019925 C171.048568,102.577833 181.713574,104.946451 189.051059,101.608966 C189.26757,101.510844 189.415563,101.304983 189.439601,101.068493 C189.529265,100.236613 189.210461,98.5205479 189.083437,98.1867995 C188.819427,97.4819427 169.58655,98.7272727 169.58655,98.7272727 Z" id="Path" fill="#000000" fill-rule="nonzero" opacity="0.1"></path>
                    <ellipse id="Oval" fill="#FBD56F" fill-rule="nonzero" cx="178.854296" cy="98.1917808" rx="10.2391034" ry="2.30884184"></ellipse>
                    <path d="M178.204234,94.9912827 L177.230386,94.4508095 C177.230386,94.4508095 176.774595,96.3486924 176.924035,97.6886675 C176.95223,97.9678362 177.150795,98.2001569 177.422167,98.2714819 C179.663761,98.8293898 190.328767,101.195517 197.666252,97.860523 C197.882763,97.7624009 198.030756,97.5565395 198.054795,97.3200498 C198.144458,96.4881694 197.828144,94.7721046 197.701121,94.4383562 C197.43462,93.7459527 178.204234,94.9912827 178.204234,94.9912827 Z" id="Path" fill="#FBD56F" fill-rule="nonzero"></path>
                    <path d="M178.204234,94.9912827 L177.230386,94.4508095 C177.230386,94.4508095 176.774595,96.3486924 176.924035,97.6886675 C176.95223,97.9678362 177.150795,98.2001569 177.422167,98.2714819 C179.663761,98.8293898 190.328767,101.195517 197.666252,97.860523 C197.882763,97.7624009 198.030756,97.5565395 198.054795,97.3200498 C198.144458,96.4881694 197.828144,94.7721046 197.701121,94.4383562 C197.43462,93.7459527 178.204234,94.9912827 178.204234,94.9912827 Z" id="Path" fill="#000000" fill-rule="nonzero" opacity="0.1"></path>
                    <ellipse id="Oval" fill="#FBD56F" fill-rule="nonzero" cx="187.469489" cy="94.4533001" rx="10.2391034" ry="2.30884184"></ellipse>
                    <path d="M172.381071,92.4806974 L171.409714,91.9402242 C171.409714,91.9402242 170.953923,93.8381071 171.103362,95.1930262 C171.132538,95.4712476 171.330908,95.7023485 171.601494,95.7733499 C173.843088,96.3312578 184.508095,98.6973848 191.845579,95.362391 C192.062091,95.2642689 192.210083,95.0584075 192.234122,94.8219178 C192.323786,93.9900374 192.004981,92.2739726 191.877958,91.9402242 C191.613948,91.2204234 172.381071,92.4806974 172.381071,92.4806974 Z" id="Path" fill="#FBD56F" fill-rule="nonzero"></path>
                    <path d="M172.381071,92.4806974 L171.409714,91.9402242 C171.409714,91.9402242 170.953923,93.8381071 171.103362,95.1930262 C171.132538,95.4712476 171.330908,95.7023485 171.601494,95.7733499 C173.843088,96.3312578 184.508095,98.6973848 191.845579,95.362391 C192.062091,95.2642689 192.210083,95.0584075 192.234122,94.8219178 C192.323786,93.9900374 192.004981,92.2739726 191.877958,91.9402242 C191.613948,91.2204234 172.381071,92.4806974 172.381071,92.4806974 Z" id="Path" fill="#000000" fill-rule="nonzero" opacity="0.1"></path>
                    <ellipse id="Oval" fill="#FBD56F" fill-rule="nonzero" cx="181.648817" cy="91.9402242" rx="10.2391034" ry="2.30884184"></ellipse>
                    <path d="M176.268991,87.6288917 L175.295143,87.0884184 C175.295143,87.0884184 174.839352,88.9863014 174.988792,90.3412204 C175.017678,90.6200932 175.215952,90.8520734 175.486924,90.9240349 C177.728518,91.4794521 188.393524,93.8480697 195.728518,90.5105853 C195.945004,90.4119307 196.093566,90.2065936 196.119552,89.9701121 C196.209215,89.1382316 195.890411,87.4221669 195.763387,87.0884184 C195.499377,86.3686177 176.268991,87.6288917 176.268991,87.6288917 Z" id="Path" fill="#FBD56F" fill-rule="nonzero"></path>
                    <path d="M176.268991,87.6288917 L175.295143,87.0884184 C175.295143,87.0884184 174.839352,88.9863014 174.988792,90.3412204 C175.017678,90.6200932 175.215952,90.8520734 175.486924,90.9240349 C177.728518,91.4794521 188.393524,93.8480697 195.728518,90.5105853 C195.945004,90.4119307 196.093566,90.2065936 196.119552,89.9701121 C196.209215,89.1382316 195.890411,87.4221669 195.763387,87.0884184 C195.499377,86.3686177 176.268991,87.6288917 176.268991,87.6288917 Z" id="Path" fill="#000000" fill-rule="nonzero" opacity="0.1"></path>
                    <ellipse id="Oval" fill="#FBD56F" fill-rule="nonzero" cx="185.534247" cy="87.0884184" rx="10.2391034" ry="2.30884184"></ellipse>
                    <path d="M178.184309,81.8704857 L177.212951,81.3300125 C177.212951,81.3300125 176.757161,83.2278954 176.9066,84.5828144 C176.935486,84.8616873 177.13376,85.0936674 177.404732,85.1656289 C179.646326,85.7210461 190.311333,88.0896638 197.648817,84.7521793 C197.865329,84.6540572 198.013321,84.4481957 198.03736,84.2117061 C198.127024,83.3798257 197.808219,81.6637609 197.681196,81.3300125 C197.417186,80.6102117 178.184309,81.8704857 178.184309,81.8704857 Z" id="Path" fill="#FBD56F" fill-rule="nonzero"></path>
                    <path d="M178.184309,81.8704857 L177.212951,81.3300125 C177.212951,81.3300125 176.757161,83.2278954 176.9066,84.5828144 C176.935486,84.8616873 177.13376,85.0936674 177.404732,85.1656289 C179.646326,85.7210461 190.311333,88.0896638 197.648817,84.7521793 C197.865329,84.6540572 198.013321,84.4481957 198.03736,84.2117061 C198.127024,83.3798257 197.808219,81.6637609 197.681196,81.3300125 C197.417186,80.6102117 178.184309,81.8704857 178.184309,81.8704857 Z" id="Path" fill="#000000" fill-rule="nonzero" opacity="0.1"></path>
                    <ellipse id="Oval" fill="#FBD56F" fill-rule="nonzero" cx="187.452055" cy="81.3300125" rx="10.2391034" ry="2.30884184"></ellipse>
                    <path d="M101.768369,10.3088418 C101.768369,4.94894147 105.955168,0.595267746 111.123288,0.595267746 C111.629874,0.59579072 112.135547,0.638277216 112.635118,0.722291407 C111.635369,0.344792903 110.575495,0.151551662 109.506849,0.151929706 C104.34122,0.151929706 100.154421,4.59775841 100.154421,10.0821918 C100.154421,14.2017435 102.518057,17.7334994 105.882939,19.237858 C106.044832,19.0958904 106.246575,18.9265255 106.485679,18.739726 C103.537088,16.9573912 101.744803,13.754179 101.768369,10.3088418 L101.768369,10.3088418 Z" id="Path" fill="#FBD56F" fill-rule="nonzero"></path>
                    <path d="M101.768369,10.3088418 C101.768369,4.94894147 105.955168,0.595267746 111.123288,0.595267746 C111.629874,0.59579072 112.135547,0.638277216 112.635118,0.722291407 C111.635369,0.344792903 110.575495,0.151551662 109.506849,0.151929706 C104.34122,0.151929706 100.154421,4.59775841 100.154421,10.0821918 C100.154421,14.2017435 102.518057,17.7334994 105.882939,19.237858 C106.044832,19.0958904 106.246575,18.9265255 106.485679,18.739726 C103.537088,16.9573912 101.744803,13.754179 101.768369,10.3088418 L101.768369,10.3088418 Z" id="Path" fill="#000000" fill-rule="nonzero" opacity="0.1"></path>
                    <path d="M118.861768,10.0971357 C118.861103,11.1799607 118.693076,12.2561772 118.363636,13.2876712 C118.931507,13.1506849 119.524284,13.0386052 120.134496,12.9090909 C120.360987,12.0608993 120.475716,11.1867527 120.475716,10.3088418 C120.475716,5.48194271 117.080946,1.48194271 112.635118,0.729763387 C116.26401,2.10460772 118.861768,5.7758406 118.861768,10.0971357 Z" id="Path" fill="#FBD56F" fill-rule="nonzero"></path>
                    <path d="M101.768369,10.3088418 C101.744448,13.7555674 103.537856,16.9600432 106.488169,18.7422167 C108.249066,17.3424658 112.132005,14.7696139 118.366127,13.2801993 C118.695566,12.2487052 118.863594,11.1724887 118.864259,10.0896638 C118.864259,5.76836862 116.266501,2.09713574 112.637609,0.729763387 C112.138037,0.645749196 111.632365,0.6032627 111.125778,0.602739726 C105.955168,0.610211706 101.768369,4.95641345 101.768369,10.3088418 Z" id="Path" fill="#FBD56F" fill-rule="nonzero"></path>
                    <path d="M201.384807,83.4420922 C201.384807,83.4420922 197.150685,85.2353674 196.582814,85.6836862 C196.014944,86.132005 201.384807,83.4420922 201.384807,83.4420922 Z" id="Path" fill="#000000" fill-rule="nonzero" opacity="0.1"></path>
                    <ellipse id="Oval" fill="#FBD56F" fill-rule="nonzero" cx="156.383562" cy="111.678705" rx="9.35491905" ry="9.93026152"></ellipse>
                    <ellipse id="Oval" fill="#000000" fill-rule="nonzero" opacity="0.1" cx="156.383562" cy="111.678705" rx="9.35491905" ry="9.93026152"></ellipse>
                    <ellipse id="Oval" fill="#FBD56F" fill-rule="nonzero" cx="157.997509" cy="111.900374" rx="9.35491905" ry="9.70859278"></ellipse>
                    <ellipse id="Oval" fill="#FF826B" fill-rule="nonzero" cx="22.4508095" cy="115.183064" rx="11.5541719" ry="1.95267746"></ellipse>
                    <path d="M27.2278954,111.987547 C27.7260274,111.526775 28.1867995,110.991283 28.3312578,110.323786 C28.4757161,109.656289 28.1917808,108.874222 27.5616438,108.632628 C26.8542964,108.361146 26.0971357,108.851806 25.5242839,109.347447 C24.9514321,109.843088 24.2963885,110.405978 23.5466999,110.30137 C24.331197,109.590627 24.6848694,108.520153 24.4782067,107.481943 C24.4486047,107.271957 24.3625176,107.073957 24.2291407,106.909091 C23.8381071,106.49066 23.1257783,106.660025 22.6550436,107.001245 C21.1606476,108.052304 20.7447073,110.082192 20.7372354,111.907846 C20.5853051,111.247821 20.7123288,110.562889 20.7098381,109.88543 C20.7073474,109.20797 20.5205479,108.460772 19.9626401,108.097136 C19.6070092,107.906819 19.2076444,107.813204 18.8044832,107.825654 C18.132005,107.800747 17.384807,107.867995 16.9265255,108.358655 C16.3561644,108.971357 16.5031133,109.995019 16.9987547,110.667497 C17.494396,111.339975 18.2440847,111.758406 18.9439601,112.224159 C19.5004242,112.556424 19.9753297,113.009202 20.3337484,113.549191 C20.3764624,113.628385 20.4106914,113.71187 20.4358655,113.798257 L24.6475716,113.798257 C25.5853831,113.313783 26.4533587,112.704692 27.2278954,111.987547 L27.2278954,111.987547 Z" id="Path" fill="#FF826B" fill-rule="nonzero"></path>
                    <path d="M105.686177,6.61519303 L115.13076,1.88293898 L118.617684,5.07845579 L119.447073,7.36239103 L120.318804,11.2004981 L119.551681,12.8816936 L113.511831,13.9825654 C113.511831,13.9825654 110.293898,13.7957659 109.795766,14.0448319 C109.297634,14.2938979 107.265255,14.7247821 107.265255,14.7247821 L105.686177,10.8368618 L105.686177,6.61519303 Z" id="Path" fill="#FBD56F" fill-rule="nonzero"></path>
                </g>
            </g>
        </g>
    </g>
</svg>