<?xml version="1.0" encoding="UTF-8"?>
<svg width="206px" height="146px" viewBox="0 0 206 146" version="1.1" xmlns="http://www.w3.org/2000/svg" xmlns:xlink="http://www.w3.org/1999/xlink">
    <!-- Generator: sketchtool 57.1 (101010) - https://sketch.com -->
    <title>58E9D08B-EF1C-4D9A-9E5E-4B0C84F631AB</title>
    <desc>Created with sketchtool.</desc>
    <g id="Finances" stroke="none" stroke-width="1" fill="none" fill-rule="evenodd">
        <g id="Dashboard---Finances---Empty-State" transform="translate(-478.000000, -724.000000)">
            <g id="Group-8-Copy-2" transform="translate(156.000000, 696.000000)">
                <g id="undraw_revenue_3osh" transform="translate(322.000000, 28.000000)">
                    <path d="M205.954725,45.6229611 C205.954725,45.6229611 203.081667,44.4579674 193.941832,48.6342535 C184.801996,52.8105395 183.660696,52.2854454 181.293205,51.6455458 C178.925714,51.0056462 177.608974,50.8531995 175.06793,47.3601004 C175.06793,47.3601004 173.279579,37.6863237 171.547821,36.1863237 C169.816062,34.6863237 162.458919,37.0407779 162.458919,37.0407779 C162.458919,37.0407779 153.63978,39.0602258 151.958956,27.3048934 C151.958956,27.3048934 153.15119,18.4385194 151.52696,15.718946 C151.52696,15.718946 154.805604,17.1286073 160.215934,14.8513174 C165.626264,12.5740276 169.959432,17.2979925 169.959432,17.2979925 C169.959432,17.2979925 171.323333,20.8230866 171.179963,22.923463 C171.036593,25.0238394 171.902473,25.8143036 174.483132,24.8055207 C174.483132,24.8055207 175.750824,23.0062735 173.954927,20.0326223 C172.159029,17.0589711 170.878132,14.8437892 171.379927,12.5326223 C171.881722,10.2214555 173.321081,7.02195734 177.950421,5.42032622 C182.579762,3.81869511 188.867289,3.51003764 191.885604,2.2565872 C194.903919,1.00313676 195.633974,0.186323714 195.633974,0.186323714 C195.633974,0.186323714 193.777711,2.04203262 198.152381,9.91279799 C202.527051,17.7835634 199.738883,21.2051443 199.738883,21.2051443 C199.738883,21.2051443 197.411007,26.738394 187.135531,26.2867001 C187.135531,26.2867001 177.233571,26.6480552 182.632582,30.8375157 C182.632582,30.8375157 186.088553,30.1355082 191.257418,28.4962359 C196.426282,26.8569636 200.157674,33.621079 201.083919,38.3281054 C202.010165,43.0351317 205.954725,45.6229611 205.954725,45.6229611 Z" id="Path" fill="#FF826B" fill-rule="nonzero"></path>
                    <path d="M192.645842,6.15621079 L192.698663,6.14303639 C193.096703,7.64868256 188.671099,13.6712673 184.888773,18.4761606 L184.843498,18.4422836 C190.180256,11.674404 192.951447,7.31179423 192.645842,6.15621079 Z" id="Path" fill="#444053" fill-rule="nonzero"></path>
                    <path d="M184.922729,18.3425345 L184.945366,18.4046424 C181.927051,22.2365119 178.122088,26.8099122 175.081136,30.1976161 C174.792509,30.52133 174.503883,30.8601004 174.226575,31.206399 L174.139799,31.1367629 C174.418993,30.7885822 174.705733,30.4479297 174.998132,30.1242158 C178.039084,26.738394 181.902527,22.174404 184.922729,18.3425345 Z" id="Path" fill="#444053" fill-rule="nonzero"></path>
                    <path d="M174.21337,31.044542 L174.273736,31.1480552 C168.738901,38.0420326 168.37293,48.7471769 168.359725,48.8393977 L167.192015,47.4956085 C167.210879,47.4015056 168.638919,37.9874529 174.21337,31.044542 Z" id="Path" fill="#444053" fill-rule="nonzero"></path>
                    <path d="M199.535147,41.8833124 C199.535147,41.8833124 193.00804,38.4956085 187.922179,39.7132999 C182.836319,40.9309912 171.3837,35.4203262 171.3837,35.4203262 C171.3837,35.4203262 166.522326,33.4498118 165.535714,31.2026349 C165.535714,31.2026349 162.19859,27.685069 162.008059,25.8613551 C161.817527,24.0376412 158.570952,19.4623588 156.452473,19.2873275" id="Path" stroke="#444053" stroke-width="0.5"></path>
                    <path d="M198.590037,45.1430364 C198.590037,45.1430364 195.303846,42.9335006 195.684908,40.3588457" id="Path" stroke="#444053" stroke-width="0.5"></path>
                    <path d="M193.547564,47.9962359 C193.547564,47.9962359 188.848425,46.2929737 188.374927,39.6173149" id="Path" stroke="#444053" stroke-width="0.5"></path>
                    <path d="M185.962161,49.7239649 C185.962161,49.7239649 181.470531,46.0050188 182.960824,39.5081556" id="Path" stroke="#444053" stroke-width="0.5"></path>
                    <path d="M176.848736,47.9058971 C176.848736,47.9058971 173.854945,41.6480552 176.518608,37.5752823" id="Path" stroke="#444053" stroke-width="0.5"></path>
                    <path d="M199.610604,37.7578419 C199.610604,37.7578419 196.215,38.8343789 196.941282,40.6185696" id="Path" stroke="#444053" stroke-width="0.5"></path>
                    <path d="M195.507582,31.6016311 C195.507582,31.6016311 190.959359,33.0414053 190.851832,39.4611041" id="Path" stroke="#444053" stroke-width="0.5"></path>
                    <path d="M189.165348,30.1204517 C189.165348,30.1204517 185.026484,35.218946 185.328315,39.8525721" id="Path" stroke="#444053" stroke-width="0.5"></path>
                    <path d="M181.925165,32.119197 C181.925165,32.119197 177.812711,36.0414053 178.340916,38.2227102" id="Path" stroke="#444053" stroke-width="0.5"></path>
                    <path d="M179.435055,30.7340025 C179.435055,30.7340025 175.579158,31.4247177 175.039634,30.1693852" id="Path" stroke="#444053" stroke-width="0.5"></path>
                    <path d="M174.424652,26.0890841 C174.424652,26.0890841 176.373352,28.663739 176.877033,28.0878294" id="Path" stroke="#444053" stroke-width="0.5"></path>
                    <path d="M193.738095,24.4611041 C193.738095,24.4611041 184.017234,25.1649937 181.817637,22.2421581" id="Path" stroke="#444053" stroke-width="0.5"></path>
                    <path d="M172.379744,13.1179423 C172.379744,13.1179423 176.941172,22.8858218 180.251886,24.129862" id="Path" stroke="#444053" stroke-width="0.5"></path>
                    <path d="M177.163773,8.46549561 C177.163773,8.46549561 179.965147,17.4504391 183.436209,20.2547051" id="Path" stroke="#444053" stroke-width="0.5"></path>
                    <path d="M197.827912,17.0401506 C197.827912,17.0401506 190.436813,20.2057716 185.998004,17.0043915" id="Path" stroke="#444053" stroke-width="0.5"></path>
                    <path d="M183.749359,6.54956085 C183.749359,6.54956085 185.437729,13.1555834 187.710897,14.7496863" id="Path" stroke="#444053" stroke-width="0.5"></path>
                    <path d="M196.713022,9.64930991 C196.713022,9.64930991 192.562839,11.217064 191.00652,10.0257215" id="Path" stroke="#444053" stroke-width="0.5"></path>
                    <path d="M170.866813,28.2478043 C170.866813,28.2478043 170.855495,34.0050188 169.293516,34.4134253" id="Path" stroke="#444053" stroke-width="0.5"></path>
                    <path d="M158.023883,35.706399 C158.023883,35.706399 164.262363,36.2371393 167.139194,33.0376412" id="Path" stroke="#444053" stroke-width="0.5"></path>
                    <path d="M169.255788,21.4460477 C169.255788,21.4460477 167.74663,27.2804266 163.581355,28.857591" id="Path" stroke="#444053" stroke-width="0.5"></path>
                    <path d="M154.281172,29.5558344 C154.281172,29.5558344 158.697344,31.0878294 162.494762,27.1863237" id="Path" stroke="#444053" stroke-width="0.5"></path>
                    <path d="M164.345366,16.4265997 C164.345366,16.4265997 163.928462,21.3858218 161.22707,23.706399" id="Path" stroke="#444053" stroke-width="0.5"></path>
                    <path d="M154.449066,21.9993726 C154.449066,21.9993726 158.114432,22.0238394 158.976538,20.8324969" id="Path" stroke="#444053" stroke-width="0.5"></path>
                    <path d="M35.6368681,139.951694 C35.6368681,139.951694 38.1477289,138.299247 40.6359524,139.475533 C40.6359524,139.475533 39.8700549,140.947302 36.7196886,140.80803 L35.6368681,139.951694 Z" id="Path" fill="#FF826B" fill-rule="nonzero"></path>
                    <path d="M35.3293773,140.040151 C35.3293773,140.040151 34.5653663,142.949812 36.4801099,144.916562 C36.4801099,144.916562 37.6327289,143.719573 36.4895421,140.78921 L35.3293773,140.040151 Z" id="Path" fill="#FF826B" fill-rule="nonzero"></path>
                    <path d="M32.1978755,137.254705 C32.1978755,137.254705 32.3865201,134.785445 37.9704211,135.604141 C37.9704211,135.604141 37.9968132,137.196361 36.0349084,137.951066 C34.0730037,138.705772 33.1769414,138.069636 32.1978755,137.254705 Z" id="Path" fill="#FF826B" fill-rule="nonzero"></path>
                    <path d="M31.8545421,137.237767 C31.8545421,137.237767 29.4927106,137.99059 31.5979853,143.220828 C31.5979853,143.220828 33.1561905,142.874529 33.4316117,140.794856 C33.707033,138.715182 32.8788828,137.994354 31.8545421,137.237767 Z" id="Path" fill="#FF826B" fill-rule="nonzero"></path>
                    <path d="M28.6909707,133.727729 C28.6909707,133.727729 28.3721612,129.666248 34.0805495,130.084065 C34.0805495,130.084065 34.4861355,133.759724 29.7002198,134.704517 L28.6909707,133.727729 Z" id="Path" fill="#FF826B" fill-rule="nonzero"></path>
                    <path d="M24.9199634,129.150565 C24.9199634,129.150565 25.7009524,124.548934 31.4074557,125.920954 C31.4074557,125.920954 31.4300916,129.899624 25.8499817,130.249686 L24.9199634,129.150565 Z" id="Path" fill="#FF826B" fill-rule="nonzero"></path>
                    <path d="M22.161978,124.411543 C22.161978,124.411543 23.4824908,119.917189 29.1267399,121.270389 C29.1267399,121.270389 27.7817033,125.301757 22.537381,125.239649 L22.161978,124.411543 Z" id="Path" fill="#FF826B" fill-rule="nonzero"></path>
                    <path d="M19.5435897,119.781681 C19.5435897,119.781681 20.8244872,115.129235 26.281978,116.525721 C26.281978,116.525721 24.4596703,120.946675 19.9020147,120.574028 L19.5435897,119.781681 Z" id="Path" fill="#FF826B" fill-rule="nonzero"></path>
                    <path d="M17.8552198,115.383312 C17.8552198,115.383312 18.8399451,109.693852 23.9295788,110.952949 C23.9295788,110.952949 22.4506044,116.128607 18.2306227,116.211418 L17.8552198,115.383312 Z" id="Path" fill="#FF826B" fill-rule="nonzero"></path>
                    <path d="M16.2724908,110.070263 C16.2724908,110.070263 17.455293,104.335634 22.5996337,106.003137 C22.5996337,106.003137 20.5792491,111.423463 16.6309158,110.86261 L16.2724908,110.070263 Z" id="Path" fill="#FF826B" fill-rule="nonzero"></path>
                    <path d="M15.2934249,105.120452 C15.2934249,105.120452 17.1685531,99.3839398 21.1508425,99.5401506 C21.1508425,99.5401506 19.232326,105.598494 15.6254396,106.270389 L15.2934249,105.120452 Z" id="Path" fill="#FF826B" fill-rule="nonzero"></path>
                    <path d="M14.6708974,100.300502 C14.6708974,100.300502 16.712033,93.3952321 19.9529487,93.9297365 C19.9529487,93.9297365 18.54,99.1994981 14.7859707,101.377039 L14.6708974,100.300502 Z" id="Path" fill="#FF826B" fill-rule="nonzero"></path>
                    <path d="M14.3162454,94.5376412 C14.3162454,94.5376412 16.230989,88.7841907 19.4304029,88.5583438 C19.4304029,88.5583438 18.1268681,94.2195734 14.3879304,96.0357591 L14.3162454,94.5376412 Z" id="Path" fill="#FF826B" fill-rule="nonzero"></path>
                    <path d="M13.9295238,89.1718946 C13.9295238,89.1718946 16.3177656,83.4109159 18.4305861,83.281054 C18.4305861,83.281054 17.3949267,88.9535759 14.1408059,90.1166876 L13.9295238,89.1718946 Z" id="Path" fill="#FF826B" fill-rule="nonzero"></path>
                    <path d="M13.6635348,84.1750314 C13.6635348,84.1750314 15.1311905,77.9190715 17.2477839,77.3996236 C17.2477839,77.3996236 16.9591575,82.5150565 13.8804762,84.6417817 L13.6635348,84.1750314 Z" id="Path" fill="#FF826B" fill-rule="nonzero"></path>
                    <path d="M12.8712271,77.642409 C12.8712271,77.642409 14.4143407,72.6568381 16.1234615,71.8964868 C16.1234615,71.8964868 15.7857875,77.7741531 13.267381,78.8601004 L12.8712271,77.642409 Z" id="Path" fill="#FF826B" fill-rule="nonzero"></path>
                    <path d="M12.2090842,73.3400251 L11.8978205,64.5489335 C11.8978205,64.5489335 15.0896886,71.185069 12.4448901,74.8908407 L12.2090842,73.3400251 Z" id="Path" fill="#FF826B" fill-rule="nonzero"></path>
                    <path d="M9.74161172,64.6035132 C9.74161172,64.6035132 7.44014652,58.1838143 6.88741758,57.8281054 C6.88741758,57.8281054 11.401685,61.9930991 10.9602564,67.3513174 L9.74161172,64.6035132 Z" id="Path" fill="#FF826B" fill-rule="nonzero"></path>
                    <path d="M28.5362821,133.707026 C28.5362821,133.707026 24.487967,133.178168 24.6086996,138.886449 C24.6086996,138.886449 28.2684066,139.481179 29.4625275,134.760979 L28.5362821,133.707026 Z" id="Path" fill="#FF826B" fill-rule="nonzero"></path>
                    <path d="M24.7275458,128.998117 C24.7275458,128.998117 20.0491575,128.981179 20.4302198,134.832497 C20.4302198,134.832497 24.3559158,135.532622 25.6519048,130.108532 L24.7275458,128.998117 Z" id="Path" fill="#FF826B" fill-rule="nonzero"></path>
                    <path d="M22.1167033,124.789837 C22.1167033,124.789837 17.8703114,122.811794 15.1519414,127.930991 C15.1519414,127.930991 19.0757509,129.58532 22.4921062,125.617942 L22.1167033,124.789837 Z" id="Path" fill="#FF826B" fill-rule="nonzero"></path>
                    <path d="M19.4492674,119.824969 C19.4492674,119.824969 15.1010073,117.709536 12.5467582,122.721455 C12.5467582,122.721455 17.0742308,124.276035 19.8076923,120.617315 L19.4492674,119.824969 Z" id="Path" fill="#FF826B" fill-rule="nonzero"></path>
                    <path d="M17.9099267,115.507528 C17.9099267,115.507528 13.7257875,111.517566 10.3848901,115.552698 C10.3848901,115.552698 14.6614652,118.835006 18.1023443,116.395859 L17.9099267,115.507528 Z" id="Path" fill="#FF826B" fill-rule="nonzero"></path>
                    <path d="M16.5101832,109.934755 C16.5101832,109.934755 12.2996337,105.854454 8.98514652,110.122961 C8.98514652,110.122961 13.7125824,113.46926 16.6592125,110.791092 L16.5101832,109.934755 Z" id="Path" fill="#FF826B" fill-rule="nonzero"></path>
                    <path d="M15.7291941,104.962359 C15.7291941,104.962359 12.4863919,99.880803 8.666337,101.010038 C8.666337,101.010038 12.0317582,106.404015 15.6933516,106.163112 L15.7291941,104.962359 Z" id="Path" fill="#FF826B" fill-rule="nonzero"></path>
                    <path d="M14.7671062,100.268507 C14.7671062,100.268507 11.4941209,93.8525721 8.40600733,94.9667503 C8.40600733,94.9667503 10.7621795,99.8977415 14.8501099,101.346926 L14.7671062,100.268507 Z" id="Path" fill="#FF826B" fill-rule="nonzero"></path>
                    <path d="M14.5407326,94.2045169 C14.5407326,94.2045169 11.1809707,89.153074 8.03249084,89.770389 C8.03249084,89.770389 10.7791575,94.891468 14.8670879,95.6649937 L14.5407326,94.2045169 Z" id="Path" fill="#FF826B" fill-rule="nonzero"></path>
                    <path d="M14.2841758,89.0589711 C14.2841758,89.0589711 11.6808791,83.3920954 9.56805861,83.3431619 C9.56805861,83.3431619 10.8187729,88.9705144 14.1143956,90.0112923 L14.2841758,89.0589711 Z" id="Path" fill="#FF826B" fill-rule="nonzero"></path>
                    <path d="M13.7691758,84.0508156 C13.7691758,84.0508156 10.8734799,78.3124216 8.69840659,78.3011292 C8.69840659,78.3011292 10.1811538,83.2076537 13.6710806,84.5570891 L13.7691758,84.0508156 Z" id="Path" fill="#FF826B" fill-rule="nonzero"></path>
                    <path d="M13.3334066,77.9887077 C13.3334066,77.9887077 11.1677656,73.238394 9.37186813,72.7001255 C9.37186813,72.7001255 10.4546886,78.489335 13.0919414,79.2478043 L13.3334066,77.9887077 Z" id="Path" fill="#FF826B" fill-rule="nonzero"></path>
                    <path d="M11.9563004,73.174404 L7.11379121,65.8212045 C7.11379121,65.8212045 8.35318681,73.074655 12.6580586,74.576537 L11.9563004,73.174404 Z" id="Path" fill="#FF826B" fill-rule="nonzero"></path>
                    <path d="M8.63049451,65.1963614 C8.63049451,65.1963614 3.00699634,61.3230866 2.80326007,60.7038896 C2.80326007,60.7038896 5.67254579,66.129862 10.975348,67.0859473 L8.63049451,65.1963614 Z" id="Path" fill="#FF826B" fill-rule="nonzero"></path>
                    <path d="M8.29470696,63.4535759 C8.29470696,63.4535759 1.83739927,57.261606 0.182985348,57.2672483 C0.182985348,57.2672483 5.50842491,57.5100376 8.44373626,63.1242158 L8.29470696,63.4535759 Z" id="Path" fill="#FF826B" fill-rule="nonzero"></path>
                    <path d="M13.2768132,78.9071518 L13.0410073,78.9372647 C11.828022,69.4611041 10.0585348,63.8619824 8.0589011,63.1693852 L8.13813187,62.9454203 C10.2584982,63.6794228 12.0279853,69.1994981 13.2768132,78.9071518 Z" id="Path" fill="#444053" fill-rule="nonzero"></path>
                    <path d="M15.0538462,101.563363 L14.6991941,101.593476 C14.6237363,100.708908 14.5671429,99.8036386 14.5275275,98.902133 C14.1898535,91.0577164 13.6635348,83.8569636 12.9730952,78.45734 L13.1787179,78.2051443 C13.871044,83.6122961 14.5445055,91.0332497 14.8765201,98.8851945 C14.9236813,99.782936 14.9746154,100.68256 15.0538462,101.563363 Z" id="Path" fill="#444053" fill-rule="nonzero"></path>
                    <path d="M42.2677289,144.455458 C42.2054762,144.427227 35.9500183,141.641782 29.4549817,134.992472 C25.6520297,131.100613 22.4908107,126.632481 20.0887729,121.754078 C17.0874359,115.659975 15.2575824,108.167503 14.6444872,100.885822 L15.0217766,101.058971 C16.4007692,117.40276 23.8578938,128.576537 29.7888828,134.653701 C36.2197802,141.240903 42.4054396,144.001882 42.4676923,144.028231 L42.2677289,144.455458 Z" id="Path" fill="#444053" fill-rule="nonzero"></path>
                    <path d="M188.954066,25.270389 L188.954066,139.104768 C188.954066,142.492472 185.681081,145.242158 181.638425,145.242158 L26.8309341,145.242158 C22.7901648,145.242158 19.5171795,142.488708 19.5171795,139.104768 L19.5171795,25.270389 C19.5171795,21.8826851 22.7901648,18.4215809 26.8309341,18.4215809 L181.630879,18.7979925 C185.671648,18.7961104 188.954066,21.878921 188.954066,25.270389 Z" id="Path" fill="#E8EAF2" fill-rule="nonzero"></path>
                    <path d="M188.954066,25.304266 L188.954066,30.5740276 L19.5171795,30.5740276 L19.5171795,25.304266 C19.5171795,21.503064 22.6058489,18.4215786 26.4159158,18.4215786 L182.047784,18.4215786 C183.878596,18.4200829 185.634965,19.1444994 186.930253,20.4353615 C188.225541,21.7262236 188.954066,23.4777127 188.954066,25.304266 Z" id="Path" fill="#65617D" fill-rule="nonzero"></path>
                    <ellipse id="Oval" fill="#FA5959" fill-rule="nonzero" opacity="0.8" cx="27.7251099" cy="24.4968632" rx="2.43728938" ry="2.43161857"></ellipse>
                    <ellipse id="Oval" fill="#FED253" fill-rule="nonzero" opacity="0.8" cx="34.8200366" cy="24.4968632" rx="2.43728938" ry="2.43161857"></ellipse>
                    <ellipse id="Oval" fill="#8CCF4D" fill-rule="nonzero" opacity="0.8" cx="41.9130769" cy="24.4968632" rx="2.43728938" ry="2.43161857"></ellipse>
                    <path d="M54.2636447,67.9912171 L38.6570696,67.9912171 C38.4639205,67.9796021 38.280247,68.0758103 38.1801541,68.2410255 C38.0800612,68.4062407 38.0800612,68.6132072 38.1801541,68.7784224 C38.280247,68.9436376 38.4639205,69.0398458 38.6570696,69.0282309 L54.2636447,69.0282309 C54.4567938,69.0398458 54.6404672,68.9436376 54.7405602,68.7784224 C54.8406531,68.6132072 54.8406531,68.4062407 54.7405602,68.2410255 C54.6404672,68.0758103 54.4567938,67.9796021 54.2636447,67.9912171 L54.2636447,67.9912171 Z M54.2636447,69.7697616 L38.6570696,69.7697616 C38.3695174,69.7697616 38.1364103,70.0023264 38.1364103,70.2892095 C38.1364103,70.5760927 38.3695174,70.8086575 38.6570696,70.8086575 L54.2636447,70.8086575 C54.5511969,70.8086575 54.784304,70.5760927 54.784304,70.2892095 C54.784304,70.0023264 54.5511969,69.7697616 54.2636447,69.7697616 L54.2636447,69.7697616 Z M53.4807692,57.7659975 L39.4418315,57.7659975 C38.7220326,57.7670308 38.1384869,58.3483775 38.1364103,59.0664994 L38.1364103,65.6537014 C38.1384869,66.3718233 38.7220326,66.95317 39.4418315,66.9542033 L53.4807692,66.9542033 C54.1998315,66.9521358 54.7822318,66.3710906 54.784304,65.6537014 L54.784304,59.0664994 C54.7822318,58.3491101 54.1998315,57.7680649 53.4807692,57.7659975 L53.4807692,57.7659975 Z M41.183022,65.7741531 L39.8455311,65.7741531 C39.557979,65.7741531 39.3248719,65.5415883 39.3248719,65.2547051 C39.3248719,64.967822 39.557979,64.7352572 39.8455311,64.7352572 L41.183022,64.7352572 C41.4705742,64.7352572 41.7036812,64.967822 41.7036812,65.2547051 C41.7036812,65.5415883 41.4705742,65.7741531 41.183022,65.7741531 L41.183022,65.7741531 Z M41.183022,59.9905897 L39.8455311,59.9905897 C39.5579789,59.9905897 39.3248718,59.758025 39.3248718,59.4711418 C39.3248718,59.1842586 39.5579789,58.9516939 39.8455311,58.9516939 L41.183022,58.9516939 C41.4705742,58.9516939 41.7036813,59.1842586 41.7036813,59.4711418 C41.7036813,59.758025 41.4705742,59.9905897 41.183022,59.9905897 L41.183022,59.9905897 Z M46.4650733,65.3281054 C44.8231084,65.3281054 43.492033,64.0001269 43.492033,62.3619824 C43.492033,60.723838 44.8231084,59.3958595 46.4650733,59.3958595 C48.1070381,59.3958595 49.4381136,60.723838 49.4381136,62.3619824 C49.4360317,64.0007356 48.1038766,65.3281054 46.4613004,65.3281054 L46.4650733,65.3281054 Z M53.0808425,65.7741531 L51.7433516,65.7741531 C51.4557995,65.7741531 51.2226924,65.5415883 51.2226924,65.2547051 C51.2226924,64.967822 51.4557995,64.7352572 51.7433516,64.7352572 L53.0808425,64.7352572 C53.3683947,64.7352572 53.6015017,64.967822 53.6015017,65.2547051 C53.6015017,65.5415883 53.3683947,65.7741531 53.0808425,65.7741531 L53.0808425,65.7741531 Z M53.0808425,59.9905897 L51.7433516,59.9905897 C51.4557994,59.9905897 51.2226923,59.758025 51.2226923,59.4711418 C51.2226923,59.1842586 51.4557994,58.9516939 51.7433516,58.9516939 L53.0808425,58.9516939 C53.3683947,58.9516939 53.6015018,59.1842586 53.6015018,59.4711418 C53.6015018,59.758025 53.3683947,59.9905897 53.0808425,59.9905897 L53.0808425,59.9905897 Z" id="Shape" fill="#FFFFFF" fill-rule="nonzero"></path>
                    <ellipse id="Oval" fill="#FFFFFF" fill-rule="nonzero" cx="46.4613004" cy="62.4335006" rx="1.96945055" ry="1.96486826"></ellipse>
                    <rect id="Rectangle" fill="#FF826B" fill-rule="nonzero" opacity="0.2" x="76.2954579" y="44.6574655" width="70.8719231" height="39.2559598"></rect>
                    <rect id="Rectangle" fill="#FF826B" fill-rule="nonzero" opacity="0.2" x="76.2954579" y="92.6951066" width="70.8719231" height="39.2559598"></rect>
                    <rect id="Rectangle" fill="#FFFFFF" fill-rule="nonzero" x="90.2325275" y="71.9924718" width="2.14489011" height="7.1706399"></rect>
                    <rect id="Rectangle" fill="#FFFFFF" fill-rule="nonzero" x="94.316685" y="63.1148055" width="2.14489011" height="16.0483061"></rect>
                    <rect id="Rectangle" fill="#DFE3EF" fill-rule="nonzero" x="98.4027289" y="55.1160602" width="2.14489011" height="24.0470514"></rect>
                    <rect id="Rectangle" fill="#FFFFFF" fill-rule="nonzero" x="102.488773" y="49.4096612" width="2.14489011" height="29.7534504"></rect>
                    <rect id="Rectangle" fill="#FF826B" fill-rule="nonzero" x="98.4027289" y="49.4096612" width="2.14489011" height="29.7534504"></rect>
                    <rect id="Rectangle" fill="#FF826B" fill-rule="nonzero" x="106.57293" y="62.8080301" width="2.14489011" height="16.3550816"></rect>
                    <rect id="Rectangle" fill="#FF826B" fill-rule="nonzero" opacity="0.2" x="110.658974" y="58.5809285" width="2.14489011" height="20.5821832"></rect>
                    <rect id="Rectangle" fill="#FF826B" fill-rule="nonzero" x="114.743132" y="52.1612296" width="2.14489011" height="27.0018821"></rect>
                    <rect id="Rectangle" fill="#FF826B" fill-rule="nonzero" opacity="0.2" x="118.829176" y="67.1386449" width="2.14489011" height="12.0244668"></rect>
                    <rect id="Rectangle" fill="#FF826B" fill-rule="nonzero" x="122.91522" y="61.5865747" width="2.14489011" height="17.576537"></rect>
                    <rect id="Rectangle" fill="#FF826B" fill-rule="nonzero" opacity="0.2" x="126.999377" y="55.1160602" width="2.14489011" height="24.0470514"></rect>
                    <rect id="Rectangle" fill="#FF826B" fill-rule="nonzero" x="131.085421" y="55.1160602" width="2.14489011" height="24.0470514"></rect>
                    <path d="M54.7786447,107.576537 C54.7765736,106.922553 54.2456925,106.392907 53.5901832,106.390841 L39.3267582,106.390841 C38.6709397,106.392901 38.1395152,106.922248 38.1364103,107.576537 L38.1364103,109.356964 L54.7786447,109.356964 L54.7786447,107.576537 Z M38.1307509,117.067754 C38.1328221,117.722778 38.6645477,118.253266 39.3210989,118.255332 L53.5901832,118.255332 C54.2464266,118.253261 54.7776096,117.722473 54.7786447,117.067754 L54.7786447,111.143036 L38.1364103,111.143036 L38.1307509,117.067754 Z M43.4128022,115.28921 L49.5079121,115.28921 C49.7010612,115.277595 49.8847346,115.373803 49.9848276,115.539018 C50.0849205,115.704233 50.0849205,115.9112 49.9848276,116.076415 C49.8847346,116.24163 49.7010612,116.337838 49.5079121,116.326223 L43.4128022,116.326223 C43.1379148,116.309693 42.9234687,116.082462 42.9234687,115.807716 C42.9234687,115.532971 43.1379148,115.30574 43.4128022,115.28921 L43.4128022,115.28921 Z M40.7378205,115.28921 L41.183022,115.28921 C41.3761711,115.277595 41.5598445,115.373803 41.6599374,115.539018 C41.7600304,115.704233 41.7600304,115.9112 41.6599374,116.076415 C41.5598445,116.24163 41.3761711,116.337838 41.183022,116.326223 L40.7378205,116.326223 C40.5446714,116.337838 40.360998,116.24163 40.260905,116.076415 C40.1608121,115.9112 40.1608121,115.704233 40.260905,115.539018 C40.360998,115.373803 40.5446714,115.277595 40.7378205,115.28921 L40.7378205,115.28921 Z" id="Shape" fill="#FFFFFF" fill-rule="nonzero"></path>
                    <rect id="Rectangle" fill="#FFFFFF" fill-rule="nonzero" x="90.2325275" y="120.028231" width="2.14489011" height="7.1706399"></rect>
                    <rect id="Rectangle" fill="#FFFFFF" fill-rule="nonzero" x="94.316685" y="111.150565" width="2.14489011" height="16.0483061"></rect>
                    <rect id="Rectangle" fill="#DFE3EF" fill-rule="nonzero" x="98.4027289" y="103.151819" width="2.14489011" height="24.0470514"></rect>
                    <rect id="Rectangle" fill="#FFFFFF" fill-rule="nonzero" x="102.488773" y="97.4454203" width="2.14489011" height="29.7534504"></rect>
                    <rect id="Rectangle" fill="#FF826B" fill-rule="nonzero" x="98.4027289" y="97.4454203" width="2.14489011" height="29.7534504"></rect>
                    <rect id="Rectangle" fill="#FF826B" fill-rule="nonzero" x="106.57293" y="110.843789" width="2.14489011" height="16.3550816"></rect>
                    <rect id="Rectangle" fill="#FFFFFF" fill-rule="nonzero" x="110.658974" y="106.616688" width="2.14489011" height="20.5821832"></rect>
                    <rect id="Rectangle" fill="#FFFFFF" fill-rule="nonzero" x="114.743132" y="100.196989" width="2.14489011" height="27.0018821"></rect>
                    <rect id="Rectangle" fill="#FF826B" fill-rule="nonzero" opacity="0.2" x="118.829176" y="115.174404" width="2.14489011" height="12.0244668"></rect>
                    <rect id="Rectangle" fill="#FF826B" fill-rule="nonzero" opacity="0.2" x="122.91522" y="109.622334" width="2.14489011" height="17.576537"></rect>
                    <rect id="Rectangle" fill="#FF826B" fill-rule="nonzero" opacity="0.2" x="126.999377" y="103.151819" width="2.14489011" height="24.0470514"></rect>
                    <rect id="Rectangle" fill="#FF826B" fill-rule="nonzero" opacity="0.2" x="131.085421" y="103.151819" width="2.14489011" height="24.0470514"></rect>
                </g>
            </g>
        </g>
    </g>
</svg>