<?xml version="1.0" encoding="UTF-8"?>
<svg width="38px" height="40px" viewBox="0 0 38 40" version="1.1" xmlns="http://www.w3.org/2000/svg" xmlns:xlink="http://www.w3.org/1999/xlink">
    <!-- Generator: sketchtool 57.1 (101010) - https://sketch.com -->
    <title>CB62E5BE-C01F-4B42-B535-84E717C1117E</title>
    <desc>Created with sketchtool.</desc>
    <g id="Landing-Page" stroke="none" stroke-width="1" fill="none" fill-rule="evenodd">
        <g id="Landing-Page---Finance" transform="translate(-280.000000, -838.000000)">
            <g id="Section-2" transform="translate(3.000000, 780.000000)">
                <g id="Card/Feature/Left" transform="translate(249.000000, 0.000000)">
                    <g id="Card/Feature">
                        <g id="icons/arrow-right-icons/bank" transform="translate(24.000000, 56.000000)">
                            <g id="icons/bank">
                                <polygon id="Path" fill="#FF826B" fill-rule="nonzero" opacity="0.230840774" points="14.58 13 25 7.52 35.42 13"></polygon>
                                <polygon id="Path" points="0 0 48 0 48 48 0 48"></polygon>
                                <path d="M13,20 L9,20 L9,34 L13,34 L13,20 Z M25,20 L21,20 L21,34 L25,34 L25,20 Z M42,38 L4,38 L4,42 L42,42 L42,38 Z M37,20 L33,20 L33,34 L37,34 L37,20 Z M23,2 L4,12 L4,16 L42,16 L42,12 L23,2 Z M12.58,12 L23,6.52 L33.42,12 L12.58,12 Z" id="Shape" fill="#3F3D56" fill-rule="nonzero"></path>
                            </g>
                        </g>
                    </g>
                </g>
            </g>
        </g>
    </g>
</svg>