<?xml version="1.0" encoding="UTF-8"?>
<svg width="40px" height="40px" viewBox="0 0 40 40" version="1.1" xmlns="http://www.w3.org/2000/svg" xmlns:xlink="http://www.w3.org/1999/xlink">
    <!-- Generator: sketchtool 57.1 (101010) - https://sketch.com -->
    <title>26713C28-551C-4687-A003-345A5FF27AF6</title>
    <desc>Created with sketchtool.</desc>
    <g id="Landing-Page" stroke="none" stroke-width="1" fill="none" fill-rule="evenodd">
        <g id="Landing-Page---Finance" transform="translate(-280.000000, -1160.000000)">
            <g id="Section-2" transform="translate(3.000000, 780.000000)">
                <g id="Card/No-button-Copy-2-Card/Feature/Left" transform="translate(249.000000, 320.000000)">
                    <g id="Card/Feature">
                        <g id="icons/arrow-right-icons/child" transform="translate(24.000000, 56.000000)">
                            <g id="icons/child">
                                <path d="M37,17 C37.92,17 38.82,16.9 39.68,16.76 C36.88,12.12 31.8,9 26,9 C25.08,9 24.18,9.1 23.32,9.24 C26.12,13.88 31.2,17 37,17 Z M18.16,11.06 C14.74,13 12.1,16.16 10.84,19.94 C14.26,18 16.9,14.84 18.16,11.06 Z" id="Shape" fill="#FF826B" fill-rule="nonzero" opacity="0.230840774"></path>
                                <polygon id="Path" points="0 0 48 0 48 48 0 48"></polygon>
                                <path d="M24,4 C12.96,4 4,12.96 4,24 C4,35.04 12.96,44 24,44 C35.04,44 44,35.04 44,24 C44,12.96 35.04,4 24,4 Z M24,8 C29.8,8 34.88,11.12 37.68,15.76 C36.82,15.9 35.92,16 35,16 C29.2,16 24.12,12.88 21.32,8.24 C22.18,8.1 23.08,8 24,8 Z M16.16,10.06 C14.9,13.84 12.26,17 8.84,18.94 C10.1,15.16 12.74,12 16.16,10.06 Z M24,40 C15.18,40 8,32.82 8,24 C8,23.9 8.02,23.8 8.02,23.7 C13.22,21.74 17.38,17.72 19.5,12.6 C23.16,17.12 28.74,20 35,20 C36.5,20 37.94,19.82 39.34,19.52 C39.76,20.94 40,22.44 40,24 C40,32.82 32.82,40 24,40 Z" id="Shape" fill="#3F3D56" fill-rule="nonzero"></path>
                                <circle id="Oval" fill="#3F3D56" fill-rule="nonzero" cx="18" cy="26" r="2.5"></circle>
                                <circle id="Oval" fill="#3F3D56" fill-rule="nonzero" cx="30" cy="26" r="2.5"></circle>
                            </g>
                        </g>
                    </g>
                </g>
            </g>
        </g>
    </g>
</svg>