<?xml version="1.0" encoding="UTF-8"?>
<svg width="36px" height="42px" viewBox="0 0 36 42" version="1.1" xmlns="http://www.w3.org/2000/svg" xmlns:xlink="http://www.w3.org/1999/xlink">
    <!-- Generator: sketchtool 57.1 (101010) - https://sketch.com -->
    <title>8B9573A1-9053-406E-AEF0-461E42A55674</title>
    <desc>Created with sketchtool.</desc>
    <g id="Landing-Page" stroke="none" stroke-width="1" fill="none" fill-rule="evenodd">
        <g id="Landing-Page---Recommendations" transform="translate(-282.000000, -1000.000000)">
            <g id="Section-2" transform="translate(3.000000, 780.000000)">
                <g id="Card/No-button-Copy-4-Card/Feature/Left" transform="translate(249.000000, 160.000000)">
                    <g id="Card/Feature">
                        <g id="icons/arrow-right-icons/goal" transform="translate(24.000000, 56.000000)">
                            <g id="twotone-assistant-24px">
                                <polygon id="Path" points="0 0 48 0 48 48 0 48"></polygon>
                                <path d="M21.66,37 L22.84,38.18 L26,41.34 L29.18,38.16 L30.34,37 L40,37 L40,9 L12,9 L12,37 L21.66,37 Z M22.24,19.24 L26,11 L29.76,19.24 L38,23 L29.76,26.76 L26,35 L22.24,26.76 L14,23 L22.24,19.24 L22.24,19.24 Z" id="Shape" fill="#FF826B" fill-rule="nonzero" opacity="0.26"></path>
                                <path d="M10,40 L18,40 L24,46 L30,40 L38,40 C40.2,40 42,38.2 42,36 L42,8 C42,5.8 40.2,4 38,4 L10,4 C7.8,4 6,5.8 6,8 L6,36 C6,38.2 7.8,40 10,40 Z M10,8 L38,8 L38,36 L28.34,36 L27.16,37.18 L24,40.34 L20.82,37.16 L19.66,36 L10,36 L10,8 Z M24,34 L27.76,25.76 L36,22 L27.76,18.24 L24,10 L20.24,18.24 L12,22 L20.24,25.76 L24,34 Z" id="Shape" fill="#3F3D56" fill-rule="nonzero"></path>
                            </g>
                        </g>
                    </g>
                </g>
            </g>
        </g>
    </g>
</svg>