<?xml version="1.0" encoding="UTF-8"?>
<svg width="207px" height="139px" viewBox="0 0 207 139" version="1.1" xmlns="http://www.w3.org/2000/svg" xmlns:xlink="http://www.w3.org/1999/xlink">
    <!-- Generator: sketchtool 58 (101010) - https://sketch.com -->
    <title>FEB85097-8BB2-45A0-862E-9B2B8A3BF14B</title>
    <desc>Created with sketchtool.</desc>
    <defs>
        <linearGradient x1="49.9751544%" y1="99.9103912%" x2="49.9751544%" y2="-0.152727023%" id="linearGradient-1">
            <stop stop-color="#808080" stop-opacity="0.25" offset="0%"></stop>
            <stop stop-color="#808080" stop-opacity="0.12" offset="54%"></stop>
            <stop stop-color="#808080" stop-opacity="0.1" offset="100%"></stop>
        </linearGradient>
        <linearGradient x1="50.020782%" y1="100.163922%" x2="50.020782%" y2="0.171521297%" id="linearGradient-2">
            <stop stop-color="#808080" stop-opacity="0.25" offset="0%"></stop>
            <stop stop-color="#808080" stop-opacity="0.12" offset="54%"></stop>
            <stop stop-color="#808080" stop-opacity="0.1" offset="100%"></stop>
        </linearGradient>
    </defs>
    <g id="Family-&amp;-Network" stroke="none" stroke-width="1" fill="none" fill-rule="evenodd">
        <g id="Family-&amp;-Access---Empty-state" transform="translate(-469.000000, -220.000000)">
            <g id="Card/Insurance" transform="translate(156.000000, 160.000000)">
                <g id="illustration" transform="translate(313.000000, 60.000000)">
                    <polygon id="Path" fill="#FFFFFF" fill-rule="nonzero" points="206.851707 139.600008 0.400027769 139 0.744732396 0.30000186 206.851707 0.30000186"></polygon>
                    <path d="M20.0000048,37.1000044 L195.700017,37.1000044" id="Path" stroke="#E0E0E0" stroke-width="0.700000048" opacity="0.7" stroke-linecap="round"></path>
                    <path d="M20.0000048,70.0000067 L195.700017,70.0000067" id="Path" stroke="#E0E0E0" stroke-width="0.700000048" opacity="0.7" stroke-linecap="round"></path>
                    <path d="M20.0000048,102.200009 L195.700017,102.200009" id="Path" stroke="#E0E0E0" stroke-width="0.700000048" opacity="0.7" stroke-linecap="round"></path>
                    <path d="M52.200007,21.0033701 C52.2012519,25.4404714 49.8683327,29.5511269 46.0581956,31.8253773 L45.8866216,31.9272441 L45.5622397,32.1068514 L45.5622397,32.1068514 L45.2539427,32.2676937 L45.2056876,32.29182 C45.0770071,32.3561569 44.9456458,32.4178132 44.8116037,32.4767887 C44.3847127,32.6714624 43.9470181,32.8415191 43.5006715,32.9861227 C43.2084597,33.0799474 42.913567,33.1657299 42.6159934,33.238109 C42.0053555,33.3874537 41.3843175,33.4905067 40.7581693,33.5463901 C40.3774897,33.5812393 39.9941291,33.6000042 39.6054069,33.6000042 C39.1424083,33.5994261 38.6797641,33.5743712 38.2194112,33.5249444 L38.1389859,33.5249444 C37.9808162,33.5088602 37.8226465,33.4874146 37.6644767,33.4632882 C37.1617195,33.3843625 36.6640175,33.2760552 36.1739281,33.1389229 L35.9299714,33.0665438 L35.715504,32.9995262 L35.6458021,32.9753999 C35.2078572,32.8313885 34.7782593,32.6631379 34.3589975,32.4714273 L34.3589975,32.4714273 C33.6386493,32.1427021 32.951829,31.7449952 32.3081528,31.2838748 L32.2759827,31.2624292 L32.2545359,31.246345 L32.0239835,31.0774605 L31.8497287,30.9434253 C31.5091486,30.6782315 31.1833829,30.3945436 30.8739019,30.0936417 C30.5843709,29.8148483 30.3091377,29.5226515 30.0482023,29.2170511 C26.4050154,24.9823191 25.9853044,18.8544161 29.0170927,14.1625501 C32.048881,9.47068413 37.808247,7.33516531 43.1662039,8.91619255 C48.5241608,10.4972198 52.2013511,15.41728 52.200007,21.0033701 L52.200007,21.0033701 Z" id="Path" fill="#434175" fill-rule="nonzero"></path>
                    <path d="M45.1973609,32.0397961 L45.1973609,32.0397961 L44.8825411,32.1376488 C44.7056522,32.1480759 44.5315548,32.0887753 44.3957608,31.9718427 L44.2925846,31.8712718 C44.2310371,31.7955974 44.1442707,31.7461789 44.0491945,31.7326471 L44.022739,31.7326471 C43.9869713,31.7403441 43.9500394,31.7403441 43.9142717,31.7326471 C43.9074669,31.7353762 43.8999121,31.7353762 43.8931073,31.7326471 C43.8567885,31.7087619 43.8340811,31.6681872 43.8322598,31.6239218 C43.7685147,31.3802865 43.7216593,31.1323149 43.6920459,30.8818715 C43.6764826,30.6102935 43.6764826,30.3380098 43.6920459,30.0664317 C43.6920459,29.8516993 43.6920459,29.6342487 43.6920459,29.4195162 C43.7268676,29.176387 43.747188,28.9312978 43.7528934,28.6856204 C43.7652196,28.4243194 43.7411669,28.1625488 43.6814637,27.9082344 C43.6454748,27.7675796 43.5958428,27.630989 43.5333132,27.5005145 L43.5333132,27.5005145 C43.4909845,27.1335666 43.4407191,26.7666187 43.3904538,26.4132615 C43.3534161,26.1414482 43.313733,25.8696349 43.2661132,25.5978217 C43.2774697,25.5530803 43.2863029,25.5077026 43.2925686,25.461915 C43.3509757,25.0109845 43.1789792,24.560976 42.8375349,24.2713729 C42.7352535,24.1834974 42.6212112,24.1111807 42.4989051,24.0566405 C42.3983744,24.0131503 42.2951982,23.9778146 42.1920219,23.9424789 L40.5306197,23.3988524 C40.3745326,23.1623748 40.2263821,22.920461 40.0835227,22.6731109 C39.9499459,22.4516388 39.8331957,22.2199101 39.7343107,21.9799871 C40.8544979,21.1064673 41.1504127,19.5041259 40.4195069,18.269736 C40.3930514,18.2262459 40.3613049,18.1854739 40.3322039,18.1447019 L40.3322039,18.1447019 C40.3447148,17.9309237 40.3205366,17.7165505 40.2607742,17.511377 C40.2619213,17.5060046 40.2619213,17.5004406 40.2607742,17.4950682 C40.2291909,17.3243599 40.1501694,17.166701 40.0332573,17.0411401 L39.9777009,16.978623 C39.9524659,16.9467655 39.9250596,16.9167906 39.895689,16.8889247 C39.7838919,16.7735733 39.663604,16.667251 39.5358949,16.5709031 C38.9856215,16.1468744 38.2475145,15.6304292 37.5755461,15.4591869 C37.2430538,15.3803116 36.8974402,15.3803116 36.5649479,15.4591869 L36.5649479,15.4591869 L36.512037,15.44016 L36.4141519,15.421133 L36.4908727,15.4591869 C36.1359166,15.3742838 35.7660404,15.3808199 35.4141359,15.4782138 C34.977621,15.6168386 34.8241794,15.9837865 34.6389912,16.3860701 C34.3429195,17.0307961 33.8866676,17.5839452 33.3162188,17.9897684 C32.9537791,18.2452728 32.5225553,18.4681597 32.3479494,18.8921884 C32.1733434,19.3162171 32.297684,19.7429639 32.3320761,20.1724289 C32.4308651,21.3432541 31.9605763,22.4886747 31.0754423,23.2330463 C30.5807254,23.6407662 29.9219847,23.9805327 29.8135174,24.6328846 C29.7394421,25.0976853 29.9854778,25.543459 30.1733115,25.9702058 C30.5674977,26.8780621 30.7024204,27.9843421 30.2394501,28.8514265 C30.1944758,28.9329704 30.146856,29.0117963 30.1018817,29.087904 C30.3532085,29.4032074 30.6309907,29.702202 30.8955452,29.990324 C31.1968987,30.2982046 31.5139272,30.5894535 31.8452958,30.8628446 L32.0146107,31.0014694 L32.239482,31.1727117 L32.2606464,31.1917387 L32.2923929,31.2134837 C32.9170745,31.686011 33.5851556,32.0947628 34.2871338,32.4339253 C34.2895978,32.4176465 34.29498,32.4019786 34.303007,32.387717 C34.3003992,32.4057389 34.3003992,32.4240578 34.303007,32.4420797 C34.710163,32.6386793 35.127964,32.8111111 35.5543498,32.9585249 L35.6204884,32.9829881 L35.8294865,33.0536595 L36.0675855,33.1270491 C36.543968,33.2678916 37.0280737,33.3795317 37.5173441,33.4613794 C37.6707857,33.4858426 37.8242273,33.5075877 37.9803145,33.5238965 L38.0570353,33.5238965 C38.5051318,33.5740102 38.9555202,33.5994159 39.4062632,33.6000042 C39.7845761,33.6000042 40.1575979,33.5809773 40.5279742,33.5456415 C41.1374346,33.4882703 41.7415848,33.381938 42.3348814,33.22762 C42.4063111,33.2113112 42.4777408,33.1895662 42.5491705,33.1678211 C42.7661052,33.1080222 42.9803943,33.042787 43.1946835,32.9693974 C43.629194,32.8209038 44.0549593,32.6466509 44.4698361,32.447516 C44.5994678,32.3849989 44.7343906,32.3224819 44.8534401,32.2572467 L44.9010599,32.2327835 L45.2000065,32.0669774 L45.2000065,32.0669774 C45.1930045,32.0596877 45.1919025,32.048366 45.1973609,32.0397961 L45.1973609,32.0397961 Z M34.5966625,31.6646937 C34.5980418,31.6420648 34.5980418,31.6193694 34.5966625,31.5967404 C34.590008,31.5244181 34.590008,31.4516121 34.5966625,31.3792898 C34.6048797,31.3366415 34.6210501,31.2960293 34.6442823,31.259692 C34.6442823,31.3031821 34.6442823,31.3466722 34.6442823,31.3901624 C34.6455664,31.4839533 34.6294036,31.5771331 34.5966625,31.6646937 Z" id="Shape" fill="url(#linearGradient-1)" fill-rule="nonzero"></path>
                    <path d="M45.9000065,32.1118291 L45.9000065,32.1118291 L45.5698956,32.207157 C45.3862757,32.2173008 45.2053526,32.1606539 45.0624524,32.0482771 C45.0269859,32.0191492 44.9887913,31.9820772 44.9533248,31.9503012 C44.8887306,31.8769905 44.7982333,31.8297661 44.6996032,31.8179013 L44.6723213,31.8179013 C44.6345573,31.8257742 44.5955014,31.8257742 44.5577374,31.8179013 C44.55072,31.82056 44.5429292,31.82056 44.5359118,31.8179013 C44.4986901,31.7940373 44.4746133,31.7550888 44.4704353,31.7119813 C44.4047101,31.4782148 44.3563875,31.2401638 44.3258413,30.9996698 C44.3093649,30.7351114 44.3093649,30.4698286 44.3258413,30.2052703 C44.3258413,29.9987264 44.3258413,29.7895345 44.3258413,29.5829906 L44.3258413,29.5829906 C44.3617517,29.3487994 44.3827078,29.112677 44.3885896,28.8759751 C44.4011965,28.6249194 44.3763868,28.3734123 44.3149285,28.1292395 C44.2752674,27.9943555 44.2232234,27.8631956 44.1594217,27.7373358 L44.1594217,27.7373358 C44.1157707,27.385152 44.0612069,27.0329682 44.0093713,26.6781364 C43.9711766,26.4133366 43.9302538,26.1485367 43.8784182,25.8837369 C43.8784182,25.8413689 43.9002437,25.7990009 43.9084283,25.753985 C43.9678864,25.3176807 43.7865429,24.8831796 43.4309951,24.6100496 C43.3234742,24.5252102 43.2040539,24.4556642 43.0763305,24.4035058 C42.9726593,24.3611378 42.8635317,24.3267138 42.7544042,24.2922898 L41.0165475,23.7626902 C40.8555844,23.5349623 40.7000776,23.3019384 40.5500271,23.0662666 C40.4095255,22.853939 40.2872542,22.6307548 40.1844498,22.398971 C41.3591186,21.582089 41.6737779,20.0178765 40.9019636,18.8321171 C40.8746817,18.7897492 40.8419434,18.7526772 40.8119333,18.7129572 L40.8119333,18.7129572 C40.8248431,18.5073089 40.7998996,18.301073 40.7382722,18.1039176 C40.7394552,18.0986838 40.7394552,18.0932634 40.7382722,18.0880296 C40.7249156,18.0243966 40.7048015,17.9622782 40.678252,17.9026697 C40.6316232,17.8111397 40.5719242,17.726452 40.5009197,17.6511099 L40.4408996,17.5902059 C40.4148317,17.5600344 40.3865679,17.5317165 40.3563257,17.50547 C40.2358004,17.3999616 40.107207,17.3034745 39.971651,17.2168381 C39.396003,16.8090464 38.6239254,16.3138707 37.9200526,16.1576388 C37.5725691,16.0807911 37.2117267,16.0807911 36.8642433,16.1576388 L36.8642433,16.1576388 L36.8096795,16.1417508 L36.7087365,16.1232148 L36.787854,16.1602868 C36.4162875,16.0776354 36.0295791,16.0839971 35.6611118,16.1788228 C35.2055041,16.3112227 35.044541,16.6634065 34.8426549,17.0500142 C34.5349025,17.6708405 34.064502,18.2022924 33.4785602,18.5911493 C33.0993419,18.8374131 32.6601034,19.051901 32.466402,19.4596928 C32.2727005,19.8674845 32.4118382,20.2779243 32.4500328,20.691012 C32.5476163,21.823623 32.0538393,22.9283148 31.1350456,23.6329382 C30.6166896,24.024842 29.9264577,24.3505458 29.8146019,24.9781214 C29.7354844,25.4256332 29.9946624,25.8546089 30.191092,26.2650486 C30.6030486,27.1362401 30.7367299,28.2007355 30.2592968,29.034855 C30.2129175,29.1116469 30.1638101,29.1884389 30.1147027,29.2625828 C30.3784277,29.5644546 30.6585218,29.8530865 30.9549851,30.1284783 C31.2699319,30.4257089 31.6014509,30.7059356 31.948046,30.9678938 L32.1253783,31.1002937 L32.3600026,31.2671176 L32.3818281,31.2830056 L32.4145664,31.3041896 C33.0696106,31.7596839 33.7685609,32.1525385 34.5016313,32.4772529 C34.5046432,32.4623507 34.5101743,32.4480348 34.5180004,32.4348849 C34.5370413,32.3877865 34.5589042,32.3418093 34.5834769,32.297189 C34.6981978,32.1371519 34.7805913,31.9574403 34.8262858,31.7675893 C34.8277081,31.7455442 34.8277081,31.7234344 34.8262858,31.7013893 C34.8194488,31.6318166 34.8194488,31.5617702 34.8262858,31.4921975 C34.8352767,31.4516271 34.8519262,31.4130223 34.8753932,31.3783335 C34.9054033,31.3253736 34.9490543,31.2750616 34.9845208,31.2221016 C35.0044041,31.1945042 35.0217494,31.1652637 35.0363564,31.1347177 L35.0363564,31.1347177 C35.0663665,31.1744377 35.0936484,31.2141576 35.1209303,31.2565256 C35.2191451,31.4021655 35.3146317,31.5478054 35.4101183,31.6960934 C35.4883952,31.7943882 35.5374567,31.9116053 35.5519842,32.0350371 C35.5368458,32.1075617 35.5368458,32.1822965 35.5519842,32.254821 C35.592907,32.347501 35.7293165,32.4242929 35.6774809,32.5196209 C35.6268474,32.6179782 35.6268474,32.7337273 35.6774809,32.8320847 C35.712333,32.8847084 35.7506052,32.9351225 35.7920648,32.9830206 L35.8629978,33.0068526 L36.0812529,33.0730525 L36.3295182,33.1445485 C36.828263,33.2800077 37.334755,33.3869935 37.8463915,33.4649563 C38.0073546,33.4887883 38.1683178,33.5099723 38.329281,33.5258602 L38.4111267,33.5258602 C38.8796099,33.5746839 39.3504249,33.5994331 39.8216006,33.600003 C40.217188,33.600003 40.6073191,33.5814682 40.994722,33.5470442 C41.6319286,33.4918427 42.2639348,33.390047 42.8853573,33.2425244 C42.9617466,33.2266364 43.0354077,33.2054524 43.111797,33.1842684 C43.3382367,33.1260125 43.5619482,33.0651085 43.7856598,32.9936126 C44.2398893,32.8507732 44.6853141,32.6827914 45.1197444,32.4904929 C45.2561538,32.4322369 45.3898351,32.3713329 45.5207882,32.307781 L45.5698956,32.283949 L45.8836374,32.1250691 L45.8836374,32.1250691 L45.9000065,32.1118291 Z" id="Path" fill="#FF826B" fill-rule="nonzero" opacity="0.3"></path>
                    <path d="M52.200007,53.1989104 C52.2033385,55.3139321 51.6721569,57.3954674 50.6558265,59.2500114 C50.4430033,59.6401345 50.2085093,60.018026 49.953446,60.3819106 C49.7000179,60.7551228 49.4252192,61.1133515 49.1304276,61.4548009 C49.1138372,61.4772511 49.094971,61.4979248 49.07413,61.5164921 C48.9615346,61.6506034 48.8408968,61.7847146 48.717578,61.908097 L48.5808551,62.0529372 C48.4414514,62.1950952 48.2993668,62.3211598 48.1519205,62.4659999 C48.1353775,62.4843346 48.1174526,62.5013721 48.0983036,62.5169622 C48.0312826,62.5786534 47.9615807,62.6430268 47.889198,62.7020358 C47.5133282,63.0325765 47.1176128,63.3398174 46.704266,63.6220392 C46.4924795,63.7668794 46.2780122,63.9063551 46.0581832,64.0377842 L45.8866093,64.1397087 L45.5622275,64.3194178 L45.5622275,64.3194178 L45.3423985,64.4347535 L45.2539307,64.4803514 L45.2056756,64.5044914 C45.1198886,64.547407 45.0305273,64.5876404 44.9375914,64.6251916 C44.8920171,64.6493316 44.8464428,64.6681072 44.8008685,64.689565 L44.5327843,64.8022185 C44.2968703,64.904143 44.0555945,65.0007032 43.811638,65.0865344 L43.811638,65.0865344 L43.4845753,65.1965056 L43.4470435,65.1965056 C43.4210296,65.206997 43.3941083,65.2150775 43.3666183,65.2206457 L43.3049589,65.2421035 L43.1226617,65.295748 L43.0610023,65.3145236 L42.9832579,65.3359814 L42.8706626,65.3654858 C42.845494,65.3751118 42.8194597,65.3822973 42.7929182,65.3869436 L42.6025784,65.4379059 L42.6025784,65.4379059 C42.4631747,65.4727749 42.32109,65.5049616 42.1790054,65.5317838 C41.7056462,65.6319704 41.2267007,65.7036254 40.7447552,65.7463619 C40.3801608,65.7785486 40.0155663,65.7973242 39.6429293,65.8000064 L39.5571424,65.8000064 C39.2032713,65.8000064 38.8574427,65.783913 38.5116142,65.7544086 L38.2059982,65.7249041 L38.125573,65.7249041 L38.0773178,65.7249041 L37.651064,65.6685773 L37.3105972,65.6095684 L37.2248102,65.593475 C37.0666406,65.5639705 36.9084709,65.5317838 36.7529821,65.4915504 C36.7406249,65.4943221 36.7278076,65.4943221 36.7154503,65.4915504 C36.5277914,65.4513171 36.3428133,65.403037 36.1605161,65.3520747 L35.9165595,65.2796546 L35.7020922,65.212599 L35.6323903,65.1884589 L35.6323903,65.1884589 C35.1984239,65.0440734 34.7724593,64.8766438 34.3563097,64.6868828 L34.3563097,64.6868828 C34.0685661,64.5545596 33.7870777,64.4124017 33.5118446,64.2604089 L33.3885259,64.190671 L33.2062287,64.0860642 L33.1070376,64.0270553 C32.8389534,63.8607573 32.5708693,63.6837304 32.3027851,63.4906101 L32.270615,63.4691523 L32.2491683,63.453059 L32.0186159,63.2840788 L31.8443612,63.1499675 C31.5037812,62.8846233 31.1780157,62.6007745 30.8685349,62.299702 C30.579004,62.0207505 30.3037709,61.7283879 30.0428357,61.4226142 C26.4040114,57.1849579 25.9869078,51.0565393 29.0179693,46.364458 C32.0490307,41.6723768 37.8051745,39.5359644 43.1614078,41.1150726 C48.5176411,42.6941809 52.196194,47.6121015 52.200007,53.1989104 Z" id="Path" fill="#434175" fill-rule="nonzero"></path>
                    <path d="M45.0901525,64.4672387 C45.0702657,64.4393776 45.0472401,64.4137105 45.0214937,64.3907036 C45.0023621,64.3726389 44.981173,64.3567035 44.9583276,64.343199 C44.7717177,64.2077478 44.6777872,63.9846237 44.7139024,63.7625873 C44.7153844,63.7397369 44.7153844,63.71682 44.7139024,63.6939696 C44.6396293,63.4234153 44.5327121,63.1621278 44.3953258,62.9154221 C44.326667,62.7755475 44.2415301,62.5617769 44.1673787,62.3612019 C44.06851,62.0972875 43.9888659,61.8571254 43.9888659,61.8571254 C43.9888659,61.8571254 43.9888659,61.8333732 43.9751341,61.7885077 C43.9421779,61.6222416 43.8515483,61.1551132 43.7719042,60.7170153 C43.7719042,60.6906239 43.7719042,60.6668716 43.7719042,60.6404801 C43.6702892,60.0757033 42.6980811,58.5793088 42.6980811,58.5793088 L42.6980811,58.5793088 C42.6902317,58.5588183 42.6758048,58.5412575 42.6568858,58.529165 C42.4399241,58.4315167 41.6984095,58.0224494 41.6984095,58.0224494 C41.1491394,57.354746 40.6273328,57.1911191 40.2675608,57.1832017 L40.2208729,57.1832017 L40.1329896,57.1832017 C40.1028011,57.1816604 40.0725486,57.1816604 40.0423601,57.1832017 C39.9939996,57.1915014 39.9462853,57.2029644 39.8995498,57.2175105 L39.8473692,57.2333454 C39.8228403,57.2412794 39.7989706,57.2509839 39.7759641,57.262376 L39.759486,57.391694 C39.7303279,57.0713402 39.7563086,56.7485586 39.8363838,56.4363239 L39.8638473,56.346593 C39.916028,56.346593 39.9682086,56.346593 40.0231356,56.346593 C40.8619549,56.3350197 41.6472954,55.9486224 42.147446,55.3014061 C42.6475965,54.6541898 42.8054733,53.8200235 42.5744953,53.0450241 C42.5744953,53.0318283 42.5744953,53.0212718 42.5744953,53.0080761 L42.6541395,52.971128 C42.9782089,52.8523666 43.3956541,53.0555806 43.6620502,52.8391708 C43.7583328,52.7452532 43.8274384,52.6288118 43.8625337,52.5013604 C43.9366145,52.3282781 43.9855915,52.1462335 44.0080903,51.9603359 C44.0135844,51.904158 44.0135844,51.8476087 44.0080903,51.7914307 L44.0080903,51.7571219 C44.0080903,51.7571219 44.0080903,51.7571219 44.0080903,51.7703176 C43.9965575,51.6478257 43.9478556,51.5312827 43.8680264,51.4351463 C43.6950064,51.2372105 43.4038932,51.1870668 43.1814388,51.0419139 C43.0023409,50.9035697 42.8538683,50.7321781 42.7447691,50.5378374 C42.6365698,50.3436439 42.4922981,50.1701204 42.3190847,50.0258435 C42.1429303,49.8805396 41.8971199,49.8418492 41.6819314,49.925556 C41.617211,49.9685679 41.5458478,50.0015207 41.4704624,50.0232043 C41.3892218,50.0237215 41.3094034,50.0027196 41.2397689,49.962504 C40.4845225,49.6167762 39.6056903,49.6774765 38.7680534,49.7804031 C38.4346299,49.8074261 38.1075871,49.883992 37.7985916,50.0073695 C37.4853233,50.1381627 37.2467498,50.3934317 37.1449602,50.7067426 C37.0763014,50.9548221 37.1284821,51.2345714 37.0460916,51.4694552 C36.9911646,51.6357212 36.8785642,51.7808742 36.8153981,51.9418619 C36.7822049,52.0311528 36.7618766,52.1243868 36.7549784,52.218972 C36.7549784,52.218972 36.7549784,52.218972 36.7549784,52.2031372 C36.7549784,52.1873023 36.7549784,52.2400852 36.7549784,52.2585592 L36.7549784,52.3878772 C36.7971166,52.7124657 36.860407,53.0341936 36.9444766,53.3511648 C37.0433452,53.8657978 36.9939109,54.4226572 37.2191117,54.9082596 C37.2422889,54.9673136 37.2717389,55.0239145 37.3069949,55.0771648 C37.2273507,55.2434309 37.1449602,55.409697 37.0598233,55.5680456 L37.0598233,55.5680456 C37.0182483,55.557028 36.9760739,55.5482176 36.9334912,55.5416542 L36.8868033,55.5416542 L36.8346226,55.5416542 C36.8017909,55.5377616 36.7685857,55.5377616 36.735754,55.5416542 L36.735754,55.5416542 C36.711721,55.5486031 36.6886633,55.5583524 36.6670952,55.5706848 L36.6396317,55.594437 L36.6204072,55.6076328 C36.6109133,55.6176466 36.6034606,55.6292845 36.5984364,55.6419416 C36.5970175,55.6480242 36.5970175,55.6543331 36.5984364,55.6604156 C36.5837486,55.6922146 36.5744758,55.7260757 36.5709729,55.7607031 L36.5709729,55.7607031 C36.5709729,55.7607031 36.5709729,55.7791771 36.5709729,55.7870945 C36.5709729,55.8425166 36.5709729,55.8979386 36.5544948,55.9559998 C36.5380167,56.0140609 36.5544948,56.0219784 36.5407631,56.0536481 C36.5377429,56.0811396 36.5331588,56.1084516 36.5270313,56.1354615 L36.5270313,56.1565747 C36.5270313,56.1882444 36.5132996,56.2225533 36.5050605,56.254223 L36.4638653,56.3729845 L36.4473872,56.4072934 C36.4309091,56.4416022 36.4144309,56.4759111 36.3952065,56.5075808 L36.3952065,56.5075808 L36.3018306,56.5999509 C36.26323,56.6190562 36.2404513,56.6586657 36.2441572,56.7002383 L36.2441572,56.7002383 L36.2441572,56.7002383 L36.202962,56.7319081 C36.182343,56.7347375 36.1626403,56.7419503 36.1452886,56.7530212 C36.1260641,56.7107949 36.0491663,56.7107949 35.8102338,56.9905442 C35.4898933,57.3157919 35.1193774,57.5917325 34.7116936,57.8086788 C34.7116936,57.8086788 33.0995858,58.9118409 33.0117026,59.4211957 C32.9238193,59.9305504 32.4047591,62.1315964 32.6793941,62.8679176 C32.7150967,62.9629267 32.7837555,63.1107188 32.874385,63.2901806 L32.874385,63.3060154 C32.874385,63.3060154 32.9540292,63.5989604 33.0803613,64.03178 C33.1133175,64.050254 33.1462737,64.0740063 33.1819763,64.0924803 L33.3687281,64.1954069 L33.4950603,64.2666638 C33.7696953,64.417095 34.0663012,64.5596088 34.3601607,64.691566 L34.3601607,64.691566 C34.786386,64.8800276 35.2227589,65.0465297 35.6674236,65.1903642 L35.6674236,65.1903642 L35.7388287,65.2141165 L35.9585368,65.2827342 L36.2084547,65.3539911 C36.3952065,65.4041348 36.5847047,65.4516394 36.7769492,65.4938657 C36.7896084,65.4965929 36.8027389,65.4965929 36.8153981,65.4938657 C36.9746865,65.5334529 37.1367212,65.5651226 37.2987558,65.5941532 L37.3866391,65.609988 L37.7354256,65.6706883 L38.1720953,65.7261104 L38.2215296,65.7261104 L38.3039202,65.7261104 L38.6170041,65.7551409 C38.9712833,65.7841715 39.3255626,65.8000064 39.6880809,65.8000064 L39.7759641,65.8000064 C40.1577068,65.8000064 40.5312105,65.7788932 40.9047142,65.7472235 C41.3984916,65.7042961 41.8891407,65.6329107 42.3740117,65.5334529 C42.5195683,65.5070614 42.6651249,65.4753917 42.8079351,65.4384437 L42.8079351,65.4384437 L43.002926,65.3882999 C43.0301161,65.3837283 43.0567866,65.3766581 43.0825702,65.3671868 L43.1979169,65.3381562 L43.2775611,65.3170431 L43.3407271,65.2985691 L43.527479,65.2457862 L43.590645,65.2220339 C43.6188069,65.2165552 43.646386,65.2086044 43.6730356,65.1982816 L43.7114845,65.1982816 L44.0465392,65.0900767 L44.0465392,65.0900767 C44.2964571,65.0029849 44.5436287,64.9079758 44.7853075,64.8050492 L45.0599426,64.6942051 C45.1066306,64.673092 45.1533185,64.654618 45.2000065,64.6282265 C45.1703391,64.5704697 45.1334485,64.5164076 45.0901525,64.4672387 L45.0901525,64.4672387 Z" id="Shape" fill="url(#linearGradient-2)" fill-rule="nonzero"></path>
                    <path d="M45.0764207,64.4971875 C45.0557879,64.4702319 45.0328165,64.4450672 45.0077619,64.4219732 C44.9886303,64.4035862 44.9674413,64.3873666 44.9445959,64.3736211 C44.7583493,64.2391122 44.6641214,64.0143953 44.7001707,63.7907104 C44.7016526,63.7674523 44.7016526,63.7441266 44.7001707,63.7208685 C44.6258079,63.4489473 44.5188752,63.1865667 44.381594,62.9391772 C44.3129352,62.7994935 44.2277984,62.5845955 44.1536469,62.3831287 C44.0547783,62.1145062 43.9751341,61.8754323 43.9751341,61.8754323 L43.9614024,61.8082766 C43.9284462,61.6390445 43.8378166,61.1716414 43.7581724,60.7337868 C43.7581724,60.7069245 43.7581724,60.6827485 43.7581724,60.6558863 C43.6565575,60.0890929 42.6843493,58.5848071 42.6843493,58.5848071 L42.6843493,58.5848071 C42.6767048,58.5645392 42.6621575,58.5474645 42.6431541,58.5364551 C42.4261924,58.4370648 41.6846777,58.0260724 41.6846777,58.0260724 C41.1354076,57.3545162 40.613601,57.1906565 40.2538291,57.1825979 L40.2071411,57.1825979 L40.1192579,57.1825979 C40.0890693,57.1810291 40.0588169,57.1810291 40.0286283,57.1825979 C39.9802679,57.1910457 39.9325535,57.2027132 39.8858181,57.2175188 L39.8336374,57.2336361 C39.8091085,57.2417117 39.7852388,57.2515894 39.7622323,57.2631846 L39.7457542,57.3948096 C39.7165478,57.0723012 39.7425369,56.7472865 39.822652,56.4331412 C39.822652,56.4035927 39.8418765,56.3740443 39.8501155,56.3444958 C39.9022962,56.3444958 39.9544769,56.3444958 40.0094039,56.3444958 C40.7137449,56.3444958 41.3892379,56.0708231 41.8872822,55.5836825 C42.3853265,55.0965419 42.6651249,54.4358374 42.6651249,53.7469166 C42.6656851,53.5033025 42.6305406,53.2608677 42.5607636,53.0270084 L42.5607636,52.9920875 L42.6047052,52.9813426 C42.9287745,52.8631487 43.3462198,53.0673018 43.6126158,52.8497176 C43.7088966,52.7551817 43.7780409,52.6375232 43.8130994,52.5085671 C43.886964,52.3369905 43.9359565,52.1561607 43.958656,51.9713222 C43.9641404,51.915039 43.9641404,51.8583732 43.958656,51.80209 L43.958656,51.7671691 C43.958656,51.7671691 43.958656,51.7671691 43.958656,51.7806002 C43.94655,51.6576839 43.8978521,51.5409395 43.8185921,51.4448221 C43.6455721,51.2433553 43.3544589,51.1950032 43.1320045,51.0472609 C42.9523201,50.9102604 42.8036333,50.7383035 42.6953347,50.5422507 C42.5879675,50.3471142 42.4456447,50.1724232 42.2751431,50.0264955 C42.0981502,49.8798447 41.8520966,49.8424998 41.6379898,49.9297915 C41.5725498,49.9716797 41.5013456,50.0042411 41.4265208,50.0264955 C41.3452802,50.0270219 41.2654618,50.0056453 41.1958273,49.9647124 C40.4405809,49.6155032 39.5617487,49.6772863 38.7241118,49.7820491 C38.3906133,49.8073304 38.0633601,49.8844056 37.75465,50.0103782 C37.4428834,50.1399629 37.204263,50.3959142 37.1010186,50.7114828 C37.0323598,50.9613017 37.0845405,51.2326104 37.00215,51.4797431 C36.947223,51.646289 36.8346226,51.7913451 36.7714565,51.9552048 C36.7385126,52.0415241 36.7181726,52.1319545 36.7110368,52.2238273 C36.7110368,52.2238273 36.7110368,52.2238273 36.7110368,52.2077099 C36.7110368,52.1915926 36.7110368,52.2453171 36.7110368,52.2641206 L36.7110368,52.3930594 C36.7531963,52.7190071 36.8164899,53.0420049 36.900535,53.3601003 C36.9994036,53.8758554 36.9499693,54.4345901 37.1751701,54.9261692 C37.1989233,54.985173 37.2283497,55.0418379 37.2630533,55.0954014 C37.1834091,55.2619473 37.1010186,55.4284932 37.0158817,55.5869805 L37.0158817,55.5869805 C36.9743067,55.5757663 36.9321322,55.5667987 36.8895496,55.5601182 L36.8428616,55.5601182 L36.790681,55.5601182 C36.7578492,55.5561562 36.7246441,55.5561562 36.6918124,55.5601182 L36.6918124,55.5601182 C36.668926,55.5667503 36.6468298,55.5757555 36.6258999,55.5869805 L36.5984364,55.6111565 L36.579212,55.6245876 C36.5697181,55.6347801 36.5622653,55.6466256 36.5572412,55.6595085 C36.5558222,55.6656996 36.5558222,55.6721211 36.5572412,55.6783121 C36.5422185,55.7105624 36.5329308,55.7450831 36.5297777,55.7803886 L36.5297777,55.7803886 C36.5297777,55.7803886 36.5297777,55.7991922 36.5297777,55.8072509 C36.5297777,55.8636616 36.5297777,55.9200723 36.5132996,55.976483 C36.4968215,56.0328937 36.5132996,56.0436386 36.4995678,56.0758733 C36.4858361,56.108108 36.4995678,56.1295978 36.4858361,56.1564601 C36.4721043,56.1833223 36.4858361,56.1698912 36.4858361,56.1779499 C36.4858361,56.1860085 36.4721043,56.2451055 36.4638653,56.2773402 L36.42267,56.3982203 L36.4061919,56.430455 C36.3910204,56.4646569 36.37359,56.4978571 36.3540112,56.5298453 L36.3540112,56.5298453 C36.3379523,56.5432873 36.3204575,56.5549953 36.3018306,56.5647662 C36.26323,56.5842124 36.2404513,56.6245285 36.2441572,56.6668428 L36.2441572,56.6668428 C36.2441572,56.6668428 36.2441572,56.6668428 36.2441572,56.6668428 L36.202962,56.6990774 C36.1824593,56.7006601 36.1626616,56.7071149 36.1452886,56.717881 C36.1260641,56.6775877 36.0491663,56.6775877 35.8102338,56.956955 C35.4892722,57.2843816 35.1187668,57.561613 34.7116936,57.7789397 C34.7116936,57.7789397 33.0995858,58.8883505 33.0117026,59.3906745 C32.9238193,59.8929985 32.4047591,62.1145062 32.6793941,62.853218 C32.7150967,62.9499221 32.7837555,63.0976644 32.874385,63.2776415 L32.874385,63.2937588 C32.874385,63.2937588 32.9540292,63.5892435 33.0803613,64.0244119 L33.1819763,64.0835089 L33.3687281,64.1882716 L33.4950603,64.2581135 C33.7770189,64.4121237 34.0653857,64.5544936 34.3601607,64.6852232 L34.3601607,64.6852232 C34.7864793,64.8752671 35.2228528,65.0429464 35.6674236,65.1875472 L35.6674236,65.1875472 L35.7388287,65.2117232 L35.9585368,65.2788788 L36.2084547,65.3514069 C36.3952065,65.4024451 36.5847047,65.4507972 36.7769492,65.4910906 C36.7896084,65.4938664 36.8027389,65.4938664 36.8153981,65.4910906 C36.9746865,65.5313839 37.1367212,65.5636186 37.2987558,65.5931671 L37.3866391,65.6092844 L37.7354256,65.6683814 L38.1720953,65.7247921 L38.2215296,65.7247921 L38.3039202,65.7247921 L38.6170041,65.7543406 C38.9712833,65.783889 39.3255626,65.8000064 39.6880809,65.8000064 L39.7759641,65.8000064 C40.1577068,65.8000064 40.5312105,65.7785166 40.9047142,65.7462819 C41.3984365,65.7034817 41.8890855,65.6317199 42.3740117,65.5313839 C42.5195683,65.5045217 42.6651249,65.472287 42.8079351,65.4373661 L42.8079351,65.4373661 L43.002926,65.3863278 C43.0301161,65.3816746 43.0567866,65.3744783 43.0825702,65.364838 L43.1979169,65.3352895 L43.2775611,65.3137997 L43.3407271,65.2949962 L43.527479,65.2412717 L43.590645,65.2197819 C43.6188069,65.2142054 43.646386,65.2061128 43.6730356,65.1956059 L43.7114845,65.1956059 L44.0465392,65.0854706 L44.0465392,65.0854706 C44.2964571,64.9995115 44.5436287,64.9028074 44.7853075,64.8007308 L45.0599426,64.6879094 C45.1066306,64.6664196 45.1533185,64.647616 45.2000065,64.62344 C45.163613,64.5770976 45.1221741,64.5347645 45.0764207,64.4971875 Z" id="Shape" fill="#FF826B" fill-rule="nonzero" opacity="0.3"></path>
                    <path d="M52.200007,84.7416236 C52.2032642,86.8544234 51.6720825,88.9337721 50.6557519,90.7863679 C50.4429286,91.1760811 50.2084345,91.5535756 49.9533712,91.917078 C49.699943,92.2898982 49.4251443,92.6477505 49.1303527,92.9888412 C49.1137622,93.0112678 49.094896,93.0319198 49.074055,93.0504676 C48.9614596,93.184438 48.8408217,93.3184084 48.717503,93.4416611 L48.58078,93.5863492 C48.4413762,93.7283578 48.2992916,93.85429 48.1518453,93.998978 C48.1353023,94.0172934 48.1173774,94.0343129 48.0982284,94.0498867 C48.0312074,94.1115131 47.9615055,94.1758189 47.8891228,94.2347659 C47.5132529,94.5649594 47.1175374,94.8718775 46.7041905,95.1538028 C46.492404,95.2984908 46.2779366,95.43782 46.0581076,95.569111 L45.8865337,95.6709285 L45.5621518,95.8504489 L45.5621518,95.8504489 L45.4039821,95.9335105 L45.3852162,95.9335105 L45.3423227,95.9576252 L45.2538549,96.0031751 L45.2055998,96.0272898 L44.9375156,96.1478631 L44.8007926,96.2121689 L44.5327084,96.3247041 L44.1520288,96.4827891 L44.1520288,96.4827891 L43.9509656,96.5578125 L43.8142427,96.6087213 L43.8142427,96.6087213 L43.4871799,96.718577 L43.4496482,96.718577 L43.3692229,96.7426917 L43.3075635,96.764127 L43.1252663,96.8177151 L43.0636069,96.836471 L43.0394793,96.836471 L43.0180326,96.836471 L42.9858625,96.836471 L42.8732671,96.8659445 C42.8480985,96.8755603 42.8220642,96.8827383 42.7955227,96.8873797 L42.6051829,96.9382885 L42.6051829,96.9382885 C42.4657791,96.9731208 42.3236945,97.0052737 42.1816098,97.0320677 C41.9510574,97.0802971 41.7178241,97.1231676 41.4845909,97.1579999 C41.2513576,97.1928322 40.9939967,97.2249851 40.7473593,97.2464204 C40.3827647,97.2785733 40.0181702,97.2973291 39.6455331,97.3000085 L39.5597462,97.3000085 C39.205875,97.3000085 38.8600464,97.2839321 38.5142178,97.2544586 L38.2086018,97.2249851 L38.1281765,97.2249851 L38.0799213,97.2249851 C37.9512409,97.2249851 37.8118371,97.1928322 37.6938801,97.1740764 L37.6536674,97.1740764 L37.3132005,97.1151294 L37.2274135,97.0990529 C37.0692438,97.0695795 36.9110741,97.0374266 36.7555853,96.9972354 C36.7432281,97.0000042 36.7304108,97.0000042 36.7180535,96.9972354 C36.5303946,96.9570443 36.3454165,96.908815 36.1631192,96.8579062 L35.9191626,96.7855622 L35.7046952,96.718577 L35.6349933,96.6944623 L35.6349933,96.6944623 L35.4392918,96.6274771 L35.3025689,96.5792478 L35.3025689,96.5792478 C35.2033777,96.5444155 35.1068674,96.5069038 35.0103571,96.4667127 L35.0103571,96.4667127 L34.9111659,96.4265216 L34.9111659,96.4265216 L34.7851663,96.3756128 C34.6457625,96.3184521 34.5090396,96.2595051 34.3749975,96.1987719 L34.3749975,96.1987719 C34.0872538,96.068374 33.8057653,95.9263654 33.5305322,95.772746 L33.4072135,95.7030814 L33.2249162,95.5985845 L33.125725,95.5396375 C32.9916829,95.4565759 32.8576408,95.3735142 32.7262796,95.2716967 L32.7262796,95.2716967 C32.5922374,95.1832763 32.4581953,95.0948558 32.3348766,95.003756 L32.3027065,94.9823207 L32.2812598,94.9662442 L32.0507073,94.7974415 L31.8764526,94.6634711 C31.5358726,94.3984058 31.210107,94.1148551 30.900626,93.8140988 C30.6110951,93.5354404 30.335862,93.2433849 30.0749267,92.9379324 C26.4111269,88.7091399 25.9774901,82.5716841 29.0103323,77.8702521 C32.0431746,73.16882 37.8154551,71.030451 43.1814941,72.6204772 C48.547533,74.2105034 52.2209698,79.1477597 52.200007,84.7416236 L52.200007,84.7416236 Z" id="Path" fill="#434175" fill-rule="nonzero"></path>
                    <g id="Group" opacity="0.3" transform="translate(32.600006, 80.500007)" fill="#FF826B" fill-rule="nonzero">
                        <polygon id="Path" points="10.6644293 16.3093344 10.6725722 16.3066678 10.6644293 16.3093344"></polygon>
                        <path d="M12.702858,14.7466677 C12.6716263,14.7373376 12.644119,14.7186999 12.6241437,14.6933343 L12.6241437,14.6933343 C12.6868599,14.6258824 12.7693918,14.5792824 12.8602866,14.560001 C12.9444295,14.5386677 12.9905723,14.416001 12.9797152,14.2933343 L12.9797152,14.2933343 C12.9929603,14.1734993 12.9567899,14.0534457 12.8792866,13.960001 C12.8531038,13.9337087 12.8335786,13.9017376 12.8222866,13.8666676 L12.8222866,13.8666676 C12.8687133,13.76709 12.9222269,13.6708515 12.9824295,13.5786676 C12.9989147,13.5506152 12.9989147,13.5160533 12.9824295,13.4880009 C13.0584295,13.3040009 12.7110009,13.3386676 12.7110009,13.3386676 L12.7110009,11.5866675 C12.7110009,11.5866675 12.683858,11.4453341 12.645858,11.1760008 C12.607858,10.9066674 12.5535723,10.5120007 12.5020009,10.0080007 C12.398858,9.00266728 11.9944294,8.89866727 11.9944294,8.89866727 C11.7787352,8.83310502 11.568259,8.75199592 11.3647151,8.65600059 C11.151102,8.55740094 10.9295927,8.47623818 10.7024293,8.41333391 C10.4126013,8.4103189 10.1243567,8.37088771 9.84471496,8.29600057 C9.65557684,8.23342518 9.45978516,8.19226979 9.26114349,8.17333389 L9.19871491,8.14133389 C8.73546429,7.91412526 8.36562245,7.53759326 8.15100056,7.07466715 L8.15100056,7.07466715 C8.23802873,6.97858929 8.3161486,6.87506691 8.38442914,6.76533379 L8.38442914,6.76533379 L8.38442914,6.96533381 L8.38442914,6.96533381 C8.65585773,6.48533378 9.4701435,6.37600043 9.54885779,5.82933373 L9.54885779,5.81066706 C9.55428249,5.76370668 9.55428249,5.71629411 9.54885779,5.66933372 L9.54885779,5.66933372 L9.54885779,5.66933372 C9.55020016,5.64624142 9.55020016,5.62309268 9.54885779,5.60000038 L9.54885779,5.60000038 C9.54885779,5.58133371 9.54885779,5.56266705 9.54885779,5.54400038 C9.54885779,5.40800037 9.49457208,5.27733369 9.47828636,5.13066702 L9.47828636,5.10400035 C9.48288581,5.06358256 9.49013902,5.02349904 9.50000065,4.98400034 C9.49900285,4.9715752 9.49900285,4.95909214 9.50000065,4.946667 C9.51069668,4.90142354 9.52429527,4.85689016 9.54071494,4.81333366 L9.54071494,4.81333366 C9.65471494,4.51200031 9.86642924,4.22933362 9.98042925,3.92000027 C10.0048134,3.85038387 10.0238665,3.77907408 10.0374293,3.70666692 C10.0374293,3.70666692 10.0374293,3.68800025 10.0374293,3.67733358 C10.0488257,3.60758527 10.056076,3.53724385 10.0591435,3.4666669 L10.0591435,3.43200023 C10.0591435,3.40000023 10.0591435,3.36533356 10.0591435,3.33333356 C10.0591435,3.30133356 10.0591435,3.34933356 10.0591435,3.35733356 L10.0591435,3.31733356 C10.0608807,3.31122837 10.0608807,3.30477208 10.0591435,3.29866689 C10.0604813,3.28982659 10.0604813,3.28084053 10.0591435,3.27200022 C10.0604982,3.24712912 10.0604982,3.22220465 10.0591435,3.19733355 C10.0509934,2.74932843 9.85449295,2.32461162 9.51628636,2.02400014 C9.24485777,1.78666679 8.87028632,1.63733344 8.67757202,1.32800009 C8.58800059,1.18133341 8.54457201,1.0133334 8.44414343,0.872000059 C8.23369475,0.625410296 7.92726622,0.477304038 7.60000052,0.464000032 C7.27708776,0.45463895 6.95601401,0.412639739 6.6418576,0.33866669 C6.42200044,0.269333352 6.22657185,0.14400001 6.00671469,0.0720000049 C5.51532211,-0.0583889055 4.99326584,0.125700822 4.69842889,0.53333337 C4.60678799,0.713809318 4.48983974,0.880768335 4.3510003,1.0293334 C4.03071456,1.29600009 3.48785738,1.18133341 3.20557165,1.4880001 C3.07572234,1.65404199 3.02078902,1.86510159 3.05357164,2.07200014 C3.05357164,2.07200014 3.05357164,2.09866681 3.05357164,2.11200014 L3.05357164,2.11200014 C3.05357164,2.14666681 3.05357164,2.18400015 3.05357164,2.21866682 C3.0549061,2.2292932 3.0549061,2.24004044 3.05357164,2.25066682 C3.05087995,2.28528306 3.05087995,2.32005059 3.05357164,2.35466683 C3.05357164,2.35466683 3.05357164,2.3813335 3.05357164,2.3973335 L3.05357164,2.46400017 C3.05357164,2.53333351 3.07257164,2.60266684 3.0807145,2.66933352 C3.0964993,2.78607133 3.10556134,2.90359177 3.10785735,3.02133354 C3.10785735,3.03733354 3.10785735,3.05600021 3.10785735,3.07466688 C3.09008247,3.61141567 2.951991,4.1377014 2.70342876,4.61600031 C2.43200017,5.12533368 2.04657157,5.59466705 1.97871442,6.16533375 C1.97057793,6.24780718 1.97057793,6.33086034 1.97871442,6.41333377 L1.97871442,6.38933377 C1.97735195,6.40708635 1.97735195,6.42491452 1.97871442,6.44266711 L1.97871442,6.54666711 L1.97871442,6.65600045 C1.97871442,6.68800046 1.97871442,6.71733379 1.97871442,6.74933379 L2.00314299,6.8773338 C2.00185712,6.90042765 2.00185712,6.92357329 2.00314299,6.94666714 L2.04385728,7.11200048 L2.04385728,7.14133382 C2.11985729,7.4080005 2.22028587,7.69600052 2.28000016,7.97600054 C2.30155853,8.07106504 2.31786806,8.16720544 2.3288573,8.26400056 C2.32754007,8.27194823 2.32754007,8.2800529 2.3288573,8.28800056 C2.3288573,8.36800057 2.34242873,8.45066724 2.34514302,8.53066725 L2.34514302,8.53066725 C2.34514302,8.53066725 2.34514302,8.53066725 2.34514302,8.55200058 L2.34514302,8.55200058 L2.34514302,8.55200058 L2.34514302,8.59466725 C2.21237791,8.64446763 2.07635735,8.6854488 1.93800013,8.71733393 C1.6937144,8.7520006 0.977142924,9.37600064 1.02871436,9.53066732 C1.03214038,9.55276208 1.03214038,9.57523922 1.02871436,9.59733399 C1.02997554,9.61152922 1.02997554,9.62580542 1.02871436,9.64000066 L1.02871436,9.64000066 C0.941492191,10.0326904 0.830921697,10.4200211 0.697571476,10.8000007 L0.697571476,10.8000007 L0.122142865,14.696001 L0.122142865,14.696001 L0.122142865,14.696001 C0.255142875,14.784001 0.393571455,14.8666677 0.526571464,14.9626677 L0.627000043,15.0213344 L0.811571484,15.1253344 L0.936428635,15.1946677 C1.21509532,15.3457788 1.50009534,15.4871122 1.79142869,15.6186677 L1.79142869,15.6186677 C1.92714299,15.68089 2.06557157,15.7395566 2.20671444,15.7946677 L2.33428587,15.8453344 L2.33428587,15.8453344 L2.43471445,15.8853344 L2.43471445,15.8853344 C2.48102512,15.9295 2.53661049,15.9631762 2.59757161,15.9840011 L2.7142859,15.9840011 C2.74127434,15.9880238 2.76872604,15.9880238 2.79571448,15.9840011 L2.83914305,15.9840011 L2.97757163,16.0320011 L3.1757145,16.0986678 L3.1757145,16.0986678 L3.24628594,16.1226678 L3.46342881,16.1893344 L3.71042882,16.2613344 C3.89500027,16.3120011 4.08228599,16.3600011 4.27228601,16.4000011 C4.28479741,16.4027567 4.29777461,16.4027567 4.31028601,16.4000011 C4.46771459,16.4400011 4.62785746,16.4720011 4.78800033,16.5013345 L4.87485747,16.5173345 L5.21957178,16.5760011 L5.26028607,16.5760011 C5.3905718,16.5946678 5.53171466,16.6133345 5.65114324,16.6266678 L5.70000039,16.6266678 L5.78142897,16.6266678 L6.09085756,16.6560011 C6.44100044,16.6853345 6.79114332,16.7013345 7.14942906,16.7013345 L7.23628621,16.7013345 C7.61357195,16.7013345 7.98271483,16.6800011 8.35185771,16.6480011 C8.60157201,16.6266678 8.85128632,16.5973345 9.09828633,16.5600011 C9.34528635,16.5226678 9.57057208,16.4826678 9.80400067,16.4346678 C9.94785782,16.4080011 10.091715,16.3760011 10.2328578,16.3413344 L10.2328578,16.3413344 L10.4255721,16.2906678 C10.4524448,16.2860484 10.4788039,16.2789045 10.5042864,16.2693344 L10.6182864,16.2400011 L10.6508579,16.2400011 L10.6508579,16.2400011 C10.6508579,16.0586678 10.6291436,15.9040011 10.623715,15.7840011 C10.6644293,15.8373344 10.7051436,15.8826677 10.7322864,15.9173344 C10.7470559,15.9341424 10.7573188,15.9543081 10.7621436,15.9760011 L10.7621436,15.9760011 C10.7170235,16.0602286 10.6832633,16.1498717 10.661715,16.2426678 L10.661715,16.2426678 L10.661715,16.2426678 L10.6861436,16.2426678 L10.7485722,16.2240011 L10.9331436,16.1706678 L10.9955722,16.1493344 L11.0770008,16.1253344 L11.1150008,16.1253344 L11.4461436,16.0160011 L11.4461436,16.0160011 L11.5845722,15.9653344 L11.7881437,15.8906677 L11.7881437,15.8906677 L12.1735723,15.7333344 L12.4450008,15.6213344 L12.5834294,15.5573344 L12.854858,15.4373344 L12.9037152,15.4133344 L12.9932866,15.368001 L13.0367152,15.344001 L13.0557152,15.344001 C13.0608548,15.2818813 13.0608548,15.2194541 13.0557152,15.1573344 L13.0557152,15.1573344 L13.0557152,15.128001 L13.0557152,15.128001 L13.0557152,15.0613344 C13.0720009,14.9893344 12.930858,14.832001 12.702858,14.7466677 Z" id="Shape"></path>
                        <path d="M0.654142902,15.8906677 L0.605285756,15.8693344 C0.620310278,15.878958 0.636804106,15.88616 0.654142902,15.8906677 Z" id="Path"></path>
                    </g>
                    <path d="M52.200007,116.950089 C52.2032505,119.06372 51.6720688,121.143887 50.6557382,122.997211 C50.442915,123.387077 50.2084209,123.76472 49.9533576,124.128366 C49.6999294,124.501332 49.4251307,124.859326 49.1303391,125.20055 C49.1162503,125.220958 49.0990652,125.239045 49.0794031,125.25416 L49.0794031,125.25416 C48.9668077,125.388183 48.8461698,125.522206 48.7228511,125.645507 L48.6853193,125.685714 L48.5861282,125.790252 C48.4467244,125.932316 48.3046398,126.058298 48.1571934,126.203043 C48.1406504,126.221366 48.1227255,126.238392 48.1035766,126.253972 C48.0365556,126.315622 47.9668537,126.379953 47.8944709,126.438924 C47.6263867,126.685526 47.3234516,126.918726 47.0205164,127.138524 L46.9668996,127.176051 L46.8569851,127.253784 C46.8087299,127.29131 46.7604748,127.323476 46.7095388,127.358322 C46.4977522,127.503067 46.2832849,127.642451 46.0634558,127.773793 L45.9669455,127.832764 L45.891882,127.875651 L45.5675001,128.055242 L45.5675001,128.055242 L45.4093304,128.138336 L45.3905645,128.138336 L45.347671,128.16246 L45.2592032,128.208028 L45.2109481,128.232152 L44.9428639,128.352773 L44.8061409,128.417104 L44.5380567,128.529684 L44.1573772,128.687831 L44.1573772,128.687831 L43.956314,128.762884 L43.8195911,128.813813 L43.8195911,128.813813 L43.7659742,128.832576 L43.49789,128.923711 L43.4603583,128.923711 L43.379933,128.947836 L43.3182736,128.969279 L43.2458909,128.990723 L43.1359764,129.022889 L43.074317,129.041652 L43.0501894,129.041652 L43.0287427,129.041652 L42.9965726,129.041652 L42.8839772,129.071137 C42.8588086,129.080756 42.8327744,129.087937 42.8062328,129.092581 L42.615893,129.143509 L42.615893,129.143509 C42.4764892,129.178355 42.3344046,129.210521 42.19232,129.237325 C41.9617676,129.285574 41.7285343,129.328461 41.4953011,129.363307 C41.3558973,129.384751 41.2164935,129.403514 41.0770897,129.419597 L41.0261537,129.419597 L40.7580695,129.446401 C40.393475,129.478567 40.0288805,129.49733 39.6562434,129.500011 L39.3506275,129.500011 C39.0825433,129.500011 38.798374,129.481247 38.5249281,129.457123 L38.4445029,129.457123 L38.2193121,129.43568 L38.1388869,129.43568 L38.0906317,129.43568 L37.8225475,129.403514 L37.6938671,129.384751 L37.6536545,129.384751 L37.3131875,129.325781 L37.2274006,129.309698 L37.0022099,129.266811 L36.9083804,129.245367 L36.7555724,129.20784 C36.7432152,129.21061 36.7303979,129.21061 36.7180406,129.20784 C36.5303817,129.167633 36.3454036,129.119385 36.1631063,129.068456 L36.066596,129.038971 L36.0317451,129.038971 L35.9191497,129.006806 L35.8145969,128.97464 L35.7046823,128.939794 L35.6349804,128.91567 L35.6349804,128.91567 L35.439279,128.848659 L35.302556,128.80041 L35.302556,128.80041 L35.1765565,128.744121 L35.0130251,128.679789 L35.0130251,128.679789 L34.9138339,128.639583 L34.9138339,128.639583 L34.7878344,128.588654 C34.6484306,128.531471 34.5117076,128.4725 34.3776655,128.411743 L34.3776655,128.411743 C34.165879,128.315247 33.9567733,128.213389 33.7530294,128.10081 C33.6779658,128.065964 33.605583,128.025757 33.5332003,127.98555 L33.4769026,127.953384 L33.4769026,127.953384 L33.4125624,127.918538 L33.2302652,127.814 L33.131074,127.75503 C32.9970319,127.671936 32.8629898,127.588842 32.7316285,127.486984 L32.7316285,127.486984 C32.5975864,127.398529 32.4635443,127.310074 32.3402256,127.218938 L32.3080555,127.197494 L32.2866088,127.181411 L32.1766943,127.100998 L32.0560564,127.012542 L32.0346096,126.99646 C31.9836736,126.956253 31.9300568,126.918726 31.8818016,126.878519 C31.5412216,126.61335 31.2154561,126.329687 30.9059751,126.028813 C30.6164442,125.750045 30.3412111,125.457875 30.0802758,125.152302 C26.4127918,120.923135 25.9759913,114.781643 29.0080144,110.076123 C32.0400376,105.370602 37.8136476,103.229681 43.1811159,104.820573 C48.5485842,106.411466 52.2225127,111.352593 52.200007,116.950089 L52.200007,116.950089 Z" id="Path" fill="#434175" fill-rule="nonzero"></path>
                    <path d="M48.0533859,122.423079 C47.9475101,122.213859 47.6934508,122.130256 47.4852376,122.23612 L43.7458381,124.160694 C43.7388275,124.109789 43.7231173,124.060489 43.6994029,124.014976 L43.6994029,124.014976 C43.6956202,123.903815 43.6386243,123.801369 43.5464398,123.740037 C43.5134779,123.72005 43.4854579,123.692787 43.4644954,123.660305 L43.4644954,123.660305 C43.4629857,123.631915 43.4629857,123.603464 43.4644954,123.575074 L43.4644954,123.575074 C43.4778812,123.506713 43.4620139,123.435841 43.4207916,123.379867 C43.4073585,123.237906 43.3323995,123.109137 43.2159305,123.027945 L43.202273,123.027945 C43.202273,123.000451 43.202273,122.970208 43.202273,122.931716 C43.1989961,122.87063 43.181198,122.811229 43.1503749,122.758505 L43.1503749,122.758505 C43.1367175,122.579794 43.0083378,122.414831 42.7515784,122.170135 C42.6557085,122.065071 42.5855564,121.938911 42.5467173,121.801717 C42.5467173,121.801717 42.5467173,121.801717 42.5467173,121.78522 C42.5002821,121.60651 42.4538468,121.405804 42.3882913,121.20235 C42.3580842,121.086785 42.3216098,120.972973 42.279032,120.861425 C42.0769023,120.336291 41.8556522,120.405026 41.7655133,120.311547 C41.6753743,120.218068 41.0881056,120.099844 40.7876425,119.943129 C40.5336147,119.811158 39.6950496,119.943129 39.4382902,120.003615 C39.4382902,119.987119 39.4382902,119.967873 39.4382902,119.951377 C40.6978397,119.571046 41.4577486,118.282682 41.186439,116.987534 L41.1700501,116.924298 C41.3030869,116.924303 41.4348438,116.898152 41.5579206,116.847315 C41.6564961,116.763955 41.7199538,116.646034 41.735467,116.517388 C41.806966,116.278671 41.8237761,116.026747 41.7846336,115.780551 C41.7846336,115.755807 41.7627818,115.731062 41.7545873,115.706318 C41.74985,115.684772 41.7434573,115.66363 41.735467,115.643082 L41.735467,115.643082 C41.735467,115.643082 41.735467,115.643082 41.735467,115.643082 L41.735467,115.643082 C41.7380987,115.621166 41.7380987,115.599012 41.735467,115.577096 C41.7158615,115.498946 41.687452,115.423306 41.650791,115.351646 C41.6524101,115.357958 41.6524101,115.36458 41.650791,115.370892 C41.4604817,115.073886 41.250597,114.790062 41.02255,114.52133 C40.8040314,114.191403 40.6783832,113.773496 40.3478739,113.553545 C39.9977353,113.371345 39.5864649,113.350296 39.2197716,113.495807 C39.0473421,113.556719 38.8700631,113.602709 38.689864,113.633277 C38.3875097,113.639553 38.0851472,113.621163 37.7857433,113.578289 C37.3609656,113.550427 36.9388169,113.663416 36.583891,113.899968 C36.5053879,113.951488 36.4384094,114.018906 36.3872243,114.097924 C36.3370807,114.210842 36.3074757,114.331901 36.2998168,114.455345 C36.2657148,114.686204 36.1858279,114.907801 36.0649094,115.10695 C35.9720389,115.266415 35.8545852,115.406634 35.7699092,115.568848 C35.6754949,115.728462 35.6470534,115.918986 35.6906963,116.09948 C35.7207426,116.19296 35.7753722,116.275441 35.7972241,116.374419 C35.8050253,116.599029 35.7376944,116.819773 35.6060203,117.001281 C35.5116116,117.185328 35.4664263,117.390942 35.4749091,117.597898 C35.4851188,117.755586 35.5432917,117.906291 35.6415296,118.029553 L35.6415296,118.029553 L35.6415296,118.029553 C35.6558455,118.068916 35.674152,118.106691 35.6961592,118.142278 L35.7098166,118.161523 C35.7264584,118.188276 35.7447019,118.213984 35.7644463,118.238506 L35.7917611,118.266 L35.8463908,118.320988 C36.0023363,118.43119 36.188492,118.489805 36.3790298,118.488701 L36.3790298,118.488701 C36.3928656,118.518877 36.4083682,118.548249 36.425465,118.576681 L36.425465,118.62617 C36.424147,118.641722 36.424147,118.657358 36.425465,118.67291 C36.4090761,118.67291 35.8627796,118.747144 35.6879648,118.978092 C35.5093963,119.140979 35.281122,119.237929 35.0406034,119.253032 C35.0406034,119.253032 34.5079643,119.431742 34.5188903,119.478482 C34.5298162,119.525221 34.3631958,119.588457 34.0272234,119.679187 C33.6912511,119.769917 33.1394916,120.091596 33.1394916,120.171328 C33.1394916,120.25106 32.2599543,121.119868 32.2599543,121.210598 C32.1020735,121.524961 32.0215117,121.872893 32.0250468,122.225123 C32.0578246,122.818991 32.0933338,123.566826 31.9594912,123.690548 C31.8256486,123.814271 31.9594912,124.292665 31.9594912,124.292665 C32.0278058,124.401883 32.0278058,124.540867 31.9594912,124.650086 C31.8475004,124.85354 31.9813431,125.689355 31.9813431,125.689355 L31.9813431,126.560912 C32.0096498,126.685528 32.0261129,126.812573 32.0305097,126.940328 L32.0523616,126.956824 L32.1752783,127.047554 L32.2872691,127.130036 L32.309121,127.146532 L32.3418987,127.168527 C32.4730099,127.262007 32.615047,127.352737 32.7406952,127.443466 L32.7406952,127.443466 C32.8745378,127.534196 33.0138434,127.619427 33.1476861,127.718406 L33.2487509,127.778892 L33.4344917,127.886118 L33.5000473,127.92186 L33.5000473,127.92186 L33.5574084,127.954853 C33.6311585,127.996094 33.7049085,128.037335 33.78139,128.073077 C33.9889827,128.188551 34.2020383,128.293028 34.4178254,128.392006 L34.4178254,128.392006 C34.5543995,128.456159 34.6937052,128.516645 34.8357422,128.573466 L34.9641219,128.625704 L34.9641219,128.625704 L35.0651868,128.666945 L35.0651868,128.666945 L35.2318072,128.732931 L35.3629184,128.78242 L35.3629184,128.78242 L35.502224,128.831909 L35.7016222,128.900644 L35.7016222,128.900644 L35.7726407,128.925388 L35.8846315,128.96113 L35.9911593,128.994123 L36.1058816,129.027116 L36.1413909,129.027116 L36.2397242,129.057359 C36.425465,129.109597 36.6139373,129.159086 36.8051411,129.200327 C36.8177318,129.203168 36.8307912,129.203168 36.8433819,129.200327 L36.9990764,129.238819 L37.0946782,129.260814 L37.3241228,129.304804 L37.4115302,129.3213 L37.7584285,129.381787 L37.7994007,129.381787 L37.9305119,129.401033 L38.2036601,129.434025 L38.2528268,129.434025 L38.3347713,129.434025 L38.5642158,129.45602 L38.6461603,129.45602 C38.9193085,129.480765 39.1924568,129.494512 39.4874569,129.500011 L39.7988459,129.500011 C40.178522,129.500011 40.5500036,129.478016 40.9214852,129.445023 L41.1946334,129.417529 L41.2465316,129.417529 C41.3885687,129.401033 41.5306058,129.381787 41.6726429,129.359792 C41.9102818,129.32405 42.1479208,129.280059 42.3828283,129.23057 C42.5275969,129.203077 42.6723654,129.170084 42.8144025,129.134342 L42.8144025,129.134342 L43.0083378,129.082103 C43.0353807,129.077341 43.0619068,129.069975 43.0875508,129.060108 L43.202273,129.029865 L43.2350508,129.029865 L43.2569027,129.029865 L43.281486,129.029865 L43.3443101,129.010619 L43.4563009,128.977626 L43.5300509,128.955631 L43.592875,128.933636 L43.6748195,128.908892 L43.7130603,128.908892 L43.9862085,128.815412 L44.0408382,128.796167 L44.0408382,128.796167 L44.1801438,128.743928 L44.385005,128.666945 L44.385005,128.666945 L44.7728755,128.504731 L45.0460237,128.389257 L45.1853293,128.323272 L45.4584776,128.199549 L45.5076443,128.174804 L45.5977832,128.128065 L45.6414869,128.10332 L45.6606073,128.10332 L45.8217647,128.018089 L45.8217647,128.018089 L46.1522741,127.83388 L46.2287556,127.78989 L46.327089,127.729403 C46.5510706,127.594683 46.7695892,127.454464 46.9853763,127.303248 C47.0372744,127.267505 47.0864411,127.234513 47.1356078,127.196021 L47.1902375,127.196021 L47.2475986,127.11079 L47.3022282,127.072299 C47.6108858,126.846849 47.9086173,126.607652 48.1926915,126.354708 C48.2664415,126.294221 48.3374601,126.228236 48.4057472,126.165 C48.4252578,126.149019 48.4435213,126.131555 48.4603768,126.112761 C48.6106083,125.975292 48.7553769,125.837822 48.897414,125.689355 L48.9984788,125.582129 L49.0367196,125.540888 C49.1623678,125.411667 49.2852845,125.265949 49.4000056,125.139477 L49.4000056,125.139477 L48.0533859,122.423079 Z M41.8283374,126.734124 L41.7600503,126.75062 C41.7619889,126.729734 41.7695433,126.709773 41.7819022,126.692883 C41.7819022,126.692883 41.3639853,126.709379 40.9406056,126.742372 C40.9359007,126.671067 40.9432902,126.599477 40.9624574,126.530669 C41.060464,126.229083 41.1299698,125.918859 41.1700501,125.604124 L41.1700501,125.604124 L41.8966244,126.720377 L41.8283374,126.734124 Z M41.967643,128.856653 C41.9696792,128.820023 41.9696792,128.783308 41.967643,128.746678 C41.9922263,128.730181 42.0086152,128.716434 42.0113467,128.705437 C42.0056891,128.582773 41.992002,128.460619 41.9703745,128.339768 L41.9703745,128.339768 L42.03593,128.339768 L42.8034766,128.218795 C42.8034766,128.218795 42.9045415,128.218795 43.0766249,128.180303 L43.1394489,128.304026 C42.793126,128.405683 42.4622719,128.554619 42.1561153,128.746678 C42.1369949,128.78242 42.0687078,128.820911 41.9731059,128.856653 L41.967643,128.856653 Z" id="Shape" fill="#FF826B" fill-rule="nonzero" opacity="0.3"></path>
                    <path d="M181.535355,17.3650078 L180.484567,16.2711985 C180.380451,16.1616476 180.238562,16.100003 180.090522,16.100003 C179.942481,16.100003 179.800592,16.1616476 179.696476,16.2711985 L173.165829,23.0145329 L170.402257,20.1159383 C170.298857,20.0050042 170.1567,19.942397 170.008211,19.942397 C169.859722,19.942397 169.717566,20.0050042 169.614166,20.1159383 L168.563378,21.2097476 C168.458785,21.3184867 168.400015,21.4660499 168.400015,21.6199261 C168.400015,21.7738022 168.458785,21.9213655 168.563378,22.0301046 L172.76653,26.4299525 C172.870992,26.5388272 173.012751,26.600003 173.160575,26.600003 C173.308399,26.600003 173.450158,26.5388272 173.55462,26.4299525 L181.524847,18.1963029 C181.63476,18.0890305 181.697985,17.9398048 181.700016,17.782982 C181.70195,17.6261592 181.642518,17.4752535 181.535355,17.3650078 L181.535355,17.3650078 Z" id="Path" fill="#3AD29F" fill-rule="nonzero"></path>
                    <path d="M181.537969,48.8636936 L180.48592,47.7710225 C180.381679,47.6615856 180.23962,47.6000051 180.091401,47.6000051 C179.943183,47.6000051 179.801124,47.6615856 179.696883,47.7710225 L173.171549,54.5182663 L170.40466,51.622688 C170.301136,51.5118694 170.158808,51.4493274 170.010141,51.4493274 C169.861474,51.4493274 169.719147,51.5118694 169.615623,51.622688 L168.563574,52.715359 C168.458856,52.823985 168.400015,52.9713946 168.400015,53.1251107 C168.400015,53.2788267 168.458856,53.4262364 168.563574,53.5348623 L172.77177,57.9301316 C172.876358,58.038893 173.018287,58.1000051 173.166288,58.1000051 C173.31429,58.1000051 173.456219,58.038893 173.560807,57.9301316 L181.532709,49.6831969 C181.638775,49.5756624 181.699015,49.4285277 181.700016,49.2745854 C181.700992,49.120643 181.642645,48.9726872 181.537969,48.8636936 Z" id="Path" fill="#3AD29F" fill-rule="nonzero"></path>
                    <path d="M181.525691,112.564143 L180.41977,111.470097 C180.309827,111.361199 180.16063,111.300009 180.00505,111.300009 C179.84947,111.300009 179.700273,111.361199 179.59033,111.470097 L172.717036,118.21489 L169.808466,115.315669 C169.698888,115.206094 169.549554,115.144436 169.393746,115.144436 C169.237938,115.144436 169.088605,115.206094 168.979026,115.315669 L167.873106,116.409715 C167.762342,116.518117 167.700015,116.665847 167.700015,116.819982 C167.700015,116.974117 167.762342,117.121847 167.873106,117.230249 L172.296787,121.631048 C172.526374,121.856331 172.89664,121.856331 173.126227,121.631048 L181.514631,113.392883 C181.630876,113.286472 181.697875,113.137524 181.700015,112.980861 C181.702056,112.824199 181.639055,112.673553 181.525691,112.564143 Z" id="Path" fill="#3AD29F" fill-rule="nonzero"></path>
                    <path d="M181.525691,81.0641412 L180.41977,79.9700953 C180.309827,79.8611971 180.16063,79.8000073 180.00505,79.8000073 C179.84947,79.8000073 179.700273,79.8611971 179.59033,79.9700953 L172.717036,86.7148881 L169.808466,83.8156666 C169.698888,83.7060919 169.549554,83.644434 169.393746,83.644434 C169.237938,83.644434 169.088605,83.7060919 168.979026,83.8156666 L167.873106,84.9097124 C167.762342,85.0181144 167.700015,85.1658447 167.700015,85.3199796 C167.700015,85.4741146 167.762342,85.6218448 167.873106,85.7302468 L172.296787,90.1310463 C172.526374,90.3563286 172.89664,90.3563286 173.126227,90.1310463 L181.514631,81.8928809 C181.630876,81.7864696 181.697875,81.6375221 181.700015,81.4808592 C181.702056,81.3241964 181.639055,81.1735512 181.525691,81.0641412 Z" id="Path-Copy" fill="#3AD29F" fill-rule="nonzero"></path>
                </g>
            </g>
        </g>
    </g>
</svg>