<?xml version="1.0" encoding="UTF-8"?>
<svg width="72px" height="72px" viewBox="0 0 72 72" version="1.1" xmlns="http://www.w3.org/2000/svg" xmlns:xlink="http://www.w3.org/1999/xlink">
    <!-- Generator: sketchtool 57.1 (101010) - https://sketch.com -->
    <title>3177688E-0A21-46D8-82CF-9FC31398FE81</title>
    <desc>Created with sketchtool.</desc>
    <g id="Landing-Page" stroke="none" stroke-width="1" fill="none" fill-rule="evenodd">
        <g id="Landing-Page---Finance" transform="translate(-685.000000, -381.000000)">
            <g id="Section-1" transform="translate(-1.000000, 0.000000)">
                <g id="Carousel" transform="translate(205.000000, 329.000000)">
                    <g id="Card" transform="translate(337.000000, 0.000000)">
                        <g id="icons/insurance-copy-icons/investments" transform="translate(132.000000, 40.000000)">
                            <g id="twotone-assessment-24px">
                                <path d="M24,22 L24,78 L80,78 L80,22 L24,22 Z M40,70 L32,70 L32,42 L40,42 L40,70 Z M56,70 L48,70 L48,30 L56,30 L56,70 Z M72,70 L64,70 L64,54 L72,54 L72,70 Z" id="Shape" fill="#FF826B" fill-rule="nonzero" opacity="0.230840774"></path>
                                <polygon id="Path" points="0 0 96 0 96 96 0 96"></polygon>
                                <path d="M76,12 L20,12 C15.6,12 12,15.6 12,20 L12,76 C12,80.4 15.6,84 20,84 L76,84 C80.4,84 84,80.4 84,76 L84,20 C84,15.6 80.4,12 76,12 Z M76,76 L20,76 L20,20 L76,20 L76,76 Z M28,40 L36,40 L36,68 L28,68 L28,40 Z M44,28 L52,28 L52,68 L44,68 L44,28 Z M60,52 L68,52 L68,68 L60,68 L60,52 Z" id="Shape" fill="#3F3D56" fill-rule="nonzero"></path>
                            </g>
                        </g>
                    </g>
                </g>
            </g>
        </g>
    </g>
</svg>