<?xml version="1.0" encoding="UTF-8"?>
<svg width="455px" height="311px" viewBox="0 0 455 311" version="1.1" xmlns="http://www.w3.org/2000/svg" xmlns:xlink="http://www.w3.org/1999/xlink">
    <!-- Generator: sketchtool 57.1 (101010) - https://sketch.com -->
    <title>BEF5D259-E1E0-4952-B778-2C0FEE4A119C</title>
    <desc>Created with sketchtool.</desc>
    <g id="Landing-Page" stroke="none" stroke-width="1" fill="none" fill-rule="evenodd">
        <g id="Landing-Page---Social-sharing" transform="translate(-833.000000, -2484.000000)" fill-rule="nonzero">
            <g id="Section-4" transform="translate(3.000000, 2352.000000)">
                <g id="undraw_done_a34v" transform="translate(830.000000, 132.000000)">
                    <path d="M172,296.5 C172,304.506351 134.168481,311 87.5,311 C40.8315187,311 3,304.506351 3,296.5 C3,294.497432 5.36126168,292.592838 9.63364486,290.860676 C22.071729,285.809189 50.7109112,282.219459 84.3727103,282.011757 C85.4111916,282.003935 86.4536215,282 87.5,282 C134.168481,282 172,288.493653 172,296.5 Z" id="Path" fill="#3F3D56"></path>
                    <path d="M84,281 C76.3021174,293.565913 63.2849239,301.914069 48.66608,303.660267 C34.0472361,305.406465 19.4340532,300.358714 9,289.958633 C21.4815089,284.844515 50.2206784,281.21029 84,281 Z" id="Path" fill="#000000" opacity="0.1"></path>
                    <ellipse id="Oval" fill="#3F3D56" cx="44" cy="248.5" rx="44" ry="47.5"></ellipse>
                    <path d="M99,33 C105.238944,57.2946225 125.365895,72.9973037 144,68.1081836" id="Path" fill="#3F3D56"></path>
                    <path d="M144.712339,68 C138.383892,43.5763527 150.141458,19.4240008 171,14" id="Path" fill="#FF826B"></path>
                    <path d="M111,32 C117.069854,54.7637974 131.829617,70.6954409 144,67.620094" id="Path" fill="#FF826B"></path>
                    <path d="M144.451481,68 C136.208865,36.7015435 149.424913,6.28747755 174,0" id="Path" fill="#3F3D56"></path>
                    <path d="M136,70.7019262 C136,70.7019262 140.948464,69.35016 142.173941,67.9869403 C143.399418,66.6237206 149.237584,63.9361828 150.056189,65.4480847 C150.874795,66.9599866 159.769247,71.6009473 154.149225,73.0076056 C148.529203,74.414264 140.835686,75.3588775 139.097971,74.8693885 C137.360255,74.3798994 136,70.7019262 136,70.7019262 Z" id="Path" fill="#A8A8A8"></path>
                    <path d="M154.095801,72.6296431 C148.4754,73.9247775 140.781379,74.7944887 139.043543,74.343808 C137.720089,74.0005925 136.61635,71.9561209 136.164857,71 C136.060517,71.0274343 136,71.0427205 136,71.0427205 C136,71.0427205 137.360342,74.4290624 139.098177,74.8797431 C140.836013,75.3304239 148.530042,74.4607092 154.150435,73.1655783 C155.772825,72.7917268 156.184254,72.1695052 155.93104,71.4403256 C155.839536,71.935407 155.303367,72.3513872 154.095801,72.6296431 Z" id="Path" fill="#000000" opacity="0.2"></path>
                    <rect id="Rectangle" fill="#FFEEE4" opacity="0.305454799" x="136" y="50" width="319" height="185"></rect>
                    <rect id="Rectangle" fill="#FF826B" opacity="0.3" x="143" y="106" width="175" height="92"></rect>
                    <rect id="Rectangle" fill="#3F3D56" x="332" y="102" width="70" height="4"></rect>
                    <rect id="Rectangle" fill="#3F3D56" x="332" y="109" width="102" height="4"></rect>
                    <rect id="Rectangle" fill="#3F3D56" x="332" y="126" width="70" height="4"></rect>
                    <rect id="Rectangle" fill="#3F3D56" x="332" y="156" width="70" height="4"></rect>
                    <rect id="Rectangle" fill="#3F3D56" x="332" y="133" width="102" height="4"></rect>
                    <rect id="Rectangle" fill="#3F3D56" x="332" y="141" width="102" height="4"></rect>
                    <rect id="Rectangle" fill="#3F3D56" x="332" y="148" width="102" height="4"></rect>
                    <rect id="Rectangle" fill="#FF826B" x="331" y="173" width="37" height="10"></rect>
                    <path d="M124,162.05037 C124,162.05037 130.875709,143.24632 135.841501,149.145628 C140.807293,155.044936 128.201822,165 128.201822,165 L124,162.05037 Z" id="Path" fill="#F4C8C8"></path>
                    <path d="M94.2086229,143 L98.1815799,144.484807 C98.1815799,144.484807 100.079129,152.989932 99.3453146,154.469922 C98.6114998,155.949911 98.2445944,154.839918 99.3453146,157.799896 C100.446035,160.759875 103.748192,168.529821 104.115109,169.639814 C104.482026,170.749807 125.395683,162.609864 125.395683,158.539893 C125.395683,158.539893 129.798564,163.719853 132,164.829846 C132,164.829846 107.784171,182.589721 104.482014,184.809707 C101.179858,187.029693 99.3453225,185.9197 96.4100712,183.329718 C93.4748199,180.739736 81,159.279886 81,159.279886 L94.2086229,143 Z" id="Path" fill="#575A89"></path>
                    <path d="M104.058526,273.373275 C104.058526,273.373275 103.690239,277.440057 102.95366,277.809764 C102.217081,278.17947 96.6927555,287.422157 102.95366,289.270693 C109.214564,291.119229 112.897456,290.379816 114.37061,291.119233 C115.843764,291.858649 141.623968,293.337475 141.992256,289.270693 C142.360543,285.203911 129.470447,284.464486 129.470447,284.464486 C129.470447,284.464486 117.68521,276.700644 115.843768,272.633846 C114.002326,268.567048 104.058526,273.373275 104.058526,273.373275 Z" id="Path" fill="#2F2E41"></path>
                    <path d="M29.9073043,281 C29.9073043,281 21.165249,296.211863 23.3507609,298.06698 C25.5362727,299.922096 46.8206371,306.682531 49.9411858,306.971488 C53.9479621,307.342508 56.8619806,304.003318 53.5837108,302.148201 C50.3054411,300.293085 43.3846424,292.501649 43.3846424,289.904504 L43.3846424,283.226129 L29.9073043,281 Z" id="Path" fill="#2F2E41"></path>
                    <path d="M21.4094884,183 C21.4094884,183 13.7261667,192.507733 25.7999653,207.866371 L45.9229894,233.464115 C45.9229894,233.464115 33.4833068,253.210944 33.1174268,263.450043 C32.7515468,273.689143 30.1904422,271.495049 29.458698,275.883229 C28.7269539,280.271408 25.4340932,278.077322 27.9952057,281.368459 C30.5563182,284.659596 40.0690202,287.585056 42.9960048,285.025281 C45.9229894,282.465506 45.9229894,279.174369 45.9229894,277.711641 C45.9229894,276.248914 51.0452144,267.838223 51.4110865,265.278456 C51.7769586,262.718689 65.3142653,241.874806 65.3142653,241.874806 C65.3142653,241.874806 69.7047462,229.44162 64.5825212,222.493658 C59.4602961,215.545695 56.0755108,205.691521 56.0755108,205.691521 C56.0755108,205.691521 71.1682385,223.956386 81.7785606,228.344554 C81.7785606,228.344554 85.8031654,229.075916 85.0714173,230.904328 C84.3396692,232.732741 85.0714173,233.829784 86.1690375,235.658205 C87.2666577,237.486626 94.9499913,258.696175 97.5111038,264.181409 C100.072216,269.666644 98.9745961,272.957777 101.901585,274.786186 C104.828573,276.614595 118,275.151871 118,273.323458 C118,271.495045 116.170636,266.74118 115.073015,264.181409 C113.975395,261.621638 105.194441,232.001387 105.92619,226.881853 C106.657938,221.762319 105.560313,214.814345 100.072216,211.888889 C94.5841192,208.963433 66.7777576,185.194098 65.3142653,185.194098 C63.850773,185.194098 21.4094884,183 21.4094884,183 Z" id="Path" fill="#2F2E41"></path>
                    <circle id="Oval" fill="#F4C8C8" cx="94.5" cy="109.5" r="15.5"></circle>
                    <path d="M81.8200666,111 C81.8200666,111 76.986669,119.279996 71.0378936,120.360012 C65.0891182,121.440027 86.6534562,138 86.6534562,138 C86.6534562,138 91.8586397,122.160013 96.3202514,121.440011 C100.781863,120.72001 81.8200666,111 81.8200666,111 Z" id="Path" fill="#F4C8C8"></path>
                    <path d="M97,145.984626 C97,150.759995 82.7816465,164.351388 82.7816465,164.351388 L69.2924374,175.738784 C69.2924374,175.738784 68.9278613,179.779472 67.4695687,180.146807 C66.0112762,180.514141 64.1884114,180.514141 65.646704,182.718154 C67.1049966,184.922167 70.7507299,189.697524 67.4695687,190.43218 C66.4803792,190.583766 65.4835408,190.679419 64.4837355,190.71869 C63.6087276,190.77012 62.5806742,190.817877 61.4249192,190.861955 C58.7271097,190.957467 55.3511592,191.019908 51.6944774,190.994189 C50.6554099,190.990513 49.598154,190.978272 48.5227099,190.957467 C34.7381767,190.68198 18.7698509,189.084042 20.0750506,183.820145 C22.2624914,175.004096 20.8041988,172.065414 25.5436487,167.290058 C30.2830985,162.514701 37.9391335,145.984611 37.9391335,145.984611 C37.9391335,145.984611 53.2512113,119.903807 66.0112722,119.903807 L68.6617265,119.202181 C71.1873411,118.531804 73.8553956,119.564512 75.2859929,121.766197 C77.8453061,125.693014 81.8811567,131.59242 84.2399352,133.495212 C87.8856646,136.433894 88.4544236,134.325392 88.4544236,134.325392 C88.4544236,134.325392 97,141.209266 97,145.984626 Z" id="Path" fill="#575A89"></path>
                    <path d="M64.0194951,201 C64.0194951,201 74.2880435,217.730126 67.9144616,220.70437 C61.5408797,223.678614 58,203.230677 58,203.230677 L64.0194951,201 Z" id="Path" fill="#F4C8C8"></path>
                    <path d="M85.4245557,108.427837 C86.0150344,108.355401 86.201782,107.631113 86.3011709,107.06066 C86.8333986,104.005834 89.1752352,101.109034 92.3217748,100.615893 C93.5244395,100.460354 94.7474029,100.556166 95.908924,100.896924 C97.5728835,101.340783 99.13485,102.088169 100.511604,103.099265 C101.238247,103.633544 101.937544,104.253748 102.811709,104.503316 C103.389033,104.668141 105.840337,105.727564 106.413093,105.90682 C107.672356,106.300934 108.714425,107.582228 110.011338,107.328527 C111.252106,107.085812 111.723336,105.629294 111.922759,104.414305 C112.377081,101.64631 110.7473,97.5162033 109.126901,95.1976869 C107.897241,93.4382556 105.816384,92.4256821 103.735867,91.7669498 C101.298508,91.0477139 98.7941127,90.5639526 96.2590554,90.3226922 C92.836834,89.9297834 89.2923864,89.72133 86.0127622,90.749666 C82.7331379,91.7780021 79.7468667,94.2935424 79.1346197,97.5901941 C79.007081,98.2769187 78.9831869,98.9803026 78.8268889,99.6613857 C78.4456111,101.322882 77.3147619,102.719464 76.6551104,104.296402 C75.6927381,106.638374 75.7944852,109.266826 76.9351942,111.531863 C77.8486482,113.317628 79.4371448,115.033682 79.0943289,117 L81.9212025,114.83309 C82.7629812,114.368107 83.1561963,113.394626 82.8647816,112.497076 L82.453834,109.056098 C82.3785887,108.426043 82.3130578,107.746146 82.637193,107.1957 C83.8936213,105.062093 84.4400367,108.548599 85.4245557,108.427837 Z" id="Path" fill="#2F2E41"></path>
                    <path d="M58.9878394,176.541447 L62.4749949,190.85973 C58.9581804,190.984022 54.304962,191.04982 49.3739794,190.954775 C48.1300966,187.270101 46.9417994,183.428249 46.0311466,179.831328 C42.6994269,166.671809 48.252289,146.566989 51.2138189,137.062892 C54.1753488,127.558796 61.5791916,125 61.5791916,125 C61.5791916,125 65.281101,126.096627 70.0935796,129.386505 C74.9060582,132.676383 58.9878394,176.541447 58.9878394,176.541447 Z" id="Path" fill="#000000" opacity="0.1"></path>
                    <path d="M60.7519426,174.985355 L64.3222912,189.723236 C63.4487847,189.773834 62.4224953,189.82082 61.2687234,189.864186 C58.5755428,189.958154 55.205385,190.019586 51.5549774,189.994283 C50.241178,186.123704 48.9709163,182.039867 48.0137562,178.237953 C44.7382249,165.227553 50.1974437,145.350558 53.1090245,135.954155 C56.0206052,126.557751 62.3896906,136.857656 62.3896906,136.857656 C62.3896906,136.857656 59.8420564,130.713859 64.5733742,133.966457 C69.3046919,137.219055 60.7519426,174.985355 60.7519426,174.985355 Z" id="Path" fill="#000000" opacity="0.1"></path>
                    <path d="M61.5791659,124 C61.5791659,124 54.1753481,126.575754 51.213821,136.142854 C48.2522939,145.709953 42.6994255,165.94805 46.0311465,179.194804 C49.3628675,192.441559 56.3964914,209 56.3964914,209 C56.3964914,209 63.4301233,203.848484 66.0214765,204.952381 L58.9878487,175.883118 C58.9878487,175.883118 74.9060619,131.72727 70.0935773,128.415584 C65.2810928,125.103897 61.5791659,124 61.5791659,124 Z" id="Path" fill="#575A89"></path>
                    <rect id="Rectangle" fill="#3F3D56" x="136" y="96" width="175" height="92"></rect>
                    <ellipse id="Oval" fill="#FFFFFF" cx="226.5" cy="144" rx="19.5" ry="20"></ellipse>
                    <path d="M226.5,121 C213.521308,121 203,131.521308 203,144.5 C203,157.478692 213.521308,168 226.5,168 C239.478692,168 250,157.478692 250,144.5 C249.962057,131.537057 239.462943,121.037943 226.5,121 Z M221.675723,157.029565 L209.631971,144.985813 L213.010096,141.607692 L221.687021,150.284617 L240.001203,131.970431 L243.379328,135.348557 L221.675723,157.029565 L221.675723,157.029565 Z" id="Shape" fill="#FF826B"></path>
                </g>
            </g>
        </g>
    </g>
</svg>