<?xml version="1.0" encoding="UTF-8"?>
<svg width="457px" height="377px" viewBox="0 0 457 377" version="1.1" xmlns="http://www.w3.org/2000/svg" xmlns:xlink="http://www.w3.org/1999/xlink">
    <!-- Generator: sketchtool 57.1 (101010) - https://sketch.com -->
    <title>7DC29C0F-0B75-4385-94D8-9412BED9679D</title>
    <desc>Created with sketchtool.</desc>
    <g id="Landing-Page" stroke="none" stroke-width="1" fill="none" fill-rule="evenodd">
        <g id="Landing-Page---Social-sharing" transform="translate(-257.000000, -2842.000000)">
            <g id="Section-4" transform="translate(3.000000, 2352.000000)">
                <g id="undraw_investing_7u74" transform="translate(254.000000, 491.000000)">
                    <path d="M86,291 C86,291 255.42271,149.25 353,291" id="Path" fill="#F2F2F2" fill-rule="nonzero"></path>
                    <ellipse id="Oval" fill="#F2F2F2" fill-rule="nonzero" cx="363.5" cy="364" rx="78.5" ry="12"></ellipse>
                    <ellipse id="Oval" stroke="#3F3D56" cx="377.5" cy="359" rx="78.5" ry="12"></ellipse>
                    <path d="M410.939253,231.548294 C413.932247,232.636486 417.28603,231.715286 419.303437,229.250861 C421.320845,226.786436 421.561769,223.316415 419.904291,220.596783 C418.246813,217.877151 415.052521,216.501211 411.937869,217.165249 L412.125563,221.025283 L410.299521,217.717199 C408.507367,218.559381 407.122852,220.078714 406.450225,221.941321 C406.211347,222.593768 406.066129,223.276781 406.018903,223.969985 C405.782059,227.31176 407.790517,230.405182 410.939253,231.548294 L410.939253,231.548294 Z" id="Path" fill="#57B894" fill-rule="nonzero"></path>
                    <path d="M420.463507,279 C419.795707,275.555677 422.689437,272.502174 425.547782,270.51741 C428.406128,268.532646 431.74594,266.582531 432.721211,263.21428 C434.122849,258.373514 429.947798,253.94028 426.698245,250.117247 C424.28738,247.280122 422.217013,244.163574 420.530469,240.832818 C419.797241,239.524516 419.297826,238.095369 419.055221,236.611181 C418.799004,234.465455 419.479606,232.330254 420.165292,230.283514 C422.449525,223.46522 424.891767,216.704048 427.492016,210" id="Path" stroke="#3F3D56"></path>
                    <path d="M410.939251,230.548291 C413.932244,231.636488 417.286028,230.715289 419.303437,228.250863 C421.320845,225.786438 421.561769,222.316414 419.90429,219.596781 C418.246811,216.877148 415.052517,215.501208 411.937866,216.165251 L412.125555,220.02528 L410.299519,216.7172 C408.507366,217.559379 407.12285,219.078711 406.450225,220.941318 C406.211348,221.593765 406.06613,222.276778 406.018903,222.969982 C405.782058,226.311758 407.790515,229.40518 410.939251,230.548291 L410.939251,230.548291 Z" id="Path" stroke="#3F3D56"></path>
                    <path d="M419.45021,208.941243 C420.320861,206.538665 422.35586,204.745576 424.848702,204.184495 L425.466252,207.854978 L426.611189,204 C429.873002,204.048385 432.729408,206.200047 433.676465,209.322103 C434.623523,212.444159 433.443974,215.820404 430.758872,217.673193 C428.073769,219.525981 424.499077,219.430281 421.916929,217.436479 C419.334781,215.442678 418.337523,212.008155 419.450229,208.941243 L419.45021,208.941243 Z" id="Path" fill="#57B894" fill-rule="nonzero"></path>
                    <path d="M420.45021,207.941243 C421.320862,205.538666 423.355861,203.745578 425.848702,203.184495 L426.466252,206.854978 L427.611189,203 C430.873002,203.048385 433.729408,205.200047 434.676465,208.322103 C435.623523,211.444159 434.443974,214.820404 431.758872,216.673193 C429.073769,218.525981 425.499077,218.430281 422.916929,216.436479 C420.334781,214.442678 419.337523,211.008155 420.450229,207.941243 L420.45021,207.941243 Z" id="Path" stroke="#3F3D56"></path>
                    <path d="M425.942401,250.549253 C429.526555,251.849313 433.515767,250.253383 435.214041,246.840028 C436.912316,243.426672 435.779061,239.282424 432.580155,237.208055 L431.700395,240.169897 L431.076573,236.456878 C431.070407,236.45397 431.064023,236.451548 431.05748,236.449634 C428.538676,235.535969 425.723742,236.035394 423.673036,237.75978 C421.62233,239.484166 420.647403,242.171538 421.115501,244.809589 C421.583599,247.447641 423.423607,249.635588 425.942411,250.549253 L425.942401,250.549253 Z" id="Path" fill="#57B894" fill-rule="nonzero"></path>
                    <path d="M425.942395,249.549253 C429.526551,250.849312 433.515765,249.253384 435.214041,245.840032 C436.912316,242.426679 435.779061,238.282435 432.580153,236.208068 L431.700402,239.169893 L431.076575,235.456878 C431.07041,235.45397 431.064028,235.451547 431.057487,235.449633 C428.538681,234.535969 425.723745,235.035394 423.673038,236.759778 C421.62233,238.484163 420.647403,241.171532 421.115501,243.809581 C421.5836,246.447629 423.423608,248.635575 425.942414,249.549238 L425.942395,249.549253 Z" id="Path" stroke="#3F3D56"></path>
                    <path d="M416.115249,262.798365 C416.728951,266.29098 419.704648,268.876349 423.248235,268.995704 C426.791823,269.11506 429.934688,266.735777 430.781939,263.29237 C431.62919,259.848964 429.949238,256.282662 426.754956,254.743655 C423.560674,253.204648 419.725196,254.113612 417.561003,256.922515 L420.903654,261.954407 L416.336334,259.283636 C415.982201,260.420585 415.906378,261.625991 416.115249,262.798365 Z" id="Path" fill="#57B894" fill-rule="nonzero"></path>
                    <path d="M418.115249,261.798376 C418.728957,265.290989 421.704657,267.876353 425.248244,267.995705 C428.791831,268.115056 431.934693,265.73577 432.781941,262.292363 C433.629189,258.848957 431.949233,255.282657 428.754951,253.743652 C425.560668,252.204648 421.725191,253.113614 419.560999,255.922517 L422.903658,260.954413 L418.336334,258.283645 C417.982201,259.420595 417.906378,260.626001 418.115249,261.798376 L418.115249,261.798376 Z" id="Path" stroke="#3F3D56"></path>
                    <path d="M409,284.3928 C409,284.3928 415.98739,281.613604 418.093204,280.091687 C420.199018,278.56977 428.841557,276.752518 429.363957,279.193337 C429.886356,281.634156 439.864674,291.332868 431.975975,291.397451 C424.087276,291.462033 413.646102,292.711093 411.544337,291.411703 C409.442572,290.112314 409,284.3928 409,284.3928 Z" id="Path" fill="#656380" fill-rule="nonzero"></path>
                    <path d="M432.11836,290.474658 C424.229092,290.54251 413.787218,291.854468 411.685302,290.48964 C410.084561,289.450251 409.446708,285.720692 409.233283,284 C409.085478,284.006773 409,284.009692 409,284.009692 C409,284.009692 409.442598,290.017246 411.544514,291.382074 C413.64643,292.746902 424.08832,291.434949 431.977572,291.367098 C434.254892,291.347529 435.041514,290.483829 434.998326,289.204633 C434.681951,289.977493 433.813401,290.460085 432.11836,290.474658 Z" id="Path" fill="#000000" fill-rule="nonzero" opacity="0.2"></path>
                    <rect id="Rectangle" fill="#FF826B" fill-rule="nonzero" x="81" y="210" width="30" height="80" rx="11.85052"></rect>
                    <rect id="Rectangle" fill="#FF826B" fill-rule="nonzero" x="139" y="162" width="30" height="130" rx="11.85052"></rect>
                    <rect id="Rectangle" fill="#FF826B" fill-rule="nonzero" x="197" y="129" width="30" height="163" rx="11.85052"></rect>
                    <rect id="Rectangle" fill="#FF826B" fill-rule="nonzero" x="256" y="96" width="30" height="195" rx="11.85052"></rect>
                    <rect id="Rectangle" fill="#FF826B" fill-rule="nonzero" x="313" y="40" width="30" height="251" rx="11.85052"></rect>
                    <rect id="Rectangle" stroke="#3F3D56" x="86" y="206" width="30" height="80" rx="11.85052"></rect>
                    <rect id="Rectangle" stroke="#3F3D56" x="144" y="158" width="30" height="130" rx="11.85052"></rect>
                    <rect id="Rectangle" stroke="#3F3D56" x="202" y="125" width="30" height="163" rx="11.85052"></rect>
                    <rect id="Rectangle" stroke="#3F3D56" x="260" y="92" width="30" height="195" rx="11.85052"></rect>
                    <rect id="Rectangle" stroke="#3F3D56" x="317" y="36" width="30" height="251" rx="11.85052"></rect>
                    <path d="M439,291.5 L0,291.5" id="Path" stroke="#3F3D56"></path>
                    <path d="M412.08767,242 C412.08767,242 417.189341,259.237439 410.727226,261.791133 C404.265111,264.344827 406.305783,242.638423 406.305783,242.638423 L412.08767,242 Z" id="Path" fill="#F4C8C8" fill-rule="nonzero"></path>
                    <path d="M368.37972,353.14736 C368.37972,353.14736 363.881186,352.815817 362.274567,353.810445 C361.301165,354.397794 360.128176,354.518823 359.061328,354.141988 C359.061328,354.141988 351.992198,353.478903 354.562794,357.125872 C357.13339,360.772842 359.703955,362.099002 359.703955,363.756715 C359.703955,365.414428 370.307643,365.414428 370.628967,363.756715 C370.950291,362.099002 371.271615,353.478892 370.628967,353.14735 C369.986319,352.815807 368.37972,353.14736 368.37972,353.14736 Z" id="Path" fill="#575A89" fill-rule="nonzero"></path>
                    <path d="M379.620296,353.147352 C379.620296,353.147352 384.118829,352.81581 385.725446,353.810437 C386.698847,354.397786 387.871834,354.518815 388.938681,354.14198 C388.938681,354.14198 396.007796,353.478895 393.437209,357.125863 C390.866621,360.772832 388.296034,362.099002 388.296034,363.756715 C388.296034,365.414428 377.692356,365.414428 377.371032,363.756715 C377.049709,362.099002 376.728385,353.478895 377.371032,353.147352 C378.013679,352.81581 379.620296,353.147352 379.620296,353.147352 Z" id="Path" fill="#575A89" fill-rule="nonzero"></path>
                    <path d="M355.346024,238.703209 C355.346024,238.703209 353.120962,289.337892 354.392428,291.901673 C355.663895,294.465454 360.113993,337.729262 359.478273,340.293048 C358.842553,342.856834 355.663889,353.43243 359.478273,355.034788 C363.292656,356.637146 371.557154,355.034788 371.557154,355.034788 C371.557154,355.034788 373.782211,342.215883 372.828615,335.485953 C371.875019,328.756023 371.557154,300.554433 371.557154,300.554433 L377.91446,271.070948 L380.139517,298.95207 C380.139517,298.95207 380.775247,337.088316 376.325133,344.779664 C371.875019,352.471012 377.91446,355.675733 377.91446,355.675733 C377.91446,355.675733 389.993346,357.278096 391.264807,356.957623 C392.536268,356.637151 390.311211,344.138719 391.264807,338.690679 C392.218403,333.24264 394.44346,302.797742 396.350652,295.426872 C398.257843,288.056001 409.065263,247.035497 401.118631,238.703234 C393.171999,230.370972 355.346024,238.703209 355.346024,238.703209 Z" id="Path" fill="#3F3D56" fill-rule="nonzero"></path>
                    <circle id="Oval" fill="#A0616A" fill-rule="nonzero" cx="378" cy="126" r="11"></circle>
                    <path d="M370,130.972457 C370,130.972457 371.928571,146.53178 370.964285,146.855932 C370,147.180085 388,146.855932 388,146.855932 C388,146.855932 384.464287,137.455511 388,130 L370,130.972457 Z" id="Path" fill="#F4C8C8" fill-rule="nonzero"></path>
                    <path d="M372,143.591345 C372,143.591345 379.526274,135.510819 388.423927,143.591345 L389,146 L384.351993,145.948165 L372,145.948165 L372,143.591345 Z" id="Path" fill="#F2F2F2" fill-rule="nonzero"></path>
                    <path d="M407.222786,242.035586 C406.474154,242.182312 404.639903,242.482161 402.248174,242.839434 C394.285663,244.0229 380.17534,245.815634 379.676247,244.587521 C379.028093,242.992561 376.759555,237.250691 375.13917,239.802642 C373.518786,242.354593 374.491017,244.587521 367.685387,244.906513 C363.054314,245.123425 356.323232,244.453531 352.596346,243.400861 C350.846359,242.906426 349.75743,242.329064 349.861153,241.716594 C350.18523,239.802642 353.750081,203.437555 353.750081,199.928643 C353.750081,196.419732 355.046388,179.513138 355.046388,179.513138 L345.732418,161.474145 L345,160.054624 C345,160.054624 345.972231,156.545713 348.888923,155.907729 C351.805614,155.269745 365.740941,147.294976 365.740941,147.294976 C365.740941,147.294976 368.657633,142.829089 374.16694,143.148081 C379.676247,143.467073 380.972554,141.234129 388.426328,147.294976 C388.426328,147.294976 397.50048,151.12288 400.741249,153.036821 C403.982018,154.950763 407.546863,154.950773 407.87094,158.140693 C407.935741,158.78187 407.582469,160.016369 406.976486,161.576241 C404.756607,167.292592 399.146816,177.407813 398.268525,178.983635 C398.190748,179.120798 398.148618,179.194182 398.148618,179.194182 C398.148618,179.194182 397.980095,184.929651 398.15835,191.644421 L398.15835,191.660366 C398.333367,198.100811 398.825967,205.440824 400.09308,209.498412 C402.68571,217.792192 410.463555,241.397576 407.222786,242.035586 Z" id="Path" fill="#575A89" fill-rule="nonzero"></path>
                    <path d="M392.937694,122.203399 C392.709385,121.195908 392.270263,120.244554 391.647499,119.408201 C391.399155,117.09538 390.603317,114.869392 389.322004,112.903706 C388.820167,111.982598 388.107494,111.185097 387.238595,110.572313 C386.243688,110.016767 385.108249,109.74231 383.960785,109.780005 C383.752705,109.776643 383.378313,109.837829 383.041353,109.852713 C382.825786,109.787994 382.608156,109.730232 382.390001,109.675911 C382.262628,109.401296 382.010275,108.60096 381.939923,108.655159 L380.988757,109.387864 C380.586619,109.320136 380.182364,109.267368 379.776639,109.225523 C379.628921,108.817014 379.481192,108.408506 379.33345,108 C379.093842,108.365408 378.883744,108.748236 378.705035,109.145059 C378.301183,109.125868 377.897057,109.119148 377.492657,109.124897 L376.684231,108.372 C376.586947,108.801042 376.236847,109.133514 375.792395,109.21893 C375.420394,109.255932 375.049906,109.304264 374.680651,109.361855 C374.650591,109.361664 374.620094,109.361855 374.590627,109.36114 C372.599747,109.313004 370.457518,109.226461 368.792702,110.286125 C368.013735,110.804707 367.379602,111.502512 366.9471,112.317041 C366.743304,112.451357 366.538785,112.584685 366.340739,112.727091 C365.673043,113.168677 365.094297,113.724954 364.633074,114.368455 C364.297806,114.923481 364.043511,115.520885 363.877448,116.143612 C363.2421,118.017848 362.947762,119.984924 363.007587,121.956935 C363.075645,123.942422 363.848337,125.844312 365.195187,127.341452 C366.04904,128.230888 367.134462,128.88768 367.98947,129.776072 C369.749977,131.605307 370.07997,134.1565 371.585769,136.092011 C373.17845,138.139177 376.085336,139.486294 378.638256,139.872413 C381.738261,140.325365 384.896628,139.561678 387.414176,137.750413 C388.012367,137.346519 388.52054,136.829972 388.908391,136.231575 C389.794457,134.74567 389.418921,132.878073 389.74787,131.191622 C390.364519,128.030558 393.476163,125.377841 392.937694,122.203399 Z" id="Path" fill="#454545" fill-rule="nonzero"></path>
                    <path d="M350.08767,243 C350.08767,243 355.189341,260.237439 348.727226,262.791133 C342.265111,265.344827 344.305783,243.638423 344.305783,243.638423 L350.08767,243 Z" id="Path" fill="#F4C8C8" fill-rule="nonzero"></path>
                    <path d="M354.974815,203.157072 C354.974815,203.157072 352.772219,234.457758 353.111338,242 C351.298273,241.501686 350.170094,240.919795 350.277555,240.302521 C350.613314,238.373556 354.306659,201.723224 354.306659,198.186788 C354.306659,194.650353 355.649692,177.611145 355.649692,177.611145 L346,159.430656 C346.154438,158.530453 346.248456,158 346.248456,158 L351.116954,167.805573 L358,169.573793 L354.974815,203.157072 Z" id="Path" fill="#000000" fill-rule="nonzero" opacity="0.1"></path>
                    <path d="M348.097516,157 L345.871897,158.914893 C345.871897,158.914893 343.010386,175.829789 343.328331,179.978725 C343.646277,184.12766 336.651472,247 342.056549,247 C347.461625,247 353.502598,246.042553 352.548761,243.808511 C351.594924,241.574469 354.136629,203.742622 354.136629,203.742622 L357,170.404258 L348.097516,157 Z" id="Path" fill="#575A89" fill-rule="nonzero"></path>
                    <path d="M408,161.432827 C405.960598,167.201647 400.806886,177.409714 400,179 C400.023808,174.882654 400.038709,171.969278 400.038709,171.969278 L406.291024,158.126722 L407.630803,157 C407.630803,157 407.773724,158.70295 408,161.432827 Z" id="Path" fill="#000000" fill-rule="nonzero" opacity="0.1"></path>
                    <path d="M408.308152,241.198965 C407.641746,241.345178 406.008961,241.643978 403.879929,242 C402.775092,232.99777 399.821045,207.109962 400.008529,204.671841 C400.100864,203.470282 400.178756,197.532365 400.239327,191 C400.395121,197.41791 400.833617,204.73224 401.961555,208.77563 C404.269408,217.0404 411.192969,240.563188 408.308152,241.198965 Z" id="Path" fill="#000000" fill-rule="nonzero" opacity="0.1"></path>
                    <path d="M403.110437,156 L407.901471,157.268856 C407.901471,157.268856 411.095499,192.479611 411.414901,198.506681 C411.734304,204.533752 415.567131,241.647785 414.928326,243.233855 C414.289522,244.819925 404.388046,247.040423 404.068643,245.454353 C403.749241,243.868283 399.105998,208.079056 399.351505,205.196155 C399.597011,202.313254 398,172.495131 398,172.495131 L403.110437,156 Z" id="Path" fill="#575A89" fill-rule="nonzero"></path>
                    <polyline id="Path" stroke="#3F3D56" points="99 175 157.371991 126.501502 216.256018 93.3183183 274.628009 61.1561562 333 5"></polyline>
                    <circle id="Oval" fill="#F2F2F2" fill-rule="nonzero" cx="98" cy="178" r="6"></circle>
                    <circle id="Oval" fill="#F2F2F2" fill-rule="nonzero" cx="157" cy="130" r="6"></circle>
                    <circle id="Oval" fill="#F2F2F2" fill-rule="nonzero" cx="216" cy="97" r="6"></circle>
                    <circle id="Oval" fill="#F2F2F2" fill-rule="nonzero" cx="274" cy="64" r="6"></circle>
                    <circle id="Oval" fill="#F2F2F2" fill-rule="nonzero" cx="332" cy="8" r="6"></circle>
                    <circle id="Oval" stroke="#3F3D56" cx="101" cy="176" r="6"></circle>
                    <circle id="Oval" stroke="#3F3D56" cx="158" cy="128" r="6"></circle>
                    <circle id="Oval" stroke="#3F3D56" cx="217" cy="95" r="6"></circle>
                    <circle id="Oval" stroke="#3F3D56" cx="275" cy="61" r="6"></circle>
                    <circle id="Oval" stroke="#3F3D56" cx="333" cy="6" r="6"></circle>
                </g>
            </g>
        </g>
    </g>
</svg>