<?xml version="1.0" encoding="UTF-8"?>
<svg width="360px" height="288px" viewBox="0 0 360 288" version="1.1" xmlns="http://www.w3.org/2000/svg" xmlns:xlink="http://www.w3.org/1999/xlink">
    <!-- Generator: sketchtool 57.1 (101010) - https://sketch.com -->
    <title>D9CDA066-5F46-431D-B304-0D6298C12F85</title>
    <desc>Created with sketchtool.</desc>
    <g id="Landing-Page" stroke="none" stroke-width="1" fill="none" fill-rule="evenodd">
        <g id="Landing-Page---Social-sharing" transform="translate(-833.000000, -3334.000000)" fill-rule="nonzero">
            <g id="Section-4" transform="translate(3.000000, 2352.000000)">
                <g id="undraw_gradma_wanr" transform="translate(830.000000, 982.000000)">
                    <path d="M302.447771,165.949458 L304.064465,164.938016 L304.528552,164.63535 C297.390091,163.400929 292.064413,157.332787 291.724331,150.046064 C291.60661,147.612854 292.064228,145.186264 293.059531,142.96597 C294.930284,138.764667 298.551425,135.612761 302.949897,134.357219 L302.904249,140.763018 L306.39631,133.794029 L306.438153,133.794029 C310.52725,133.601569 314.524744,135.053223 317.55102,137.829565 C320.577296,140.605907 322.38439,144.479454 322.574666,148.597863 C322.574666,148.892867 322.574666,149.187871 322.574666,149.479044 C323.805387,148.127643 324.83088,146.600339 325.617856,144.94671 C327.093803,141.621212 327.139451,137.858954 327.006311,133.288308 C326.774268,124.223642 326.386261,115.090013 325.865115,105.987035 C318.332957,105.140689 312.527839,98.9074824 312.170762,91.2828125 C312.147938,90.8077412 312.170762,90.3365011 312.170762,89.8729235 C312.170762,89.7541557 312.170762,89.6392191 312.170762,89.5242825 C312.19739,89.0721986 312.243038,88.6239458 312.307705,88.1833555 C312.307705,88.1105623 312.338137,88.0416004 312.349549,87.9688072 C312.410413,87.5959018 312.486493,87.2281047 312.577788,86.8654159 C312.60822,86.7274919 312.642456,86.5933992 312.680496,86.4554753 C312.787008,86.0723533 312.908735,85.666244 313.060895,85.283122 C313.106543,85.1566918 313.159798,85.0302615 313.20925,84.9 C313.318298,84.6164897 313.436222,84.3368107 313.563021,84.0609628 C313.631493,83.9153765 313.696161,83.7697901 313.764632,83.628035 C313.764632,83.593554 313.798868,83.5552418 313.817888,83.5169296 L313.817888,83.5169296 C317.180571,76.83151 324.802738,73.5168494 331.940082,75.6361102 L331.833571,83.9690136 L335.291395,77.0728176 C341.115387,80.4363034 344.094963,87.2201524 342.648306,93.8229113 L342.648306,93.8229113 C342.625482,93.9340167 342.591246,94.0412908 342.564618,94.148565 C342.51897,94.3554509 342.465715,94.5585055 342.408655,94.7615602 C342.336379,95.0220832 342.256495,95.2749437 342.169004,95.5278042 C342.104336,95.7193652 342.043472,95.9109262 341.971196,96.098656 C341.864685,96.3745038 341.746761,96.6426892 341.628837,96.9108746 C341.556562,97.0679546 341.495698,97.2288659 341.419618,97.3821147 C341.225615,97.7652367 341.012592,98.1751772 340.784352,98.5582992 C340.704469,98.6923919 340.613173,98.8188221 340.529485,98.9414212 C340.36211,99.1981129 340.198538,99.4548047 340.015947,99.7076652 C339.905631,99.860914 339.787708,100.0065 339.669784,100.155918 C339.502409,100.370466 339.331229,100.585015 339.148638,100.788069 C338.966047,100.991124 338.889967,101.079242 338.768239,101.220997 C338.646512,101.362752 338.387841,101.604119 338.186229,101.807174 C338.05309,101.933604 337.91995,102.063865 337.783007,102.190296 C337.554767,102.39335 337.315116,102.573418 337.075465,102.776472 C336.953737,102.872253 336.835814,102.971865 336.695066,103.063814 C336.314668,103.33583 335.953289,103.592522 335.55387,103.830058 C335.481594,103.876032 335.405515,103.914345 335.329435,103.956488 C335.006096,104.148049 334.671345,104.33961 334.33279,104.500521 C334.188239,104.573315 334.036079,104.634614 333.887724,104.703576 C333.606229,104.830006 333.324734,104.952605 333.039435,105.063711 C332.872059,105.128841 332.70088,105.18631 332.5297,105.243778 C332.248205,105.34339 331.959102,105.431508 331.669999,105.511963 C331.495016,105.561769 331.323837,105.607744 331.148853,105.649887 C330.833122,105.726512 330.513587,105.787811 330.186444,105.84528 L330.125581,105.84528 C330.338604,109.6765 330.527535,113.519213 330.692375,117.37342 C332.55149,113.52787 335.902885,110.624678 339.956217,109.34849 C344.009548,108.072303 348.406016,108.536088 352.108822,110.630473 L349.381363,118.154989 L354.992244,112.729982 C358.000054,115.499134 359.793697,119.357374 359.979271,123.457398 C360.054117,124.896097 359.926043,126.338218 359.598872,127.740702 C358.156785,133.945316 353.098916,138.633813 346.840176,139.567641 C340.581435,140.501468 334.391159,137.491237 331.224933,131.9742 C331.224933,132.357322 331.251561,132.740444 331.262973,133.142722 C331.36568,137.180828 331.495016,142.199726 329.497923,146.682253 C328.143703,149.724242 325.964019,152.191547 323.814766,154.402161 C322.412363,155.8427 320.96558,157.235987 319.474417,158.582022 C318.022895,160.566716 316.124764,162.176447 313.935812,163.279098 C311.491116,165.174275 308.955125,166.949407 306.327838,168.604494 L304.692123,169.627429 C303.223784,170.543091 301.717405,171.485571 300.241458,172.466363 C300.50013,172.439545 300.758801,172.408895 301.021276,172.397402 C307.733275,172.080475 313.878183,176.17181 316.218204,182.515653 L306.575097,190.415629 L317.180613,187.940661 C317.171982,193.281805 314.443035,198.244955 309.952548,201.086377 C305.462061,203.927798 299.838122,204.25006 295.056624,201.939939 L295.771774,202.836444 C296.247272,203.430283 296.718966,204.020291 297.179249,204.606468 C303.455828,212.609886 305.198054,220.207195 302.094,226 L298.339465,223.946466 C301.363635,218.30691 296.81787,211.088892 293.835544,207.288322 C293.38287,206.709807 292.918783,206.138956 292.454697,205.548948 C288.449099,200.533881 283.884314,194.84835 284.002238,187.871699 C284.169613,177.358831 294.303435,171.033487 302.447771,165.949458 Z" id="Path" fill="#F2F2F2"></path>
                    <path d="M237.673425,98.7800068 L236.844018,97.0477631 C236.767926,96.88297 236.695638,96.7143445 236.615741,96.5457191 C243.269578,99.3301024 250.950661,97.1057399 255.120548,91.1869178 C259.290435,85.2680956 258.839122,77.2303753 254.033272,71.8229225 L250.689014,77.2725918 L251.449938,69.504322 C251.439256,69.4944695 251.427805,69.4854984 251.415696,69.4774952 C248.066181,67.1066589 243.91886,66.1732554 239.886121,66.8826286 C235.853383,67.5920018 232.26558,69.8860418 229.912009,73.2600716 C229.740801,73.5015126 229.592421,73.7544509 229.440237,74.0035567 C229.118197,72.1960841 229.064345,70.3504652 229.280443,68.5270606 C229.801675,64.9207745 231.780075,61.7283874 234.313949,57.9304814 C239.336042,50.4036526 244.525537,42.9036506 249.802539,35.4917938 C256.615203,38.852005 264.842111,36.7250128 269.206078,30.4751854 C269.480011,30.0919456 269.723506,29.6857115 269.967002,29.2833098 C270.024071,29.1836674 270.08114,29.0801927 270.134405,28.976718 C270.351268,28.5934782 270.552912,28.1795793 270.731729,27.7733451 L270.811626,27.5702281 C270.956202,27.2214799 271.089363,26.8688993 271.192088,26.5124863 C271.237743,26.3783524 271.283399,26.2480509 271.321445,26.1292466 C271.443192,25.7460068 271.549722,25.3397727 271.637228,24.9412033 C271.667665,24.8070694 271.690492,24.6729355 271.717125,24.5579636 C271.774194,24.2590366 271.823654,23.9562772 271.8617,23.6573502 C271.884528,23.4963895 271.907356,23.3392612 271.922574,23.1821329 C271.922574,23.1399765 271.922574,23.1016525 271.922574,23.0594961 L271.922574,23.0594961 C272.664881,15.5939017 268.001989,8.66139798 260.843533,6.5878515 L256.494858,13.6816194 L257.255781,6.01682427 C250.547957,5.70239807 244.417496,9.82128652 242.128629,16.1803426 L242.128629,16.1803426 C242.090583,16.2876497 242.063951,16.3949568 242.025905,16.5022639 C241.957422,16.7015486 241.892743,16.8855037 241.831869,17.1039504 C241.770996,17.322397 241.691099,17.621324 241.62642,17.8704299 C241.580765,18.0658821 241.531305,18.2536696 241.489454,18.4606191 C241.432385,18.7480489 241.390534,19.0393111 241.348683,19.3305733 C241.322051,19.4991988 241.291614,19.6678243 241.272591,19.8364498 C241.223131,20.2810079 241.192694,20.7293984 241.185085,21.1739566 C241.185085,21.3310849 241.185085,21.4882132 241.185085,21.6453415 C241.185085,21.9519333 241.185085,22.2585251 241.211717,22.5612845 C241.211717,22.7529043 241.245959,22.9445242 241.268786,23.1284793 C241.295419,23.4005795 241.325856,23.6765122 241.367706,23.94478 C241.398143,24.1402323 241.432385,24.3280197 241.470431,24.5196396 C241.523696,24.7917398 241.584569,25.0638401 241.649248,25.3321079 C241.694903,25.5122306 241.740559,25.6923533 241.790019,25.8724759 C241.87372,26.1637382 241.97264,26.4550004 242.075365,26.7462626 C242.124825,26.8918937 242.17048,27.0413572 242.227549,27.1869883 C242.391148,27.6123844 242.569965,28.0339482 242.771609,28.4440147 C242.809656,28.5206626 242.855311,28.5973106 242.897162,28.6739585 C243.06837,29.0112095 243.250991,29.3446281 243.448831,29.6703819 C243.532533,29.8083482 243.627648,29.9463145 243.715154,30.0842808 C243.886362,30.3410515 244.05757,30.5939897 244.240191,30.8507604 C244.350525,30.9963915 244.460859,31.1381902 244.574997,31.2799889 C244.761423,31.5137651 244.955459,31.743709 245.160908,31.9698204 C245.278851,32.1039544 245.396794,32.2380883 245.522347,32.3530602 C245.750623,32.5868364 245.990314,32.8129479 246.23381,33.035227 L246.279465,33.0812157 C244.055033,36.2084521 241.848356,39.3497406 239.659434,42.5050813 C240.133763,38.2566073 238.848706,33.999039 236.107028,30.7354769 C233.365349,27.4719148 229.409487,25.4909451 225.171458,25.2592923 L223.46699,33.0888805 L221.617947,25.477739 C217.603022,26.1894824 214.033546,28.4794344 211.69551,31.8433513 C210.867789,33.0211205 210.210616,34.3115141 209.743742,35.6757489 C207.663154,41.6899277 209.43619,48.3740894 214.217514,52.5414025 C218.998837,56.7087155 225.820475,57.5155123 231.43005,54.5771335 C231.213187,54.9028873 230.99252,55.2248087 230.775657,55.5467301 C228.538543,58.900078 225.757369,63.0697265 225.068733,67.933039 C224.593156,71.2327333 225.118193,74.4902712 225.753564,77.5140329 C226.172072,79.4864401 226.651453,81.4447953 227.191709,83.3890983 C227.374573,85.8505653 228.134767,88.2331748 229.4098,90.3410674 C230.467483,93.2613544 231.654523,96.1356525 232.986138,98.9409675 L233.819349,100.684708 C234.580272,102.252159 235.341195,103.861766 236.067877,105.486703 C235.862428,105.325742 235.660783,105.160949 235.44392,105.007653 C229.946135,101.11575 222.581213,101.250551 217.227421,105.341071 L221.161393,117.221504 L213.52553,109.403413 C210.689579,113.916521 210.351265,119.579836 212.629489,124.402933 C214.907713,129.226029 219.483689,132.534019 224.749146,133.164278 L223.668635,133.547517 L221.53805,134.283338 C211.980856,137.652015 206.460358,143.124679 206,149.693408 L210.283997,150 C210.732942,143.603728 218.414461,139.966783 222.957172,138.368673 C223.645807,138.1234 224.345856,137.885791 225.04971,137.64435 C231.102854,135.574856 237.985403,133.229428 241.584569,127.277715 C247.021365,118.28691 241.831869,107.471884 237.673425,98.7800068 Z" id="Path" fill="#F2F2F2"></path>
                    <path d="M78.2912596,70.8000318 L76.3676352,70.6578476 L75.8136314,70.6040481 C81.601353,66.179208 83.5515541,58.341827 80.5112806,51.7253453 C77.471007,45.1088635 70.2501699,41.4758731 63.1177101,42.9741889 L66.1724257,48.6269737 L59.7975344,44.0732347 C59.7836504,44.0772575 59.7706142,44.0837681 59.7590619,44.0924488 C56.0059219,45.8379371 53.1010509,49.0016207 51.6839085,52.8870667 C50.266766,56.7725126 50.4535219,61.0612123 52.2030651,64.809079 C52.3261771,65.0780763 52.4723725,65.3317022 52.6108735,65.5776426 C50.875436,64.9539492 49.2419113,64.0772647 47.7633399,62.976055 C44.8702088,60.7356923 43.1043216,57.4001265 41.0652797,53.2883116 C37.0487519,45.1261668 33.139947,36.8295234 29.3542542,28.5059803 C35.7112919,24.222699 38.0093428,15.9598961 34.7750278,9.0152089 C34.5749709,8.5809705 34.3479832,8.16978901 34.113301,7.76245033 L33.9363275,7.46271055 C33.6977981,7.07842878 33.4515742,6.69414701 33.186114,6.34060778 C33.1437943,6.2791227 33.09378,6.22532325 33.0514603,6.16768099 C32.8206254,5.86409839 32.5782487,5.57204425 32.3320248,5.29151855 L32.0473284,4.9764075 C31.7664792,4.67666772 31.4779355,4.38461358 31.1740029,4.1079307 C31.0739744,4.01570308 30.9662514,3.93116109 30.866223,3.83893346 C30.635388,3.63910694 30.3968586,3.4546517 30.1544819,3.25866799 C30.0275227,3.16259755 29.9044107,3.06268429 29.769757,2.97045667 L29.6697286,2.89360031 L29.6697286,2.89360031 C23.543545,-1.46939398 15.1719582,-0.840591262 9.76791022,4.3884564 L13.7459655,11.7436095 L7.44032466,7.2551984 C3.7841121,12.970272 4.27519306,20.3965187 8.65220806,25.581596 L8.65220806,25.581596 C8.72530578,25.6699808 8.80609801,25.7468371 8.87919574,25.8313791 C9.0176967,25.9927775 9.1600449,26.150333 9.30624036,26.3002029 C9.45243582,26.4500728 9.69096525,26.6844847 9.87563319,26.8727827 C10.0603011,27.0610808 10.1680241,27.1533084 10.3219141,27.287807 C10.5450545,27.4799479 10.7758894,27.6720888 11.0067244,27.8450156 C11.1413781,27.9526145 11.2721845,28.0640562 11.4106855,28.1678123 C11.7723269,28.4329667 12.14551,28.6789071 12.5302349,28.9133189 C12.6648886,28.9940181 12.8033896,29.0631888 12.9418905,29.1400452 C13.2073507,29.2937579 13.4766581,29.4436278 13.75366,29.5781264 C13.9267862,29.6626684 14.0999124,29.7356819 14.2730386,29.8125383 C14.5269571,29.9278228 14.7770282,30.0354217 15.0424884,30.1314921 C15.2271564,30.2045057 15.407977,30.2698336 15.5964922,30.3313187 C15.8581052,30.4235463 16.1235653,30.5042455 16.3890255,30.5811018 L16.9314876,30.7271289 C17.231573,30.8001424 17.5316584,30.8616275 17.8355911,30.915427 C17.989481,30.9461695 18.1395237,30.9807549 18.2934137,31.0038118 C18.7473891,31.0729825 19.2052117,31.1267819 19.6668815,31.1536816 C19.751521,31.1536816 19.8400077,31.1536816 19.9284945,31.1536816 C20.3132193,31.1536816 20.6979442,31.1767386 21.0826691,31.1536816 C21.2442536,31.1536816 21.4096853,31.1344676 21.575117,31.1229391 C21.8828969,31.1229391 22.194524,31.0806681 22.5023039,31.0460828 L23.0409188,30.9692264 C23.3410042,30.9231126 23.6410896,30.8654703 23.9373278,30.8001424 C24.1143012,30.7655571 24.2912747,30.7271289 24.4682481,30.6810151 C24.7875698,30.6003159 25.1030442,30.5042455 25.4185186,30.4043322 L25.4839218,30.3851181 C27.0818125,33.8974535 28.7027867,37.3995413 30.3468444,40.8913817 C26.8896577,38.3523581 22.5380777,37.3478293 18.3161102,38.114179 C14.0941428,38.8805287 10.3746156,41.3500832 8.03280099,44.9417115 L13.984495,50.3523989 L6.38233123,48.177364 C4.97842493,52.0485881 5.17077191,56.3181959 6.91709882,60.0478279 C7.52336021,61.3596355 8.31356751,62.5785174 9.26392062,63.6677622 C13.4474002,68.5045949 20.1638286,70.299043 26.2061945,68.1942797 C32.2485604,66.0895165 36.3913103,60.5124442 36.6563325,54.1260458 C36.8256114,54.4795851 36.9948904,54.8331243 37.1680166,55.1866635 C38.9569873,58.8181262 41.1806971,63.3411227 45.058724,66.3884771 C47.6902422,68.4520702 50.7872775,69.6241296 53.7458119,70.5809912 C55.6720012,71.2035277 57.6174267,71.7632981 59.5820884,72.2603025 C61.8158504,73.33181 64.2722731,73.8586148 66.749513,73.7974296 C69.8273121,74.3354241 72.9243475,74.7350771 76.0367718,74.969489 L77.9603962,75.1116733 C79.7032,75.2384863 81.4921707,75.3691421 83.2695996,75.5459117 C83.027223,75.6458249 82.780999,75.7418954 82.5424696,75.8533371 C76.3810155,78.7255376 72.7883625,85.2498278 73.659172,91.9854858 L85.9703683,94.4871601 L75.3173363,97.2578317 C77.8119022,102.001536 82.5700586,105.133751 87.9181035,105.552707 C93.2661483,105.971663 98.4549968,103.618678 101.659449,99.3214248 C101.586351,99.7057065 101.513254,100.089988 101.436309,100.455056 C101.290113,101.22362 101.140071,101.949912 101.00157,102.687733 C99.1125704,112.740544 101.090056,120.307052 106.572386,124 L109,120.403123 C103.663866,116.810088 104.383301,108.263662 105.272016,103.494725 C105.40667,102.768432 105.552865,102.034454 105.69906,101.300476 C106.968653,94.952141 108.380593,87.7583863 105.045028,81.609878 C99.9782014,72.3640586 87.9517015,71.4955818 78.2912596,70.8000318 Z" id="Path" fill="#F2F2F2"></path>
                    <rect id="Rectangle" fill="#3F3D56" x="27" y="211" width="36" height="74"></rect>
                    <rect id="Rectangle" fill="#000000" opacity="0.1" x="27" y="211" width="36" height="74"></rect>
                    <path d="M229,107.237839 L229,107.237839 C228.589526,58.4538306 188.934655,19.0268684 140.061379,19 C90.7661207,18.9731584 51,59.4129374 51,108.688008 L51,270.270649 C51,278.957729 58.0418662,286 66.7284483,286 L229,286 C278.153319,286 318,245.383745 318,196.227604 C318,147.071462 278.153319,107.237839 229,107.237839 Z" id="Path" fill="#FF826B"></path>
                    <path d="M51,228 L92,228 L92,286 L66.8517891,286 C58.1098807,286 51.0231638,278.902221 51.0231638,270.146667 L51.0231638,228 L51,228 Z" id="Path" fill="#5F5478"></path>
                    <rect id="Rectangle" fill="#D4A1A1" x="63" y="200" width="44" height="44"></rect>
                    <rect id="Rectangle" fill="#000000" opacity="0.1" x="63" y="204" width="44" height="44"></rect>
                    <path d="M142.252052,200 C142.252052,200 184.273239,219.347453 182.970315,229.021179 C181.667392,238.694906 173.065049,240 173.065049,240 L147.749475,227.712269 L130,213.592826 L142.252052,200 Z" id="Path" fill="#5F5478"></path>
                    <path d="M101.456817,219.634235 C101.75262,221.553091 101.929333,223.579402 101.230163,225.390802 C100.461843,227.378736 98.7523316,228.844742 97.8149816,230.763598 C96.4127982,233.611179 96.9390971,237.122685 98.4872613,239.89735 C100.035425,242.672016 102.470999,244.836485 104.975721,246.805231 C108.702071,249.714216 112.751116,252.327697 117.268836,253.690085 C122.681648,255.317274 128.459412,255.071661 134.106561,254.810696 C135.038758,254.816982 135.965572,254.669153 136.849463,254.373197 C137.466425,254.095909 138.047002,253.744048 138.578182,253.325502 C141.528529,251.184059 144.524976,248.954349 146.518766,245.903368 C149.24901,241.656346 149.758355,236.35365 147.886375,231.66546 C146.030883,227.148474 142.08172,223.636968 140.73716,218.943447 C139.761394,215.535559 140.276168,211.905085 140.264644,208.359039 C140.309003,207.763931 140.19363,207.167775 139.930424,206.632069 C139.396442,205.749396 138.23628,205.526808 137.210573,205.396326 C130.25728,204.486789 123.23868,203.807514 116.216238,204.04929 C112.660334,204.156919 109.119284,204.556103 105.628793,205.242818 C103.742568,205.626589 99.2017986,205.971983 98.7139156,208.393579 C98.4296373,209.840396 99.7165728,212.01254 100.108416,213.382603 C100.686577,215.43669 101.136905,217.52456 101.456817,219.634235 L101.456817,219.634235 Z" id="Path" fill="#FBBEBE"></path>
                    <path d="M101.456817,219.634235 C101.75262,221.553091 101.929333,223.579402 101.230163,225.390802 C100.461843,227.378736 98.7523316,228.844742 97.8149816,230.763598 C96.4127982,233.611179 96.9390971,237.122685 98.4872613,239.89735 C100.035425,242.672016 102.470999,244.836485 104.975721,246.805231 C108.702071,249.714216 112.751116,252.327697 117.268836,253.690085 C122.681648,255.317274 128.459412,255.071661 134.106561,254.810696 C135.038758,254.816982 135.965572,254.669153 136.849463,254.373197 C137.466425,254.095909 138.047002,253.744048 138.578182,253.325502 C141.528529,251.184059 144.524976,248.954349 146.518766,245.903368 C149.24901,241.656346 149.758355,236.35365 147.886375,231.66546 C146.030883,227.148474 142.08172,223.636968 140.73716,218.943447 C139.761394,215.535559 140.276168,211.905085 140.264644,208.359039 C140.309003,207.763931 140.19363,207.167775 139.930424,206.632069 C139.396442,205.749396 138.23628,205.526808 137.210573,205.396326 C130.25728,204.486789 123.23868,203.807514 116.216238,204.04929 C112.660334,204.156919 109.119284,204.556103 105.628793,205.242818 C103.742568,205.626589 99.2017986,205.971983 98.7139156,208.393579 C98.4296373,209.840396 99.7165728,212.01254 100.108416,213.382603 C100.686577,215.43669 101.136905,217.52456 101.456817,219.634235 L101.456817,219.634235 Z" id="Path" fill="#F4C8C8" opacity="0.35172526"></path>
                    <circle id="Oval" fill="#D4A1A1" cx="70" cy="184" r="33"></circle>
                    <circle id="Oval" fill="#F4C8C8" cx="119" cy="188" r="33"></circle>
                    <path d="M139.390132,170.469805 C137.967441,171.095688 136.743621,172.099391 135.359174,172.805417 C131.377933,174.831904 126.597385,174.179307 122.233701,173.209951 C119.919916,172.694743 117.204564,171.683407 116.764754,169.363061 C116.294348,166.897692 118.738164,164.905553 119.51835,162.524144 C115.81845,161.834485 111.993624,162.530168 108.775502,164.47812 C104.756017,166.93204 101.818848,171.278873 97.263942,172.469578 C96.4247079,172.739547 95.5216802,172.739547 94.682446,172.469578 C93.813779,172.065048 93.1258312,171.354084 92.7511046,170.473621 C90.6629612,166.164951 93.5159923,161.234215 94.2311623,156.498112 C94.8163014,152.551996 94.0208182,147.991446 96.6941007,145.026135 C99.4553453,141.973047 104.270313,142.411929 108.301272,141.522717 C111.061546,140.912513 113.612392,139.588454 115.697736,137.683459 C116.263067,137.104568 116.880077,136.578279 117.541115,136.111119 C118.394846,135.619793 119.339253,135.305656 120.317657,135.18756 C124.122625,134.605819 128.011114,135.387282 131.293796,137.393416 C133.588459,138.79402 135.55422,140.786159 138.124243,141.534166 C139.501041,141.9387 140.958152,141.950149 142.377019,142.152416 C148.339261,143.089739 153.285316,147.25618 155.211834,152.964163 C155.548385,154.009846 155.7855,155.108957 156.389761,156.017251 C157.586811,157.837654 159.912069,158.520783 161.552753,159.955734 C163.193437,161.390685 164.046287,163.535479 164.757633,165.596314 C166.632771,171.166322 167.712934,176.971978 167.966337,182.842443 C168.104016,186.036736 167.897497,189.509624 165.847598,191.963543 C165.362013,192.47445 164.902499,193.009417 164.4708,193.566414 C163.051933,195.684494 163.816821,198.527681 163.507041,201.042663 C163.251054,203.073546 162.285477,204.949268 160.780217,206.33977 C160.425872,206.731588 159.931386,206.968714 159.403419,207 C158.791509,206.969469 158.317278,206.458077 157.984552,205.942868 C156.814274,204.126281 156.515968,201.893711 155.655469,199.909204 C154.79497,197.924697 152.947767,196.027966 150.802257,196.329458 C150.255362,196.405785 149.739063,196.619502 149.192168,196.711094 C147.662393,196.955341 146.090548,196.092844 145.130614,194.863976 C144.17068,193.635108 143.715572,192.089483 143.394319,190.566755 C142.484103,186.235187 142.518523,181.789128 142.866547,177.381232 C143.000402,175.679136 143.983283,172.652763 143.528175,171.042259 C143.073066,169.431755 140.717212,169.882086 139.390132,170.469805 Z" id="Path" fill="#9D9D9D"></path>
                    <path d="M124.037042,248.530884 C118.785436,246.434262 114.38022,242.658071 111.512521,237.794747 C109.409724,234.20581 108.202634,230.126078 105.815363,226.705852 C102.336329,221.721217 95.7742184,224.232706 89.6964811,224.202032 C81.911903,224.163688 75.5496922,223.139921 69.1567276,227.572412 C64.897314,230.521015 60.3149846,233.92207 59.1617138,238.956551 C58.1429912,243.320023 59.9613149,247.974905 58.9425923,252.342212 C58.254474,255.286981 59.1309599,257.994021 58.6312092,260.980968 C57.927714,265.198736 57.3626113,269.136597 59.5269162,272.821393 L67.0001112,285.543714 L148.113493,285.850461 C148.063518,285.850461 147.963568,286 147.913593,286 L206,286 C205.896206,283.258451 205.723215,280.562914 204.846729,277.970904 C203.920268,275.28687 202.594007,272.756209 201.275434,270.240885 L186.621206,242.330765 C183.822602,236.993371 180.758746,231.379906 175.530585,228.366119 C172.674317,226.721189 169.379807,225.9965 166.346705,224.750342 C162.36792,223.128418 161.303067,224.263381 157.151292,223.151424 C152.999517,222.039467 145.295668,219.14071 143.031413,222.767991 C141.247687,225.636073 141.770503,229.309365 141.109295,232.618396 C140.509594,235.624514 138.910392,238.339223 137.138199,240.846878 C135.512087,243.147478 133.678386,245.367558 131.371845,246.981813 C129.065303,248.596067 126.6665,249.577657 124.037042,248.530884 Z" id="Path" fill="#3F3D56"></path>
                    <path d="M124,265 C124,265 95.7321343,266.998526 96.0019189,272.494472 C96.0019189,272.494472 122.912927,279.241319 122.912927,278.993327 C122.912927,278.745335 124,265 124,265 Z" id="Path" fill="#F4C8C8"></path>
                    <path d="M90.2237782,251.586549 C90.2237782,251.586549 92.3244529,268.392212 99.9374821,271.59292 C107.550511,274.793628 131.719771,275.32708 131.719771,275.32708 L148,286 L67.6338581,286 C67.6338581,286 63.9576773,242 67.6338581,242 C71.3100389,242 90.2237782,251.586549 90.2237782,251.586549 Z" id="Path" fill="#3F3D56"></path>
                    <path d="M153.706306,246 L172.637876,261.686349 L121.136029,262.995135 C121.136029,262.995135 113.664655,272.152819 116.744487,274.762759 C119.824319,277.372699 134.272298,279.204235 134.272298,279.204235 L147.673211,286 L204,285.931317 L185.25253,252.276829 L153.706306,246 Z" id="Path" fill="#3F3D56"></path>
                    <path d="M153.706306,246 L172.637876,261.686349 L121.136029,262.995135 C121.136029,262.995135 113.664655,272.152819 116.744487,274.762759 C119.824319,277.372699 134.272298,279.204235 134.272298,279.204235 L147.673211,286 L204,285.931317 L185.25253,252.276829 L153.706306,246 Z" id="Path" fill="#000000" opacity="0.1"></path>
                    <polygon id="Path" fill="#5F5478" points="163.598255 222 131 248.37866 154.923036 267 182 232.086402"></polygon>
                    <path d="M146.336095,251.225989 C146.336095,251.225989 167.969709,247.255922 171.880957,245.402195 C175.792204,243.548467 191.437195,236.670366 187.252008,241.965075 C183.066821,247.259784 181.259581,247.518534 181.259581,247.518534 C181.259581,247.518534 197.418209,248.843176 196.896963,252.017685 C196.375716,255.192193 194.553258,255.721278 194.553258,255.721278 C194.553258,255.721278 201.329456,259.691344 199.765718,260.74179 C198.20198,261.792236 199.244472,265.503553 198.981947,266.299111 C198.719421,267.094669 200.80821,271.319623 198.723226,271.856431 C196.638242,272.39324 174.479578,271.327347 169.807387,270.269177 C165.135196,269.211008 144,270.531789 144,270.531789 L146.336095,251.225989 Z" id="Path" fill="#E0AAAA"></path>
                    <path d="M44.7200112,215 C44.7200112,215 36.349986,225.263287 44.7200112,237.631469 C53.0900364,249.999651 70.3570319,264.211537 79.7771287,266.577624 C89.1972256,268.943711 151.720398,270 151.720398,270 C151.720398,270 154.599503,241.576227 151.720398,240.52378 C148.841292,239.471332 97.8269049,242.893708 90.7627869,237.631469 C83.6986688,232.36923 62.5063148,217.104896 56.2326143,216.578672 C52.3708816,216.249793 48.5283499,215.722884 44.7200112,215 Z" id="Path" fill="#5F5478"></path>
                    <path d="M91.5740775,160.419902 C89.2894813,159.449447 86.9187874,158.700117 84.493897,158.181996 C72.5389628,155.644679 61.0251139,169.832158 63.8769589,181.628187 C65.0176969,186.388056 68.2345781,190.794773 67.7250484,195.6698 C67.2459385,200.302994 63.4929104,204.018762 62.7172086,208.609732 C62.4869696,209.650704 62.5867343,210.738404 63.0023931,211.719001 C63.7248605,213.196864 65.4169552,213.956907 66.2687062,215.361836 C67.7022337,217.726416 66.101398,220.977714 63.7134531,222.351934 C61.3255083,223.726154 58.4508485,223.779894 55.7282871,224.006372 C52.3102051,224.291078 48.9247914,224.888515 45.6137436,225.791323 C43.7353283,226.305695 41.8417032,226.942904 40.3245217,228.171257 C36.7349995,231.073241 36.2406797,236.535574 37.5525284,240.984516 C38.8643771,245.433457 41.5907409,249.298931 43.5566127,253.494525 C45.5224845,257.690119 46.6974447,262.707174 44.7581901,266.910445 C42.7276764,271.313323 37.5068988,274.449463 37.7198366,279.305296 C37.7768735,280.61426 38.2559835,281.896354 38.1647244,283.201479 C37.963194,286.218621 34.6322391,288.279952 31.6511105,287.969025 C28.6699818,287.658098 26.1261361,285.592929 24.2173012,283.255219 C21.0442029,279.369424 19.090235,274.61715 18.6048702,269.605145 C18.1409701,264.737795 19.0839802,259.739933 17.9508471,254.983903 C16.8975657,250.573348 14.1673994,246.8 11.8136767,242.934526 C4.24685543,230.486679 0.165215052,216.20046 0.00323592953,201.596604 C-0.0309862104,197.915383 0.193358929,194.18426 1.29607233,190.675776 C2.68016777,186.280575 5.37230944,182.441971 7.38000832,178.296279 C9.50558345,173.908755 14.4753987,161.072465 18.9661039,149.184309 C23.5171462,137.090495 35.4280355,129.47945 48.2032188,130.501825 C49.8273315,130.680498 51.4677098,130.641777 53.081775,130.386667 C55.9792495,129.818554 58.6409715,128.379077 61.496619,127.603679 C69.4817849,125.438707 78.698948,129.258117 82.874049,136.478531 C84.0870338,138.578247 84.9045627,140.915957 86.3266827,142.877483 C87.5967043,144.627887 89.288799,146.005945 90.7603511,147.583611 C91.5774557,148.459254 92.3262389,149.397392 93,150.389631" id="Path" fill="#6B6A73"></path>
                    <path d="M228.322746,107.287647 L228.322746,107.287647 C227.913761,58.4760939 188.402706,19.0268702 139.706678,19 C113.080577,19 89.2523948,30.8766078 73,49.6204591 C88.3875212,37.7033268 107.279216,31.2536787 126.710878,31.2834987 C175.406906,31.3103688 214.91796,70.7595926 215.326946,119.571146 L215.326946,119.571146 C264.302001,119.571146 304.004171,159.442615 304.004171,208.626511 C304.033462,230.079876 296.321991,250.817401 282.297362,267 C304.191907,250.161378 317.022242,224.0379 317,196.343012 C317,147.159116 277.297801,107.287647 228.322746,107.287647 Z" id="Path" fill="#000000" opacity="0.1"></path>
                </g>
            </g>
        </g>
    </g>
</svg>