<?xml version="1.0" encoding="UTF-8"?>
<svg width="40px" height="40px" viewBox="0 0 40 40" version="1.1" xmlns="http://www.w3.org/2000/svg" xmlns:xlink="http://www.w3.org/1999/xlink">
    <!-- Generator: sketchtool 57.1 (101010) - https://sketch.com -->
    <title>DEA2DAC4-CB24-4CF0-852C-F870B73F75D6</title>
    <desc>Created with sketchtool.</desc>
    <g id="Landing-Page" stroke="none" stroke-width="1" fill="none" fill-rule="evenodd">
        <g id="Landing-Page---Social-sharing" transform="translate(-280.000000, -1000.000000)">
            <g id="Section-2" transform="translate(3.000000, 780.000000)">
                <g id="Card/No-button-Copy-Card/Feature/Left" transform="translate(249.000000, 160.000000)">
                    <g id="Card/Feature">
                        <g id="icons/arrow-right-icons/talk" transform="translate(24.000000, 56.000000)">
                            <g id="twotone-forum-24px">
                                <polygon id="Path" fill="#FF826B" fill-rule="nonzero" opacity="0.230840774" points="32 23 32 9 10 9 10 25.34 12.34 23 14 23"></polygon>
                                <polygon id="Path" points="0 0 48 0 48 48 0 48"></polygon>
                                <path d="M32,26 C33.1,26 34,25.1 34,24 L34,6 C34,4.9 33.1,4 32,4 L6,4 C4.9,4 4,4.9 4,6 L4,34 L12,26 L32,26 Z M8,24.34 L8,8 L30,8 L30,22 L10.34,22 L8,24.34 Z M44,14 C44,12.9 43.1,12 42,12 L38,12 L38,30 L12,30 L12,34 C12,35.1 12.9,36 14,36 L36,36 L44,44 L44,14 Z" id="Shape" fill="#3F3D56" fill-rule="nonzero"></path>
                            </g>
                        </g>
                    </g>
                </g>
            </g>
        </g>
    </g>
</svg>