<?xml version="1.0" encoding="UTF-8"?>
<svg width="144px" height="115px" viewBox="0 0 144 115" version="1.1" xmlns="http://www.w3.org/2000/svg" xmlns:xlink="http://www.w3.org/1999/xlink">
    <!-- Generator: sketchtool 57.1 (101010) - https://sketch.com -->
    <title>F6CBF3E8-B243-4113-AD95-796F896D0E61</title>
    <desc>Created with sketchtool.</desc>
    <g id="Overview" stroke="none" stroke-width="1" fill="none" fill-rule="evenodd">
        <g id="Dashboard---Overview---Empty" transform="translate(-1050.000000, -601.000000)" fill-rule="nonzero">
            <g id="undraw_gradma_wanr" transform="translate(1050.000000, 601.000000)">
                <path d="M120.979108,66.2645406 L121.625786,65.8606662 L121.811421,65.7398098 C118.956036,65.2468989 116.825765,62.8238559 116.689733,59.914227 C116.642644,58.9426325 116.825691,57.973682 117.223812,57.087106 C117.972113,55.4095026 119.42057,54.1509291 121.179959,53.6495838 L121.1617,56.2074552 L122.558524,53.4246991 L122.575261,53.4246991 C124.2109,53.3478489 125.809898,53.9275022 127.020408,55.036111 C128.230918,56.1447199 128.953756,57.6914486 129.029867,59.3359523 C129.029867,59.453749 129.029867,59.5715457 129.029867,59.6878126 C129.522155,59.1481909 129.932352,58.53833 130.247142,57.8780268 C130.837521,56.5501366 130.85578,55.047846 130.802525,53.2227619 C130.709707,49.6031903 130.554505,45.9560817 130.346046,42.3212118 C127.333183,41.9832614 125.011136,39.4943072 124.868305,36.4497341 C124.859175,36.2600355 124.868305,36.0718668 124.868305,35.8867577 C124.868305,35.839333 124.868305,35.7934382 124.868305,35.7475434 C124.878956,35.5670237 124.897215,35.3880339 124.923082,35.2121038 C124.923082,35.183037 124.935255,35.1555002 124.93982,35.1264334 C124.964165,34.9775302 124.994597,34.8306668 125.031115,34.6858431 C125.043288,34.6307694 125.056982,34.5772254 125.072198,34.5221516 C125.114803,34.3691689 125.163494,34.2070072 125.224358,34.0540244 C125.242617,34.0035401 125.263919,33.9530558 125.2837,33.9010417 C125.327319,33.7878344 125.374489,33.676157 125.425208,33.5660095 C125.452597,33.507876 125.478464,33.4497426 125.505853,33.393139 C125.505853,33.3793705 125.519547,33.3640723 125.527155,33.348774 L125.527155,33.348774 C126.872228,30.6792488 129.921095,29.3556864 132.776033,30.201919 L132.733428,33.5292936 L134.116558,30.7756043 C136.446155,32.1186628 137.637985,34.8274914 137.059322,37.4640097 L137.059322,37.4640097 C137.050193,37.5083747 137.036498,37.5512099 137.025847,37.5940451 C137.007588,37.6766557 136.986286,37.7577366 136.963462,37.8388174 C136.934552,37.9428457 136.902598,38.0438143 136.867601,38.1447829 C136.841734,38.2212743 136.817389,38.2977657 136.788479,38.3727272 C136.745874,38.4828748 136.698704,38.5899627 136.651535,38.6970506 C136.622625,38.7597735 136.598279,38.8240263 136.567847,38.8852194 C136.490246,39.0382021 136.405037,39.2018937 136.313741,39.3548764 C136.281787,39.4084204 136.245269,39.4589047 136.211794,39.5078592 C136.144844,39.6103576 136.079415,39.712856 136.006379,39.8138246 C135.962253,39.8750177 135.915083,39.9331512 135.867914,39.9928144 C135.800963,40.0784848 135.732492,40.1641551 135.659455,40.245236 C135.586419,40.3263168 135.555987,40.3615028 135.507296,40.4181065 C135.458605,40.4747101 135.355136,40.5710892 135.274492,40.6521701 C135.221236,40.7026544 135.16798,40.7546685 135.113203,40.8051528 C135.021907,40.8862337 134.926046,40.9581355 134.830186,41.0392164 C134.781495,41.0774621 134.734326,41.1172376 134.678027,41.1539535 C134.525867,41.2625712 134.381316,41.3650696 134.221548,41.4599189 C134.192638,41.4782769 134.162206,41.4935751 134.131774,41.5104032 C134.002438,41.5868946 133.868538,41.663386 133.733116,41.7276387 C133.675296,41.7567055 133.614432,41.7811827 133.55509,41.8087196 C133.442492,41.8592039 133.329894,41.9081584 133.215774,41.9525234 C133.148824,41.9785304 133.080352,42.0014778 133.01188,42.0244252 C132.899282,42.0642008 132.783641,42.0993868 132.668,42.1315132 C132.598006,42.1514009 132.529535,42.1697589 132.459541,42.186587 C132.333249,42.2171835 132.205435,42.2416607 132.074578,42.2646082 L132.050232,42.2646082 C132.135442,43.7944356 132.211014,45.3288525 132.27695,46.8678588 C133.020596,45.3323092 134.361154,44.1730484 135.982487,43.6634597 C137.603819,43.153871 139.362407,43.3390629 140.843529,44.1753626 L139.752545,47.1799436 L141.996898,45.013708 C143.200022,46.1194458 143.917479,47.6600627 143.991708,49.2972248 C144.021647,49.8717055 143.970417,50.4475524 143.839549,51.0075718 C143.262714,53.4851089 141.239567,55.3572518 138.73607,55.7301343 C136.232574,56.1030168 133.756464,54.9010147 132.489973,52.6980311 C132.489973,52.8510139 132.500624,53.0039966 132.505189,53.1646285 C132.546272,54.7770666 132.598006,56.7811405 131.799169,58.5710386 C131.257481,59.7857215 130.385608,60.7709304 129.525906,61.6536408 C128.964945,62.2288559 128.386232,62.7852032 127.789767,63.3226825 C127.209158,64.1151817 126.449905,64.7579564 125.574325,65.1982509 C124.596446,65.9550056 123.58205,66.6638256 122.531135,67.324711 L121.876849,67.733175 C121.289514,68.0988037 120.686962,68.4751413 120.096583,68.8667771 C120.200052,68.8560683 120.30352,68.8438297 120.40851,68.8392402 C123.09331,68.7126896 125.551273,70.3463825 126.487282,72.8795144 L122.630039,76.0340185 L126.872245,75.04575 C126.868793,77.1784987 125.777214,79.1603121 123.981019,80.2949074 C122.184824,81.4295028 119.935249,81.5581835 118.02265,80.6357394 L118.308709,80.993719 C118.498909,81.2308423 118.687587,81.4664357 118.8717,81.7004993 C121.382331,84.8963087 122.079221,87.9299565 120.8376,90.2430556 L119.335786,89.4230681 C120.545454,87.1711621 118.727148,84.2889673 117.534218,82.7713785 C117.353148,82.5403745 117.167513,82.3124302 116.981879,82.0768368 C115.379639,80.0742927 113.553726,77.8040288 113.600895,75.0182131 C113.667845,70.8203667 117.721374,68.2946216 120.979108,66.2645406 Z" id="Path" fill="#F2F2F2"></path>
                <path d="M95.0693699,39.4434055 L94.7376074,38.751711 C94.7071704,38.6859082 94.6782554,38.6185751 94.6462966,38.551242 C97.3078312,39.6630617 100.380264,38.7748614 102.048219,36.4114429 C103.716174,34.0480243 103.535649,30.8385179 101.613309,28.679292 L100.275606,30.8553752 L100.579975,27.7534619 C100.575702,27.7495278 100.571122,27.7459455 100.566278,27.7427498 C99.2264724,26.7960617 97.5675438,26.4233485 95.9544485,26.7066052 C94.3413533,26.9898618 92.9062318,27.9058848 91.9648035,29.2531536 C91.8963205,29.3495623 91.8369685,29.450562 91.7760946,29.5500313 C91.6472787,28.8282975 91.625738,28.0913316 91.7121771,27.363236 C91.92067,25.9232259 92.71203,24.648488 93.7255796,23.1319631 C95.7344167,20.1264585 97.8102149,17.131666 99.9210156,14.1720704 C102.646081,15.5138214 105.936844,14.6645016 107.682431,12.1689108 C107.792004,12.0158811 107.889402,11.8536695 107.986801,11.6929883 C108.009628,11.6532005 108.032456,11.6118825 108.053762,11.5705645 C108.140507,11.4175347 108.221165,11.2522626 108.292692,11.090051 L108.32465,11.0089452 C108.382481,10.8696881 108.435745,10.7289008 108.476835,10.5865831 C108.495097,10.5330227 108.513359,10.4809925 108.528578,10.4335533 C108.577277,10.2805236 108.619889,10.118312 108.654891,9.95916106 C108.667066,9.90560064 108.676197,9.85204022 108.68685,9.80613129 C108.709678,9.68676808 108.729462,9.56587456 108.74468,9.44651135 C108.753811,9.38223885 108.762942,9.31949665 108.76903,9.25675444 C108.76903,9.23992117 108.76903,9.22461819 108.76903,9.20778492 L108.76903,9.20778492 C109.065952,6.2267316 107.200796,3.45854433 104.337413,2.6305657 L102.597943,5.46314662 L102.902312,2.40255136 C100.219183,2.27699923 97.7669983,3.92169427 96.8514518,6.46090067 L96.8514518,6.46090067 C96.8362333,6.50374901 96.8255804,6.54659734 96.8103619,6.58944567 C96.7829687,6.66902115 96.7570973,6.74247544 96.7327478,6.8297024 C96.7083982,6.91692937 96.6764395,7.03629258 96.6505681,7.13576193 C96.6323059,7.21380711 96.6125219,7.28879169 96.5957816,7.37142776 C96.5729539,7.48620009 96.5562136,7.6025027 96.5394733,7.71880532 C96.5288204,7.78613842 96.5166456,7.85347152 96.5090364,7.92080461 C96.4892524,8.09831914 96.4770776,8.27736396 96.4740339,8.45487849 C96.4740339,8.51762069 96.4740339,8.58036289 96.4740339,8.64310509 C96.4740339,8.7655289 96.4740339,8.88795271 96.4846868,9.00884623 C96.4846868,9.08536111 96.4983835,9.16187599 96.5075145,9.23533028 C96.5181675,9.34398141 96.5303422,9.45416284 96.5470825,9.56128367 C96.5592573,9.63932885 96.5729539,9.71431344 96.5881724,9.79082832 C96.6094782,9.89947945 96.6338278,10.0081306 96.6596992,10.1152514 C96.6779613,10.1871754 96.6962235,10.2590994 96.7160075,10.3310234 C96.7494881,10.447326 96.7890561,10.5636286 96.8301459,10.6799312 C96.8499299,10.7380825 96.8681921,10.7977642 96.8910198,10.8559155 C96.9564592,11.0257785 97.0279859,11.1941112 97.1086438,11.3578531 C97.1238623,11.388459 97.1421244,11.419065 97.1588647,11.4496709 C97.2273478,11.5843371 97.3003964,11.717473 97.3795324,11.8475483 C97.413013,11.902639 97.4510592,11.9577298 97.4860617,12.0128205 C97.5545447,12.1153504 97.6230278,12.2163501 97.6960764,12.31888 C97.74021,12.3770313 97.7843435,12.4336523 97.8299989,12.4902733 C97.9045694,12.5836215 97.9821835,12.6754393 98.0643632,12.7657269 C98.1115405,12.8192873 98.1587177,12.8728477 98.2089386,12.9187567 C98.3002494,13.0121048 98.3961257,13.1023924 98.4935239,13.1911497 L98.511786,13.2095132 C97.6220133,14.4582361 96.7393424,15.71257 95.8637736,16.9725151 C96.0535053,15.2760758 95.5394825,13.5760052 94.4428111,12.2728467 C93.3461397,10.9696882 91.7637947,10.178676 90.0685831,10.0861758 L89.386796,13.2125738 L88.6471788,10.1734027 C87.0412089,10.4576058 85.6134182,11.3719964 84.6782038,12.7152271 C84.3471157,13.1855168 84.0842465,13.7007782 83.8974967,14.2455247 C83.0652615,16.6470197 83.774476,19.3160426 85.6870055,20.9800739 C87.5995349,22.6441051 90.32819,22.9662636 92.5720202,21.7929526 C92.485275,21.9230279 92.3970079,22.0515729 92.3102626,22.1801179 C91.4154171,23.5191284 90.3029475,25.1840922 90.0274933,27.1260399 C89.8372625,28.4436261 90.0472773,29.7443791 90.3014256,30.951784 C90.4688287,31.7393771 90.6605813,32.5213592 90.8766835,33.2977302 C90.9498291,34.2806077 91.2539067,35.2319969 91.7639198,36.0736901 C92.1869931,37.2397769 92.6618091,38.3875001 93.1944553,39.507678 L93.5277396,40.2039634 C93.8321089,40.8298552 94.1364781,41.4725802 94.4271507,42.1214264 C94.344971,42.0571539 94.2643132,41.9913511 94.177568,41.9301392 C91.9784539,40.3760808 89.0324853,40.4299076 86.8909682,42.063275 L88.4645572,46.8071977 L85.4102118,43.6853905 C84.2758317,45.4874997 84.1405058,47.7488928 85.0517956,49.6747821 C85.9630854,51.6006714 87.7934755,52.92157 89.8996582,53.1732358 L89.4674539,53.3262656 L88.61522,53.6200828 C84.7923423,54.9652144 82.5841434,57.1504794 82.4,59.7734095 L84.1135989,59.8958333 C84.2931767,57.3417666 87.3657842,55.8895141 89.1828686,55.25138 C89.4583228,55.153441 89.7383425,55.0585625 90.0198841,54.9621538 C92.4411414,54.1357931 95.1941612,53.1992509 96.6338278,50.8226987 C98.808546,47.2326204 96.7327478,42.9141205 95.0693699,39.4434055 Z" id="Path" fill="#F2F2F2"></path>
                <path d="M31.3165038,28.270846 L30.5470541,28.2140711 L30.3254525,28.1925887 C32.6405412,26.4257254 33.4206216,23.2962156 32.2045122,20.6542177 C30.9884028,18.0122198 28.1000679,16.5615466 25.2470841,17.1598324 L26.4689703,19.4170208 L23.9190137,17.5986875 C23.9134601,17.6002938 23.9082457,17.6028935 23.9036248,17.6063598 C22.4023688,18.303343 21.2404204,19.5666194 20.6735634,21.1180995 C20.1067064,22.6695797 20.1814088,24.3820813 20.881226,25.8786253 C20.9304708,25.9860374 20.988949,26.0873117 21.0443494,26.185517 C20.3501744,25.9364728 19.6967645,25.5864078 19.105336,25.1466886 C17.9480835,24.2520993 17.2417286,22.9201894 16.4261119,21.2783189 C14.8195007,18.0191291 13.2559788,14.7062333 11.7417017,11.3825963 C14.2845168,9.67225828 15.2037371,6.37287517 13.9100111,3.599823 C13.8299883,3.42642919 13.7391933,3.26224214 13.6453204,3.09958954 L13.574531,2.97990178 C13.4791192,2.82645594 13.3806297,2.67301009 13.2744456,2.53183991 C13.2575177,2.50728858 13.237512,2.48580616 13.2205841,2.46278928 C13.1282502,2.34156707 13.0312995,2.22494822 12.9328099,2.11293276 L12.8189313,1.98710716 C12.7065917,1.8674194 12.5911742,1.75080056 12.4696011,1.64031955 C12.4295898,1.60349255 12.3865006,1.56973446 12.3464892,1.53290746 C12.2541552,1.45311562 12.1587434,1.37946161 12.0617928,1.30120423 C12.0110091,1.26284277 11.9617643,1.22294685 11.9079028,1.18611985 L11.8678914,1.15543068 L11.8678914,1.15543068 C9.41741802,-0.58673718 6.0687833,-0.335652761 3.90716409,1.75233502 L5.49838622,4.6892885 L2.97612987,2.89704103 C1.51364484,5.17910166 1.71007722,8.14444321 3.46088322,10.2148734 L3.46088322,10.2148734 C3.49012231,10.2501659 3.5224392,10.2808551 3.5516783,10.3146132 C3.60707868,10.3790605 3.66401796,10.4419732 3.72249614,10.5018171 C3.78097433,10.561661 3.8763861,10.655263 3.95025328,10.7304514 C4.02412045,10.8056399 4.06720964,10.8424669 4.12876562,10.896173 C4.2180218,10.9728959 4.31035577,11.0496188 4.40268974,11.1186694 C4.45655123,11.1616343 4.50887381,11.2061336 4.56427419,11.2475639 C4.70893075,11.3534416 4.85820401,11.4516469 5.01209396,11.5452489 C5.06595545,11.5774725 5.12135583,11.6050928 5.17675621,11.6357819 C5.28294028,11.6971603 5.39066325,11.7570041 5.50146402,11.8107102 C5.5707145,11.8444683 5.63996497,11.873623 5.70921545,11.9043122 C5.81078282,11.9503459 5.91081129,11.9933107 6.01699536,12.0316722 C6.09086254,12.0608269 6.16319082,12.0869127 6.2385969,12.111464 C6.34324207,12.1482911 6.44942613,12.1805147 6.5556102,12.2112038 L6.77259504,12.2695133 C6.8926292,12.298668 7.01266337,12.3232193 7.13423643,12.3447017 C7.19579241,12.3569774 7.25580949,12.3707875 7.31736548,12.3799943 C7.49895562,12.4076145 7.68208467,12.4290969 7.86675261,12.4398382 C7.9006084,12.4398382 7.93600309,12.4398382 7.97139778,12.4398382 C8.12528774,12.4398382 8.27917769,12.4490449 8.43306765,12.4398382 C8.49770143,12.4398382 8.56387411,12.4321659 8.63004679,12.4275625 C8.75315875,12.4275625 8.87780961,12.4106834 9.00092158,12.3968733 L9.21636751,12.3661842 C9.33640168,12.3477707 9.45643584,12.3247538 9.57493111,12.298668 C9.64572049,12.2848579 9.71650986,12.2695133 9.78729924,12.2510998 C9.91502791,12.2188761 10.0412177,12.1805147 10.1674074,12.1406188 L10.1935687,12.1329465 C10.832725,13.5354415 11.4811147,14.9338446 12.1387377,16.3281559 C10.7558631,15.3143097 9.01523108,14.9131957 7.3264441,15.2192034 C5.63765712,15.5252111 4.14984624,16.511318 3.2131204,17.9454751 L5.59379799,20.1059926 L2.55293249,19.2374891 C1.99136997,20.7832904 2.06830876,22.4881685 2.76683953,23.9774313 C3.00934408,24.5012434 3.325427,24.9879497 3.70556825,25.4228911 C5.37896008,27.3542653 8.06553143,28.0707984 10.4824778,27.2303547 C12.8994242,26.3899111 14.5565241,24.1629552 14.662533,21.6128308 C14.7302446,21.754001 14.7979562,21.8951712 14.8672066,22.0363413 C15.5827949,23.4864046 16.4722789,25.2924622 18.0234896,26.5092877 C19.0760969,27.3332919 20.314911,27.8013018 21.4983248,28.1833819 C22.2688005,28.4319642 23.0469707,28.6554836 23.8328354,28.8539403 C24.7263402,29.2817991 25.7089092,29.4921552 26.6998052,29.4677236 C27.9309249,29.6825478 29.169739,29.8421315 30.4147087,29.9357335 L31.1841585,29.9925084 C31.88128,30.0431456 32.5968683,30.0953171 33.3078399,30.1659022 C33.2108892,30.2057981 33.1123996,30.2441596 33.0169878,30.2886589 C30.5524062,31.4355445 29.115345,34.0407299 29.4636688,36.7303155 L34.3881473,37.729248 L30.1269345,38.8355925 C31.1247609,40.7297798 33.0280235,41.9804907 35.1672414,42.1477822 C37.3064593,42.3150737 39.3819987,41.3755138 40.6637797,39.6595967 C40.6345406,39.8130425 40.6053015,39.9664884 40.5745235,40.1122619 C40.5160453,40.4191536 40.4560282,40.7091663 40.4006279,41.0037823 C39.6450282,45.0179256 40.4360225,48.0392743 42.6289544,49.5138889 L43.6,48.0776358 C41.4655463,46.6429171 41.7533205,43.2302815 42.1088063,41.3260186 C42.1626678,41.0360059 42.221146,40.7429244 42.2796242,40.4498428 C42.787461,37.9149174 43.3522372,35.0424112 42.0180113,32.5872777 C39.9912806,28.8953706 35.1806806,28.548583 31.3165038,28.270846 Z" id="Path" fill="#F2F2F2"></path>
                <rect id="Rectangle" fill="#3F3D56" x="10.8" y="84.2534722" width="14.4" height="29.5486111"></rect>
                <rect id="Rectangle" fill="#000000" opacity="0.1" x="10.8" y="84.2534722" width="14.4" height="29.5486111"></rect>
                <path d="M91.6,42.8206648 L91.6,42.8206648 C91.4358103,23.3409393 75.5738621,7.59753424 56.0245517,7.58680556 C36.3064483,7.57608755 20.4,23.723916 20.4,43.3997255 L20.4,107.920571 C20.4,111.389371 23.2167465,114.201389 26.6913793,114.201389 L91.6,114.201389 C111.261328,114.201389 127.2,97.9830928 127.2,78.3547723 C127.2,58.7264519 111.261328,42.8206648 91.6,42.8206648 Z" id="Path" fill="#FF826B"></path>
                <path d="M20.4,91.0416667 L36.8,91.0416667 L36.8,114.201389 L26.7407156,114.201389 C23.2439523,114.201389 20.4092655,111.367206 20.4092655,107.871065 L20.4092655,91.0416667 L20.4,91.0416667 Z" id="Path" fill="#5F5478"></path>
                <rect id="Rectangle" fill="#D4A1A1" x="25.2" y="79.8611111" width="17.6" height="17.5694444"></rect>
                <rect id="Rectangle" fill="#000000" opacity="0.1" x="25.2" y="81.4583333" width="17.6" height="17.5694444"></rect>
                <path d="M56.9008209,79.8611111 C56.9008209,79.8611111 73.7092955,87.5866565 73.1881261,91.4494292 C72.6669567,95.3122019 69.2260197,95.8333333 69.2260197,95.8333333 L59.0997899,90.9267739 L52,85.288802 L56.9008209,79.8611111 Z" id="Path" fill="#5F5478"></path>
                <path d="M40.5827267,87.7011702 C40.701048,88.4673799 40.7717334,89.2764974 40.492065,89.9997993 C40.1847371,90.7935926 39.5009326,91.3789768 39.1259926,92.1451865 C38.5651193,93.2822417 38.7756389,94.6844055 39.3949045,95.7923448 C40.0141702,96.900284 40.9883995,97.7645685 41.9902884,98.5506997 C43.4808285,99.7122736 45.1004464,100.755851 46.9075343,101.29986 C49.0726591,101.949606 51.3837647,101.851531 53.6426245,101.747327 C54.015503,101.749836 54.3862289,101.690807 54.739785,101.572631 C54.9865702,101.461908 55.218801,101.321408 55.4312727,101.15428 C56.6114118,100.29919 57.8099904,99.4088546 58.6075063,98.1905811 C59.6996039,96.4947215 59.9033421,94.3773257 59.1545499,92.5053051 C58.4123531,90.7016474 56.8326878,89.2994837 56.294864,87.4253347 C55.9045577,86.0645463 56.1104673,84.6148775 56.1058574,83.198922 C56.1236014,82.961292 56.077452,82.7232435 55.9721698,82.5093332 C55.7585769,82.1568768 55.2945118,82.0679964 54.8842291,82.0158942 C52.1029119,81.6527108 49.2954718,81.3814725 46.4864951,81.478015 C45.0641335,81.5209919 43.6477135,81.6803885 42.2515171,81.9545974 C41.4970271,82.1078393 39.6807194,82.2457571 39.4855662,83.2127137 C39.3718549,83.7904359 39.8866291,84.6577853 40.0433663,85.204859 C40.2746307,86.0250672 40.454762,86.8587652 40.5827267,87.7011702 L40.5827267,87.7011702 Z" id="Path" fill="#FBBEBE"></path>
                <path d="M40.5827267,87.7011702 C40.701048,88.4673799 40.7717334,89.2764974 40.492065,89.9997993 C40.1847371,90.7935926 39.5009326,91.3789768 39.1259926,92.1451865 C38.5651193,93.2822417 38.7756389,94.6844055 39.3949045,95.7923448 C40.0141702,96.900284 40.9883995,97.7645685 41.9902884,98.5506997 C43.4808285,99.7122736 45.1004464,100.755851 46.9075343,101.29986 C49.0726591,101.949606 51.3837647,101.851531 53.6426245,101.747327 C54.015503,101.749836 54.3862289,101.690807 54.739785,101.572631 C54.9865702,101.461908 55.218801,101.321408 55.4312727,101.15428 C56.6114118,100.29919 57.8099904,99.4088546 58.6075063,98.1905811 C59.6996039,96.4947215 59.9033421,94.3773257 59.1545499,92.5053051 C58.4123531,90.7016474 56.8326878,89.2994837 56.294864,87.4253347 C55.9045577,86.0645463 56.1104673,84.6148775 56.1058574,83.198922 C56.1236014,82.961292 56.077452,82.7232435 55.9721698,82.5093332 C55.7585769,82.1568768 55.2945118,82.0679964 54.8842291,82.0158942 C52.1029119,81.6527108 49.2954718,81.3814725 46.4864951,81.478015 C45.0641335,81.5209919 43.6477135,81.6803885 42.2515171,81.9545974 C41.4970271,82.1078393 39.6807194,82.2457571 39.4855662,83.2127137 C39.3718549,83.7904359 39.8866291,84.6577853 40.0433663,85.204859 C40.2746307,86.0250672 40.454762,86.8587652 40.5827267,87.7011702 L40.5827267,87.7011702 Z" id="Path" fill="#F4C8C8" opacity="0.35172526"></path>
                <ellipse id="Oval" fill="#D4A1A1" cx="28" cy="73.4722222" rx="13.2" ry="13.1770833"></ellipse>
                <ellipse id="Oval" fill="#F4C8C8" cx="47.6" cy="75.0694444" rx="13.2" ry="13.1770833"></ellipse>
                <path d="M55.7560529,68.0695402 C55.1869764,68.3194588 54.6974483,68.7202428 54.1436696,69.0021631 C52.5511734,69.8113506 50.6389541,69.5507648 48.8934804,69.1636958 C47.9679663,68.9579702 46.8818258,68.5541384 46.7059016,67.6276111 C46.5177392,66.6431758 47.4952657,65.8477033 47.8073399,64.8967937 C46.3273798,64.6214088 44.7974494,64.899199 43.5102008,65.6770272 C41.9024068,66.6568908 40.7275393,68.3926057 38.9055768,68.8680605 C38.5698832,68.9758608 38.2086721,68.9758608 37.8729784,68.8680605 C37.5255116,68.7065295 37.2503325,68.4226378 37.1004418,68.0710641 C36.2651845,66.3505882 37.4063969,64.3817176 37.6924649,62.4905656 C37.9265206,60.9148596 37.6083273,59.0938067 38.6776403,57.9097414 C39.7821381,56.6906265 41.7081253,56.8658743 43.3205086,56.510807 C44.4246185,56.2671492 45.4449569,55.7384451 46.2790943,54.9777701 C46.5052268,54.7466156 46.7520308,54.5364656 47.016446,54.3499259 C47.3579383,54.153737 47.7357014,54.0283001 48.1270629,53.9811436 C49.6490498,53.7488511 51.2044455,54.0608937 52.5175183,54.8619541 C53.4353836,55.4212231 54.2216881,56.2166956 55.2496972,56.5153787 C55.8004164,56.6769115 56.3832608,56.6814831 56.9508075,56.7622495 C59.3357044,57.1365279 61.3141264,58.8002107 62.0847337,61.0794401 C62.2193539,61.496987 62.3142,61.9358684 62.5559045,62.298555 C63.0347242,63.0254523 63.9648277,63.2982293 64.6211013,63.8712133 C65.277375,64.4441973 65.6185149,65.3006255 65.9030531,66.123528 C66.6531085,68.3476634 67.0851736,70.6658941 67.1865347,73.0100033 C67.2416066,74.2855023 67.1589987,75.6722455 66.3390391,76.6521091 C66.1448052,76.8561172 65.9609998,77.0697325 65.7883199,77.2921444 C65.2207733,78.1379054 65.5267284,79.2732061 65.4028165,80.277452 C65.3004215,81.0883951 64.9141907,81.8373813 64.3120867,82.3926164 C64.170349,82.5490716 63.9725544,82.6437575 63.7613675,82.65625 C63.5166035,82.6440589 63.3269113,82.4398571 63.1938209,82.2341315 C62.7257096,81.5087581 62.6063871,80.6172803 62.2621876,79.8248556 C61.9179882,79.032431 61.1791067,78.2750558 60.3209027,78.3954434 C60.1021448,78.4259213 59.8956251,78.5112593 59.6768672,78.5478328 C59.0649571,78.645362 58.4362194,78.300962 58.0522457,77.8102683 C57.6682721,77.3195745 57.4862288,76.7023976 57.3577277,76.094364 C56.9936412,74.3647448 57.0074091,72.5894087 57.1466187,70.8293116 C57.2001608,70.149655 57.5933131,68.9412074 57.4112698,68.2981242 C57.2292266,67.6550411 56.2868849,67.8348606 55.7560529,68.0695402 Z" id="Path" fill="#9D9D9D"></path>
                <path d="M49.6148169,99.2397626 C47.5141742,98.4025699 45.7520882,96.8947157 44.6050084,94.9527637 C43.7638895,93.5196812 43.2810535,91.8906216 42.3261452,90.5249062 C40.9345318,88.5345139 38.3096873,89.5373654 35.8785924,89.5251168 C32.7647612,89.5098061 30.2198769,89.1010101 27.662691,90.8709283 C25.9589256,92.0483219 24.1259938,93.4063819 23.6646855,95.4166782 C23.2571965,97.1590371 23.9845259,99.0177573 23.5770369,100.761647 C23.3017896,101.93751 23.6523839,103.018446 23.4524837,104.21115 C23.1710856,105.895328 22.9450445,107.467738 23.8107665,108.939098 L26.8000445,114.019191 L59.2453971,114.141677 C59.2254071,114.141677 59.1854271,114.201389 59.165437,114.201389 L82.4,114.201389 C82.3584823,113.106673 82.289286,112.03033 81.9386917,110.995326 C81.5681073,109.923576 81.0376027,108.913069 80.5101735,107.908687 L74.6484823,96.7640207 C73.5290408,94.6327698 72.3034983,92.3912818 70.2122339,91.18786 C69.0697269,90.5310305 67.7519228,90.2416581 66.5386819,89.74406 C64.9471681,89.0964169 64.5212268,89.549614 62.8605168,89.1056034 C61.1998068,88.6615928 58.1182671,87.504103 57.2125651,88.9524962 C56.4990749,90.0977374 56.7082013,91.5645035 56.4437179,92.8858178 C56.2038375,94.0861775 55.5641566,95.1701758 54.8552795,96.1714962 C54.2048348,97.0901389 53.4713545,97.976629 52.5487379,98.6212099 C51.6261212,99.2657908 50.6665999,99.657745 49.6148169,99.2397626 Z" id="Path" fill="#3F3D56"></path>
                <path d="M49.6,105.815972 C49.6,105.815972 38.2928537,106.613995 38.4007676,108.808556 C38.4007676,108.808556 49.1651708,111.50261 49.1651708,111.403586 C49.1651708,111.304561 49.6,105.815972 49.6,105.815972 Z" id="Path" fill="#F4C8C8"></path>
                <path d="M36.0895113,100.459907 C36.0895113,100.459907 36.9297812,107.170501 39.9749929,108.448562 C43.0202045,109.726622 52.6879083,109.939632 52.6879083,109.939632 L59.2,114.201389 L27.0535432,114.201389 C27.0535432,114.201389 25.5830709,96.6319444 27.0535432,96.6319444 C28.5240156,96.6319444 36.0895113,100.459907 36.0895113,100.459907 Z" id="Path" fill="#3F3D56"></path>
                <path d="M61.4825224,98.2291667 L69.0551503,104.492813 L48.4544114,105.015418 C48.4544114,105.015418 45.4658622,108.672133 46.697795,109.714296 C47.9297277,110.75646 53.7089192,111.487802 53.7089192,111.487802 L59.0692843,114.201389 L81.6,114.173964 L74.1010119,100.735539 L61.4825224,98.2291667 Z" id="Path" fill="#3F3D56"></path>
                <path d="M61.4825224,98.2291667 L69.0551503,104.492813 L48.4544114,105.015418 C48.4544114,105.015418 45.4658622,108.672133 46.697795,109.714296 C47.9297277,110.75646 53.7089192,111.487802 53.7089192,111.487802 L59.0692843,114.201389 L81.6,114.173964 L74.1010119,100.735539 L61.4825224,98.2291667 Z" id="Path" fill="#000000" opacity="0.1"></path>
                <polygon id="Path" fill="#5F5478" points="65.4393018 88.6458333 52.4 99.1789786 61.9692146 106.614583 72.8 92.6733897"></polygon>
                <path d="M58.5344382,100.315933 C58.5344382,100.315933 67.1878836,98.7306634 68.7523827,97.9904597 C70.3168818,97.250256 76.5748782,94.5037918 74.9008033,96.6179986 C73.2267284,98.7322055 72.5038324,98.8355256 72.5038324,98.8355256 C72.5038324,98.8355256 78.9672834,99.3644628 78.758785,100.632062 C78.5502866,101.89966 77.8213031,102.110927 77.8213031,102.110927 C77.8213031,102.110927 80.5317825,103.696197 79.9062873,104.115645 C79.280792,104.535094 79.6977889,106.017044 79.5927787,106.334714 C79.4877685,106.652385 80.3232841,108.339433 79.4892904,108.553783 C78.6552967,108.768134 69.791831,108.342517 67.9229547,107.919984 C66.0540783,107.497451 57.6,108.024846 57.6,108.024846 L58.5344382,100.315933 Z" id="Path" fill="#E0AAAA"></path>
                <path d="M17.8880045,85.8506944 C17.8880045,85.8506944 14.5399944,89.9488818 17.8880045,94.8875656 C21.2360146,99.8262495 28.1428128,105.501135 31.9108515,106.445926 C35.6788902,107.390718 60.688159,107.8125 60.688159,107.8125 C60.688159,107.8125 61.8398012,96.4627297 60.688159,96.0424814 C59.5365169,95.6222332 39.1307619,96.9888069 36.3051147,94.8875656 C33.4794675,92.7863244 25.0025259,86.6911909 22.4930457,86.4810668 C20.9483526,86.3497437 19.41134,86.139346 17.8880045,85.8506944 Z" id="Path" fill="#5F5478"></path>
                <path d="M36.629631,64.0565581 C35.7157925,63.66905 34.7675149,63.3698384 33.7975588,63.1629498 C29.0155851,62.149785 24.4100456,67.8149243 25.5507836,72.5251442 C26.0070788,74.4257862 27.2938312,76.1854128 27.0900194,78.132038 C26.8983754,79.9820984 25.3971642,81.4658253 25.0868834,83.2990251 C24.9947879,83.7146909 25.0346937,84.1490153 25.2009572,84.5405735 C25.4899442,85.1306922 26.1667821,85.4341818 26.5074825,85.9951777 C27.0808935,86.9393676 26.4405592,88.2376287 25.4853813,88.7863624 C24.5302033,89.3350961 23.3803394,89.356555 22.2913149,89.4469887 C20.924082,89.5606736 19.5699166,89.7992333 18.2454974,90.1597295 C17.4941313,90.3651214 16.7366813,90.6195622 16.1298087,91.1100505 C14.6939998,92.2688289 14.4962719,94.4499689 15.0210113,96.226456 C15.5457508,98.0029431 16.6362964,99.5464483 17.4226451,101.221772 C18.2089938,102.897096 18.6789779,104.900434 17.903276,106.578824 C17.0910706,108.336917 15.0027595,109.589195 15.0879346,111.528156 C15.1107494,112.050833 15.3023934,112.56278 15.2658898,113.083924 C15.1852776,114.288686 13.8528956,115.111786 12.6604442,114.987631 C11.4679927,114.863477 10.4504544,114.038843 9.68692047,113.105383 C8.41768116,111.553763 7.636094,109.656154 7.44194809,107.654832 C7.25638804,105.711272 7.63359207,103.715598 7.18033884,101.816489 C6.75902627,100.05533 5.66695976,98.5486113 4.72547067,97.0051061 C1.69874217,92.0346112 0.0660860207,86.3300449 0.00129437181,80.4986438 C-0.0123944842,79.0287118 0.0773435717,77.5388538 0.518428931,76.1378967 C1.07206711,74.3828685 2.14892378,72.8500927 2.95200333,71.1946949 C3.80223338,69.4427322 5.79015947,64.31713 7.58644157,59.5701234 C9.40685848,54.7409962 14.1712142,51.7018636 19.2812875,52.1101037 C19.9309326,52.181449 20.5870839,52.1659875 21.23271,52.0641205 C22.3916998,51.8372696 23.4563886,51.2624787 24.5986476,50.952858 C27.792714,50.0883725 31.4795792,51.6134844 33.1496196,54.4966356 C33.6348135,55.335064 33.9618251,56.2685244 34.5306731,57.0517728 C35.0386817,57.7507186 35.7155196,58.3009851 36.3041404,58.9309559 C36.6309823,59.2806048 36.9304956,59.6552086 37.2,60.051415" id="Path" fill="#6B6A73"></path>
                <path d="M91.3290985,42.8405534 L91.3290985,42.8405534 C91.1655043,23.3498292 75.3610823,7.59753496 55.8826712,7.58680556 C45.2322307,7.58680556 35.7009579,12.329201 29.2,19.813725 C35.3550085,15.0551479 42.9116864,12.4797675 50.6843511,12.4916748 C70.1627622,12.5024042 85.9671842,28.2546984 86.1307784,47.7454227 L86.1307784,47.7454227 C105.7208,47.7454227 121.601668,63.6663218 121.601668,83.3057249 C121.613385,91.8721729 118.528796,100.152782 112.918945,106.614583 C121.676763,99.8908279 126.808897,89.4595783 126.8,78.4008556 C126.8,58.7614525 110.919121,42.8405534 91.3290985,42.8405534 Z" id="Path" fill="#000000" opacity="0.1"></path>
            </g>
        </g>
    </g>
</svg>