<?xml version="1.0" encoding="UTF-8"?>
<svg width="40px" height="40px" viewBox="0 0 40 40" version="1.1" xmlns="http://www.w3.org/2000/svg" xmlns:xlink="http://www.w3.org/1999/xlink">
    <!-- Generator: sketchtool 57.1 (101010) - https://sketch.com -->
    <title>981FD221-C574-4A22-B1FC-DF3D21B55FCA</title>
    <desc>Created with sketchtool.</desc>
    <g id="Landing-Page" stroke="none" stroke-width="1" fill="none" fill-rule="evenodd">
        <g id="Landing-Page---Social-sharing" transform="translate(-280.000000, -1160.000000)">
            <g id="Section-2" transform="translate(3.000000, 780.000000)">
                <g id="Card/No-button-Copy-2-Card/Feature/Left" transform="translate(249.000000, 320.000000)">
                    <g id="Card/Feature">
                        <g id="icons/arrow-right-icons/world" transform="translate(24.000000, 56.000000)">
                            <g id="icons/world">
                                <path d="M12.16,17 L18.06,17 C18.7,14.5 19.62,12.1 20.82,9.88 C17.14,11.14 14.08,13.68 12.16,17 Z M17,25 C17,23.64 17.12,22.32 17.28,21 L10.52,21 C10.2,22.28 10,23.62 10,25 C10,26.38 10.2,27.72 10.52,29 L17.28,29 C17.12,27.68 17,26.36 17,25 Z M12.16,33 C14.08,36.32 17.14,38.86 20.82,40.12 C19.62,37.9 18.7,35.5 18.06,33 L12.16,33 L12.16,33 Z M26,9.08 C24.34,11.48 23.04,14.14 22.18,17 L29.82,17 C28.96,14.14 27.66,11.48 26,9.08 Z M39.84,17 C37.92,13.7 34.86,11.14 31.18,9.88 C32.38,12.1 33.3,14.5 33.94,17 L39.84,17 Z M26,40.92 C27.66,38.52 28.96,35.86 29.82,33 L22.18,33 C23.04,35.86 24.34,38.52 26,40.92 Z M31.18,40.12 C34.86,38.86 37.92,36.3 39.84,33 L33.94,33 C33.3,35.5 32.38,37.9 31.18,40.12 L31.18,40.12 Z M41.48,21 L34.72,21 C34.88,22.32 35,23.64 35,25 C35,26.36 34.88,27.68 34.72,29 L41.48,29 C41.8,27.72 42,26.38 42,25 C42,23.62 41.8,22.28 41.48,21 Z M21.32,21 C21.14,22.3 21,23.64 21,25 C21,26.36 21.14,27.68 21.32,29 L30.68,29 C30.86,27.68 31,26.36 31,25 C31,23.64 30.86,22.3 30.68,21 L21.32,21 Z" id="Shape" fill="#FF826B" fill-rule="nonzero" opacity="0.230840774"></path>
                                <polygon id="Path" points="0 0 48 0 48 48 0 48"></polygon>
                                <path d="M23.98,4 C12.94,4 4,12.96 4,24 C4,35.04 12.94,44 23.98,44 C35.04,44 44,35.04 44,24 C44,12.96 35.04,4 23.98,4 Z M37.84,16 L31.94,16 C31.3,13.5 30.38,11.1 29.18,8.88 C32.86,10.14 35.92,12.7 37.84,16 Z M24,8.08 C25.66,10.48 26.96,13.14 27.82,16 L20.18,16 C21.04,13.14 22.34,10.48 24,8.08 Z M8.52,28 C8.2,26.72 8,25.38 8,24 C8,22.62 8.2,21.28 8.52,20 L15.28,20 C15.12,21.32 15,22.64 15,24 C15,25.36 15.12,26.68 15.28,28 L8.52,28 Z M10.16,32 L16.06,32 C16.7,34.5 17.62,36.9 18.82,39.12 C15.14,37.86 12.08,35.32 10.16,32 L10.16,32 Z M16.06,16 L10.16,16 C12.08,12.68 15.14,10.14 18.82,8.88 C17.62,11.1 16.7,13.5 16.06,16 L16.06,16 Z M24,39.92 C22.34,37.52 21.04,34.86 20.18,32 L27.82,32 C26.96,34.86 25.66,37.52 24,39.92 Z M28.68,28 L19.32,28 C19.14,26.68 19,25.36 19,24 C19,22.64 19.14,21.3 19.32,20 L28.68,20 C28.86,21.3 29,22.64 29,24 C29,25.36 28.86,26.68 28.68,28 Z M29.18,39.12 C30.38,36.9 31.3,34.5 31.94,32 L37.84,32 C35.92,35.3 32.86,37.86 29.18,39.12 L29.18,39.12 Z M32.72,28 C32.88,26.68 33,25.36 33,24 C33,22.64 32.88,21.32 32.72,20 L39.48,20 C39.8,21.28 40,22.62 40,24 C40,25.38 39.8,26.72 39.48,28 L32.72,28 Z" id="Shape" fill="#3F3D56" fill-rule="nonzero"></path>
                            </g>
                        </g>
                    </g>
                </g>
            </g>
        </g>
    </g>
</svg>