<?xml version="1.0" encoding="UTF-8"?>
<svg width="40px" height="40px" viewBox="0 0 40 40" version="1.1" xmlns="http://www.w3.org/2000/svg" xmlns:xlink="http://www.w3.org/1999/xlink">
    <!-- Generator: sketchtool 57.1 (101010) - https://sketch.com -->
    <title>D307D459-FD8D-477A-A00F-DD180AA63D3A</title>
    <desc>Created with sketchtool.</desc>
    <g id="Overview" stroke="none" stroke-width="1" fill="none" fill-rule="evenodd">
        <g id="Dashboard---Goals---New" transform="translate(-1174.000000, -307.000000)">
            <g id="Group-9-Copy-6" transform="translate(1170.000000, 303.000000)">
                <g id="icons/goal-copy-4-icons/minus">
                    <g id="twotone-add_circle-24px">
                        <path d="M26,9 C17.18,9 10,16.18 10,25 C10,33.82 17.18,41 26,41 C34.82,41 42,33.82 42,25 C42,16.18 34.82,9 26,9 Z M36,27 L16,27 L16,23 L36,23 L36,27 Z" id="Shape" fill="#FF826B" fill-rule="nonzero" opacity="0.230840774"></path>
                        <polygon id="Path" points="0 0 48 0 48 48 0 48"></polygon>
                        <path d="M14,22 L14,26 L34,26 L34,22 L14,22 Z M24,4 C12.96,4 4,12.96 4,24 C4,35.04 12.96,44 24,44 C35.04,44 44,35.04 44,24 C44,12.96 35.04,4 24,4 Z M24,40 C15.18,40 8,32.82 8,24 C8,15.18 15.18,8 24,8 C32.82,8 40,15.18 40,24 C40,32.82 32.82,40 24,40 Z" id="Shape" fill="#3F3D56" fill-rule="nonzero"></path>
                    </g>
                </g>
            </g>
        </g>
    </g>
</svg>