<?xml version="1.0" encoding="UTF-8"?>
<svg width="40px" height="36px" viewBox="0 0 40 36" version="1.1" xmlns="http://www.w3.org/2000/svg" xmlns:xlink="http://www.w3.org/1999/xlink">
    <!-- Generator: sketchtool 57.1 (101010) - https://sketch.com -->
    <title>C7A30ECD-6BFF-4C17-9080-5E3DDE10B256</title>
    <desc>Created with sketchtool.</desc>
    <g id="Overview" stroke="none" stroke-width="1" fill="none" fill-rule="evenodd">
        <g id="Dashboard---Goals---New" transform="translate(-980.000000, -133.000000)">
            <g id="Group-9" transform="translate(976.000000, 127.000000)">
                <g id="icons/goal-copy-4-icons/domain">
                    <g id="twotone-domain-24px">
                        <path d="M26,23 L30,23 L30,27 L26,27 L26,31 L30,31 L30,35 L26,35 L26,39 L42,39 L42,19 L26,19 L26,23 Z M34,23 L38,23 L38,27 L34,27 L34,23 Z M34,31 L38,31 L38,35 L34,35 L34,31 Z" id="Shape" fill="#FF826B" fill-rule="nonzero" opacity="0.230840774"></path>
                        <polygon id="Path" points="0 0 48 0 48 48 0 48"></polygon>
                        <path d="M24,14 L24,6 L4,6 L4,42 L44,42 L44,14 L24,14 Z M12,38 L8,38 L8,34 L12,34 L12,38 Z M12,30 L8,30 L8,26 L12,26 L12,30 Z M12,22 L8,22 L8,18 L12,18 L12,22 Z M12,14 L8,14 L8,10 L12,10 L12,14 Z M20,38 L16,38 L16,34 L20,34 L20,38 Z M20,30 L16,30 L16,26 L20,26 L20,30 Z M20,22 L16,22 L16,18 L20,18 L20,22 Z M20,14 L16,14 L16,10 L20,10 L20,14 Z M40,38 L24,38 L24,34 L28,34 L28,30 L24,30 L24,26 L28,26 L28,22 L24,22 L24,18 L40,18 L40,38 Z M32,22 L36,22 L36,26 L32,26 L32,22 Z M32,30 L36,30 L36,34 L32,34 L32,30 Z" id="Shape" fill="#3F3D56" fill-rule="nonzero"></path>
                    </g>
                </g>
            </g>
        </g>
    </g>
</svg>