<?xml version="1.0" encoding="UTF-8"?>
<svg width="36px" height="36px" viewBox="0 0 36 36" version="1.1" xmlns="http://www.w3.org/2000/svg" xmlns:xlink="http://www.w3.org/1999/xlink">
    <!-- Generator: sketchtool 58 (101010) - https://sketch.com -->
    <title>D423FB9B-F05D-4E72-A704-99437DBC5CF1</title>
    <desc>Created with sketchtool.</desc>
    <g id="Overview" stroke="none" stroke-width="1" fill="none" fill-rule="evenodd">
        <g id="Dashboard---Goals---New" transform="translate(-982.000000, -221.000000)">
            <g id="Group-9-Copy-3" transform="translate(976.000000, 215.000000)">
                <g id="icons/goal-copy-4-icons/retirement">
                    <g id="twotone-beach_access-24px">
                        <path d="M17.2,16.2 C16.26,20.88 17.26,25.76 19.98,29.86 L30.88,18.96 C27.82,16.92 24.32,15.84 20.72,15.84 C19.52,15.84 18.34,15.96 17.2,16.2 L17.2,16.2 Z M28.24,11 C26.38,11 24.6,11.32 22.9,11.92 C26.72,12.3 30.48,13.7 33.78,16.06 L36.56,13.28 C34.06,11.8 31.22,11 28.24,11 Z M12,27.24 C12,30.22 12.8,33.06 14.28,35.54 L17.06,32.76 C14.7,29.46 13.3,25.72 12.92,21.88 C12.32,23.6 12,25.4 12,27.24 L12,27.24 Z" id="Shape" fill="#FF826B" fill-rule="nonzero" opacity="0.230840774"></path>
                        <polygon id="Path" points="0 0 48 0 48 48 0 48"></polygon>
                        <path d="M26.252,29.12 L29.108,26.264 L41.992,39.148 L39.132,42.004 L26.252,29.12 Z M26.24,6 C21.08,6 15.92,7.96 11.96,11.9 L11.94,11.92 C4.04,19.82 4.04,32.64 11.94,40.54 L40.54,11.92 C36.6,7.98 31.42,6 26.24,6 Z M12.28,34.54 C10.8,32.06 10,29.22 10,26.24 C10,24.38 10.32,22.6 10.92,20.9 C11.3,24.72 12.7,28.48 15.06,31.78 L12.28,34.54 Z M17.96,28.86 C15.26,24.76 14.24,19.86 15.2,15.2 C16.36,14.96 17.52,14.84 18.7,14.84 C22.3,14.84 25.8,15.94 28.86,17.96 L17.96,28.86 Z M20.9,10.92 C22.6,10.32 24.38,10 26.24,10 C29.22,10 32.06,10.8 34.54,12.28 L31.76,15.06 C28.46,12.7 24.72,11.3 20.9,10.92 L20.9,10.92 Z" id="Shape" fill="#3F3D56" fill-rule="nonzero"></path>
                    </g>
                </g>
            </g>
        </g>
    </g>
</svg>